<svg xmlns="http://www.w3.org/2000/svg" viewBox="0 0 164.38 29.11"><g data-name="Layer 2"><path class="cls-1" d="M9.72 8.54v1.6a.89.89 0 0 1-.22.57.68.68 0 0 1-.5.29H3.81v1.49h4.93a.66.66 0 0 1 .5.22.76.76 0 0 1 .21.56v1.6a.87.87 0 0 1-.21.57.65.65 0 0 1-.5.24H3.81v3.6a.77.77 0 0 1-.23.57.66.66 0 0 1-.51.25H.74a.67.67 0 0 1-.52-.25.8.8 0 0 1-.22-.62V8.52A.77.77 0 0 1 .21 8a.72.72 0 0 1 .53-.21H9a.74.74 0 0 1 .5.21.8.8 0 0 1 .22.54zm.41 10.8a2 2 0 0 1 .09-.59l.12-.33 3.93-10a1.36 1.36 0 0 1 .47-.58 1.4 1.4 0 0 1 .74-.22H18a1.29 1.29 0 0 1 .77.25 1.08 1.08 0 0 1 .4.55l4 10a2.71 2.71 0 0 0 .1.36 1.73 1.73 0 0 1 .09.53c0 .42-.24.67-.71.74h-2.42a1.34 1.34 0 0 1-.63-.13.64.64 0 0 1-.33-.38l-.54-1.78h-4l-.55 1.78a.63.63 0 0 1-.32.38 1.27 1.27 0 0 1-.62.13h-2.42c-.46-.05-.69-.31-.69-.71zm6.8-4.57h1.16l-1.4-4.17-1.39 4.17zm17.98 5.16c-.07 0-.58-.56-1.54-1.56s-2.36-2.49-4.2-4.46c-.18-.17-.29-.26-.34-.26s-.07 0-.09.08a1.71 1.71 0 0 0 0 .26v5.3a.67.67 0 0 1-.21.49.63.63 0 0 1-.53.22h-2.34a.76.76 0 0 1-.59-.28 1 1 0 0 1-.25-.65V8.63a1 1 0 0 1 .27-.69.8.8 0 0 1 .62-.3h2.2a1 1 0 0 1 .47.08 1.49 1.49 0 0 1 .43.36l2.66 2.78c1.23 1.28 2.2 2.27 2.89 3a.5.5 0 0 0 .2.09c.07 0 .11-.09.11-.28V8.36a.72.72 0 0 1 .21-.5.64.64 0 0 1 .48-.22h2.25a1 1 0 0 1 1 .94v10.55a.89.89 0 0 1-.28.64.84.84 0 0 1-.63.28h-2a2.44 2.44 0 0 1-.47 0 1.13 1.13 0 0 1-.32-.12zm5.09-2.1a1.25 1.25 0 0 1 .32-.74l.65-.85a4 4 0 0 1 .46-.58.51.51 0 0 1 .36-.17 1 1 0 0 1 .39.11c.15.07.37.19.64.35l.9.62a3.33 3.33 0 0 0 2.13.52 1 1 0 0 0 .66-.24.71.71 0 0 0 .24-.54 1 1 0 0 0-.42-.78 2.1 2.1 0 0 0-1.21-.41 8.37 8.37 0 0 1-2.43-.81 3 3 0 0 1-1.24-1.16 3.86 3.86 0 0 1-.45-1.66 3.65 3.65 0 0 1 .49-2.14 4.08 4.08 0 0 1 1.63-1.53 5.23 5.23 0 0 1 2.45-.55 7.34 7.34 0 0 1 2.06.3 6.68 6.68 0 0 1 1.55.61 3.6 3.6 0 0 1 1.11.88.71.71 0 0 1 .25.46.71.71 0 0 1-.14.38 6.79 6.79 0 0 1-.45.56l-.51.55a4.88 4.88 0 0 1-.38.36.43.43 0 0 1-.26.1.76.76 0 0 1-.32-.11c-.13-.07-.26-.14-.38-.22l-.33-.2a4.17 4.17 0 0 0-2.15-.78 1.37 1.37 0 0 0-.89.27.84.84 0 0 0-.33.67 1 1 0 0 0 .32.7 1.56 1.56 0 0 0 .9.39 7.31 7.31 0 0 1 3.79 1.51 3.38 3.38 0 0 1 1.25 2.56 3.61 3.61 0 0 1-.66 2 4.92 4.92 0 0 1-1.85 1.6 5.57 5.57 0 0 1-2.63.61 8.23 8.23 0 0 1-4.77-1.67c-.52-.31-.75-.65-.75-.97zm15.4-6.2a4.21 4.21 0 0 1 .6-2.17 4.43 4.43 0 0 1 1.58-1.58 4.17 4.17 0 0 1 2.16-.58 4.23 4.23 0 0 1 2.17.58 4.35 4.35 0 0 1 1.58 1.58 4.27 4.27 0 0 1 0 4.33 4.35 4.35 0 0 1-1.58 1.58 4.23 4.23 0 0 1-2.17.58 4.17 4.17 0 0 1-2.16-.58A4.43 4.43 0 0 1 56 13.79a4.17 4.17 0 0 1-.6-2.16zm6.17-.11a1.75 1.75 0 0 0-.25-.93 1.9 1.9 0 0 0-.7-.68 1.75 1.75 0 0 0-.92-.26 1.87 1.87 0 0 0-1 .26 1.83 1.83 0 0 0-.92 1.61 1.91 1.91 0 0 0 .24.94 1.85 1.85 0 0 0 .68.68 1.87 1.87 0 0 0 1 .26 1.75 1.75 0 0 0 .92-.26 1.9 1.9 0 0 0 .7-.68 1.81 1.81 0 0 0 .25-.94zM71.61 8v1.11a.55.55 0 0 1-.15.38.44.44 0 0 1-.33.16h-3.46v1H71a.43.43 0 0 1 .33.15.48.48 0 0 1 .14.37v1.07a.54.54 0 0 1-.14.38.41.41 0 0 1-.33.16h-3.33v2.4a.55.55 0 0 1-.15.38.47.47 0 0 1-.34.17h-1.55a.47.47 0 0 1-.35-.17.55.55 0 0 1-.15-.38V8a.46.46 0 0 1 .15-.36.45.45 0 0 1 .35-.15h5.5a.46.46 0 0 1 .33.15.5.5 0 0 1 .15.36zm4.64 11.34a2 2 0 0 1 .1-.59l.12-.33 3.93-10a1.36 1.36 0 0 1 .47-.58 1.4 1.4 0 0 1 .74-.22h2.55a1.29 1.29 0 0 1 .77.25 1.08 1.08 0 0 1 .4.55l4 10a2.71 2.71 0 0 0 .1.36 1.73 1.73 0 0 1 .09.53c0 .42-.24.67-.71.74h-2.45a1.34 1.34 0 0 1-.63-.13.64.64 0 0 1-.33-.38l-.55-1.78H80.9l-.55 1.78a.63.63 0 0 1-.32.38 1.27 1.27 0 0 1-.62.13H77c-.51-.05-.75-.31-.75-.71zm6.81-4.57h1.16l-1.4-4.17-1.39 4.17zm8.07 4.64V8.26a.59.59 0 0 1 .19-.44.61.61 0 0 1 .45-.18h2.75a.85.85 0 0 1 .37.08.66.66 0 0 1 .27.17l3.3 3.61 3.45-3.6a.9.9 0 0 1 .47-.23 5.4 5.4 0 0 1 .61 0h2.4a.6.6 0 0 1 .43.18.59.59 0 0 1 .19.44v11.12a.61.61 0 0 1-.18.45.56.56 0 0 1-.44.19H103a.67.67 0 0 1-.47-.19.59.59 0 0 1-.2-.45v-6.52l-2.85 3.61a1.06 1.06 0 0 1-.9.48 1.26 1.26 0 0 1-.51-.11 1.06 1.06 0 0 1-.38-.31l-2.92-3.67v6.52a.6.6 0 0 1-.17.45.58.58 0 0 1-.45.19h-2.38a.56.56 0 0 1-.45-.2.58.58 0 0 1-.19-.44zm21-8.6v1.44h5a.68.68 0 0 1 .5.22.75.75 0 0 1 .22.56v1.54a.76.76 0 0 1-.22.54.66.66 0 0 1-.5.24h-5v1.58h5.25a.7.7 0 0 1 .52.22.78.78 0 0 1 .22.58v1.52a.79.79 0 0 1-.22.56.69.69 0 0 1-.52.24H109a.69.69 0 0 1-.53-.24.79.79 0 0 1-.22-.56V8.49a.75.75 0 0 1 .22-.56.71.71 0 0 1 .53-.22h8.37a.7.7 0 0 1 .52.22.75.75 0 0 1 .22.56V10a.78.78 0 0 1-.23.54.7.7 0 0 1-.51.24zM127.32 19a2.56 2.56 0 0 0-.8-1.68 3 3 0 0 0-1.52-.56h-.3a1.21 1.21 0 0 0-.3 0v2.27a2 2 0 0 1-.06.54.58.58 0 0 1-.34.33 2 2 0 0 1-.86.14h-1.65a1.42 1.42 0 0 1-.87-.21.7.7 0 0 1-.32-.61V8.29a.6.6 0 0 1 .27-.47 1 1 0 0 1 .64-.2h4a6.75 6.75 0 0 1 3.94.9 3.51 3.51 0 0 1 1.38 2.86v.27a1.16 1.16 0 0 0 0 .17v.37a3.19 3.19 0 0 1-.54 1.64 5 5 0 0 1-1.2 1.11 3.33 3.33 0 0 1 1.38 1.22 4.84 4.84 0 0 1 .7 1.67 5.54 5.54 0 0 1 .15 1.56.6.6 0 0 1-.21.48.9.9 0 0 1-.6.18h-2.16c-.31 0-.51-.08-.6-.23a1.1 1.1 0 0 1-.14-.49q.03-.23.01-.33zm-2.64-5.55a3.72 3.72 0 0 0 1.5-.3c.45-.19.68-.64.68-1.35a1.43 1.43 0 0 0-.45-1.14 1.94 1.94 0 0 0-1.3-.39h-1.46v3.18h1zm8.57 5.82V8.45a.84.84 0 0 1 .21-.57.72.72 0 0 1 .57-.24h2.42a.72.72 0 0 1 .55.24.85.85 0 0 1 .22.57v10.82a.81.81 0 0 1-.22.59.75.75 0 0 1-.55.23H134a.75.75 0 0 1-.57-.23.8.8 0 0 1-.18-.59zm5.92-5.46a6.28 6.28 0 0 1 .89-3.25 6.63 6.63 0 0 1 2.43-2.36 6.53 6.53 0 0 1 3.33-.88 6.63 6.63 0 0 1 3.38.92.55.55 0 0 1 .32.51.73.73 0 0 1-.19.47l-1.74 1.91a.55.55 0 0 1-.41.18.83.83 0 0 1-.32-.07 2.61 2.61 0 0 0-1.06-.24 2.85 2.85 0 0 0-1.41.37 2.74 2.74 0 0 0-1 1 2.61 2.61 0 0 0-.37 1.37 2.51 2.51 0 0 0 .38 1.35 2.82 2.82 0 0 0 1 1 2.79 2.79 0 0 0 1.4.37 2.92 2.92 0 0 0 1.15-.25.66.66 0 0 1 .3-.07.5.5 0 0 1 .39.16l2 1.91a.67.67 0 0 1 .22.48.58.58 0 0 1-.27.48 6.81 6.81 0 0 1-3.72 1.14 6.7 6.7 0 0 1-5.76-3.26 6.28 6.28 0 0 1-.94-3.24zm11.97 5.53a2 2 0 0 1 .09-.59l.12-.33 3.94-10a1.23 1.23 0 0 1 .47-.58 1.34 1.34 0 0 1 .73-.22H159a1.27 1.27 0 0 1 .77.25 1.16 1.16 0 0 1 .41.55l4 10a2.71 2.71 0 0 0 .1.36 1.73 1.73 0 0 1 .09.53c0 .42-.23.67-.71.74h-2.43a1.39 1.39 0 0 1-.63-.13.6.6 0 0 1-.32-.38l-.55-1.78h-4l-.55 1.78a.6.6 0 0 1-.32.38 1.27 1.27 0 0 1-.62.13h-2.46c-.41-.05-.64-.31-.64-.71zm6.86-4.57h1.15l-1.4-4.17-1.39 4.17z"/><rect class="cls-1" x="55.97" y="17.25" width="15.38" height="3.04" rx="1.1" ry="1.1"/><rect class="cls-1" width="164.38" height="3.6" rx="1.3" ry="1.3"/><rect class="cls-1" y="24.81" width="53.53" height="3.6" rx="1.3" ry="1.3"/><rect class="cls-1" x="110.85" y="24.81" width="53.53" height="3.6" rx="1.3" ry="1.3"/><path class="cls-1" d="M59.78 24.3v.7a.33.33 0 0 1-.09.23.26.26 0 0 1-.21.1h-2.1v.61h2a.26.26 0 0 1 .2.08.32.32 0 0 1 .09.23v.65a.33.33 0 0 1-.09.23.25.25 0 0 1-.2.1h-2v1.46a.33.33 0 0 1-.09.23.26.26 0 0 1-.21.1h-.94a.26.26 0 0 1-.21-.1.33.33 0 0 1-.09-.23V24.3a.31.31 0 0 1 .08-.23.33.33 0 0 1 .22-.08h3.34a.29.29 0 0 1 .21.09.29.29 0 0 1 .09.22zm.64 2.18a2.51 2.51 0 0 1 .36-1.31 2.6 2.6 0 0 1 1-1 2.58 2.58 0 0 1 2.63 0 2.55 2.55 0 0 1 1 1 2.65 2.65 0 0 1 0 2.63 2.7 2.7 0 0 1-1 1 2.65 2.65 0 0 1-2.63 0 2.76 2.76 0 0 1-1-1 2.52 2.52 0 0 1-.36-1.32zm3.76-.06a1.11 1.11 0 0 0-.16-.57 1.27 1.27 0 0 0-.42-.41 1.11 1.11 0 0 0-1.15 0 1.15 1.15 0 0 0-.41.41 1.1 1.1 0 0 0-.15.57A1.16 1.16 0 0 0 62 27a1.27 1.27 0 0 0 .41.42 1.18 1.18 0 0 0 1.15 0A1.4 1.4 0 0 0 64 27a1.17 1.17 0 0 0 .18-.58zm2.12.23v-2.5q0-.21.24-.21h.94a.49.49 0 0 1 .23 0 .21.21 0 0 1 .08.16v2.35a1.06 1.06 0 0 0 .26.73.87.87 0 0 0 .67.27c.56 0 .84-.31.84-.95v-2.33a.18.18 0 0 1 .09-.16.31.31 0 0 1 .21-.07h1a.33.33 0 0 1 .21.06.21.21 0 0 1 .07.17v2.56a2.9 2.9 0 0 1-.2 1.1 1.87 1.87 0 0 1-.74.87 2.64 2.64 0 0 1-1.44.35 2.57 2.57 0 0 1-1.38-.34 2 2 0 0 1-.81-.88 2.59 2.59 0 0 1-.27-1.18zm9.82 2.27s-.24-.23-.63-.63l-1.7-1.81c-.07-.07-.12-.11-.14-.11a.25.25 0 0 0 0 .1v2.15a.28.28 0 0 1-.08.2.29.29 0 0 1-.21.09h-.95a.32.32 0 0 1-.24-.11.38.38 0 0 1-.1-.27v-4.19a.37.37 0 0 1 .11-.28.32.32 0 0 1 .25-.12h.89a.5.5 0 0 1 .19 0 .85.85 0 0 1 .18.15l1.07 1.12c.5.52.89.93 1.18 1.21a.13.13 0 0 0 .07 0v-2.19a.32.32 0 0 1 .08-.2.28.28 0 0 1 .2-.09h.91a.37.37 0 0 1 .27.11.37.37 0 0 1 .12.27v4.28a.36.36 0 0 1-.11.25.35.35 0 0 1-.26.12h-1zm2.41-.27v-4.4a.32.32 0 0 1 .1-.22.29.29 0 0 1 .22-.09h1.94a2.5 2.5 0 0 1 1.28.34 2.57 2.57 0 0 1 1 .92 2.33 2.33 0 0 1 .36 1.25 2.36 2.36 0 0 1-.43 1.26 2.68 2.68 0 0 1-1 .92 2.53 2.53 0 0 1-1.28.34h-1.87a.29.29 0 0 1-.22-.09.34.34 0 0 1-.1-.23zm2.28-1.23a.8.8 0 0 0 .44-.13 1.12 1.12 0 0 0 .33-.38 1.18 1.18 0 0 0 .12-.53 1.14 1.14 0 0 0-.12-.52 1 1 0 0 0-.32-.37.75.75 0 0 0-.45-.14h-.67a.11.11 0 0 0-.08 0 .17.17 0 0 0 0 .1v1.85a.16.16 0 0 0 0 .09.11.11 0 0 0 .08 0zm2.74 1.26a1 1 0 0 1 0-.24.85.85 0 0 1 0-.13l1.6-4a.43.43 0 0 1 .19-.23.48.48 0 0 1 .29-.09h1a.52.52 0 0 1 .31.1.44.44 0 0 1 .16.22l1.61 4v.15a.76.76 0 0 1 0 .21.28.28 0 0 1-.28.3h-1a.58.58 0 0 1-.25 0 .27.27 0 0 1-.14-.16L87 28h-1.6l-.23.72a.26.26 0 0 1-.13.16.58.58 0 0 1-.25 0h-1c-.14.06-.24-.03-.24-.2zm2.76-1.85h.47l-.57-1.69-.56 1.69zm6.5-2.83a.29.29 0 0 1 .21.09.28.28 0 0 1 .09.2v.84a.29.29 0 0 1-.09.21.26.26 0 0 1-.21.1h-1.14v3.25a.38.38 0 0 1-.08.23.29.29 0 0 1-.21.09h-.95a.27.27 0 0 1-.21-.09.36.36 0 0 1-.08-.23v-3.25H89a.32.32 0 0 1-.32-.31v-.84a.25.25 0 0 1 .09-.2A.32.32 0 0 1 89 24zM94 28.65v-4.38a.41.41 0 0 1 .08-.24.32.32 0 0 1 .23-.09h1a.31.31 0 0 1 .22.09.36.36 0 0 1 .09.24v4.38a.32.32 0 0 1-.09.24.31.31 0 0 1-.22.09h-1a.32.32 0 0 1-.23-.09.36.36 0 0 1-.08-.24zm2.38-2.17a2.51 2.51 0 0 1 .36-1.31 2.46 2.46 0 0 1 1-1 2.51 2.51 0 0 1 1.26-.32 2.54 2.54 0 0 1 1.32.36 2.46 2.46 0 0 1 1 1 2.58 2.58 0 0 1 0 2.63 2.6 2.6 0 0 1-1 1 2.53 2.53 0 0 1-1.32.35 2.5 2.5 0 0 1-1.31-.35 2.6 2.6 0 0 1-1-1 2.52 2.52 0 0 1-.31-1.36zm3.75-.06a1 1 0 0 0-.16-.57 1.1 1.1 0 0 0-.42-.41 1 1 0 0 0-.56-.16 1.06 1.06 0 0 0-.58.16 1.15 1.15 0 0 0-.41.41 1.1 1.1 0 0 0-.15.57A1.16 1.16 0 0 0 98 27a1.27 1.27 0 0 0 .41.42 1.14 1.14 0 0 0 .58.15 1.09 1.09 0 0 0 .56-.15A1.21 1.21 0 0 0 100 27a1.07 1.07 0 0 0 .13-.58zm6.19 2.5s-.24-.23-.63-.63-1-1-1.7-1.81c-.08-.07-.12-.11-.14-.11v2.25a.31.31 0 0 1-.29.29h-1a.34.34 0 0 1-.24-.11.43.43 0 0 1-.1-.27v-4.19a.41.41 0 0 1 .11-.28.33.33 0 0 1 .25-.12h.9a.5.5 0 0 1 .19 0 .66.66 0 0 1 .17.15l1.08 1.12 1.17 1.21a.18.18 0 0 0 .08 0v-2.19a.28.28 0 0 1 .09-.2.26.26 0 0 1 .19-.09h.92a.4.4 0 0 1 .27.11.37.37 0 0 1 .12.27v4.28a.33.33 0 0 1-.12.25.32.32 0 0 1-.25.12h-1z"/></g></svg>