<svg xmlns="http://www.w3.org/2000/svg" viewBox="0 0 247.05 164.85"><defs><style>.cls-1{fill:#29a8df;opacity:.2}</style></defs><title>Asset 9</title><g id="Layer_2" data-name="Layer 2"><path class="cls-1" d="M122.92 154l.07-.23-.09-.21-.34-.18h-.36v-.25h-.34l-.06-.07V153l-.08-.09-.1-.06h-.6l-.19.13h-.34l-.09.05h-.24l-.17-.39v-.07l-.05-.06-.24-.22h-.07l-.1-.08v.07h-.14v.12h-.07v.14l-.22.44.4.54.14.06.11.07.17.07h.08v.87l.07.21.16.11h.26l.12-.05h.39l.23-.05.33-.21h.59l.4-.22.18-.14zm-3.34.8l-.1-.09h-.12l-.11.06-.18.13-.23.08-.08.06-.06.1.18.12h.12l.15-.07h.46l.07-.07-.08-.05zm10.13 6.06l-.31-.16-.24-.24v-.08l-.05-.3v-.1l-.11.02h-.46v-.85l-.51-.54-.21-.15-.78-.38-.66-.26h-.26l-.23-.14h-.32l-.07-.05-.08-.07h-.12l-.16-.14-.36-.14v-.11h-.17l-.34-.15h-.2l-.15.16-.09.23v.18l.06.23.1.2.3.35.06.12v.1l-.06.08-.19.15-.23.33-.06.07-.12.2-.25.09-.09.06v.12l-.06.05-.12.09-.13.1-.07.15v.25l.13.19.16.18.14.2.05.12v.46l.07.21h.13v.12l.14.49.08.14v.12l-.15 1v.63h.14v.21h.14l.22.06.25.1.21.12.14.13.1.17h.08l.11-.11h.06l.08-.05.27-.36.09-.34.06-.09.26-.24h.09l.3-.17.09-.06.14-.14.09-.06h.17l.2-.18.14-.11h.66l.1-.06.41-.09.21-.11h.37l.54-.46v-.07l.5-.27.07-.09.07-.12v-.26zm-11.13-9.49h-1.08l-.15-.15-.11-.08v.17H117l-.21-.08h-.97l-.07-.07h-.32v.29l-.11.12-.07.07v.21l.06.09h.25l.12-.07h.47l.52-.05h.13l.59.23.24.07h.46l.23-.09.23-.11.18-.17.1-.25zm-15.53-5.94v-.27l-.08-.08-.1-.06h-.15l-.07-.05h-.18l-.47.07-.08-.06h-.38l-.33.16-.47.29v.14l-.24.28-.07.05-.05.06.06.14.08.12h.05v.1h.17l.11.08h.15l.09.16.16.14v.06h.42l.28.07.13.12.33-.2.33-.29v-.06h.06v-.42l.21-.35.07-.25v-.07zm-4.75.81h-.07l-.07.07-.14.17-.06.07h-.09v.07l-.19.05-.21.29-.08.17v.3l.15.07h.12v-.27l.21-.23h.2l.11-.07h.08v-.32l.08-.13.11-.09-.08-.08zm14.38 4v-.32h-.19v-.11l.06-.11h-.37l.16.12h-.17l-.14-.14-.08-.06-.06-.08-.1-.23h.06v-.28l-.16-.1-.1-.14-.1-.16v-.11l-.06-.11-.07-.09-.09-.08h-.11v-.05l-.36.18-.09.07v.18l-.18.1v.06h-1.23l-.05.11.22.18v.23l.06.12.11.1h.06l.07.08.12.21.08.1h.09l.12.42h.13l.29-.05h.26v-.18l-.07-.09-.12-.06-.11-.08h.44l-.09-.16.09.05v.13h-.07v.13h.25l.09-.08.12.07h.06l.06.05v.07l.06.05.18.09.09.08h.28l.15-.06h.14l.08.11.1-.08.32-.22-.09-.08zm5.17 2.9h-.08l-.31-.27h-.7l-.17.1.12.18.21.12.06.07v.52l.1.08h.25l.26-.07.21-.15.14-.18.06-.11v-.12zm34.51-134.69v-.05l-.06-.08h-.07v.08l.13.08.05.05.07-.05zm.23.49h.25v-.05l-.07-.08h-.07l-.22.12V19l-.29.19-.07.12v.08h.06l.17-.13.21-.08v-.09h-.07v-.07zm-1.37-.69v.05h.14v-.14l-.06-.07v.06zm2.21-.65h-.12l-.07.1v.3l.17-.08.08-.11v-.17zm-.46.73v-.08h-.07l-.15.06-.19.06-.05.09h.35l.06.05v-.14zm15.4 6.7v-.09l-.05-.06h-.22l-.06-.06h-.05v.31l-.05.06h.41v-.14zm-.62.85l.16.08v-.33h-.28v.16h-.07v.37l-.13.06v.11H167V27h-.08l-.2.3-.08.2v.23l.05.21.13.19.16.11h.16l.06-.06.17-.27v-.16h.08l-.11-.09v-.17l.15-.3v-.17h.1v-.37h.06v-.05l-.17-.13-.05-.06h.23v-.05l-.05-.07v-.28h.06zM28.33 1.31h.05v-.06h.07-.1zM28.14 0h-.21v.08h.18zM28 1.75l-.11.08v.3-.14l.06.07v.1h.23l-.12-.32v-.15.25l.06.17v.05l.7-.16v-.05l-.37-.31h-.27l-.18.1zm.3 3.31v.18l.05.09h.07v-.47h-.05l.05.08v.19h-.06v-.21zm.3-2.43h-.13v.07h.06l.06-.06zm-1.18-.77h-.11l-.09.06v.56h.36-.06v-.2h.06l-.09-.06-.06-.14-.11-.08-.06-.07.23.07v-.07zm-.18-.24v-.1h-.05zm.08.09h.12zm.57.57l.12.07h.12-.08v-.17h-.2v.06zm-.06-.72v.08h.1v-.1h-.15.07zm1.41.24l-.07-.18h-.06v.12l.07.12v.11l.06.09v-.11h-.05zm-.2.39l.06.07h.07v-.04H29zm.16 1.21h-.3l-.06.1-.44.51v.23l.06.17h.19l.05.06v.12l-.12.28v.07l.05.11v.2l.05.11h.05l.09-.06h.1v.71h.14v.09l.09-.1v-.46l-.26-.25v-.08l-.05-.08-.07-.08h-.05v.24l.28.16h-.06v-.32l.06-.27V4.4l-.08-.05-.08-.07h-.22v-.07h.29v-.15.11-.07l.09-.19h.07l.06.07v.07h.12v-.14l-.2-.23v-.22zm-.86-.26h.07v-.28l-.07.05h-.05v-.57l-.1.07v.11L28 2.6v.24l.05.05h.14l-.05.08zm1.06-1.32h-.1l.08.08v-.07.05zm-.24.89h.16l-.14-.14-.05-.09v.18zM29 2.35V2.3h-.05l-.05.05v.22h.1v-.08zM26.91 9v-.05h.06v-.06h-.18v.49h.06l.06-.08v-.07.03-.2zm-5.15 3.14v.05l.07.19v-.17l-.06-.07V12v.1zm6.87-3.37h-.06V9h.08l.15-.1h.18l-.07-.07-.06-.05-.06-.06V8.2h-.14l-.08.07v.05l-.11.38v.15-.1h.15v.05zm-.25-1.25h.11l.06.13h.13V7l-.08.07v.17zm-.93 2.06h-.05v.17h.11v-.13zM221.8 59.32l-.07.31v.06l.06-.2v-.25zm-.37 1.32h.14l.05-.1v-.31.33zm-91.32 62.94v.15l-.2.2-.13.16-.25.6v-.06h-.17v.2l-.08.06v.1l-.08.15-.11.15-.05.11v.06l-.08.19v.3l-.14.36-.07.6v.09l.06-.08.07-.19.09-.46.27-.78.43-.89.59-.91.06-.06zm-1.22 6.3l.06.23.05.12.05.09v.05l.07.31v.11l.13.21v.12l.06.42.05.14.09.14v.09l.13 1.12v.1-.13l-.05-.3-.08-.16v-.47l-.08-.22-.05-.32v-.26l-.56-1.69-.18-1-.07-1.4v-.11l-.07.08v1.09l.06.51v.44l.15.22v.05h-.05v.1zm11.74-15h.08v.14h-.11v.09l-.19.17h-.07v.08l-.05.08-.35.24-.19.18-.08.1-.06.13.08-.11.67-.52.21-.1.43-.36-.3-.1zm-6.78 5.12l-.18.11-.26.26h.17l.12-.13h.11l.1-.08zm-2.75 2h-.12v.12h-.07l-.27.5h.09v.07l-.13.16-.17.27-.06.17v.09-.1l.06-.11.17-.21.19-.31.41-.49V122zm2.12-1.52h-.09v.16l-.06.1h-.41l-.09.11-.22.11v.05l-.21.12v.1l-.18.12h-.14l-.15.06h-.1l-.08.05v.25l-.06.06-.05.09v.2-.1l.06-.08.13-.13.25-.2.12-.14.45-.25.26-.24.15-.11h.16l.34-.19v-.3zm77.34-34.22l-.06.06v.29l.05-.23v-.08zm23.68-50.8v-.13.18h-.06v.15h.18zm.86-2.05v-.12l-.1-.39v-.3l-.08.09v.63l.07.06-.11.09v.07-.06h.09v-.1l.06-.1h.14v-.06zm-.52 0v-.11h-.07v.29h.06v.26-.21zm-22.7-9.62l.09-.05.13-.14.08-.07h-.05v.05l-.09.06v.09zm-10.12 9h.05l.07.05.07.06h.05l.14-.36v-.14h-.43v.27zm22.45 8.72v.19l.43-.37.16-.24-.06-.28h-.36v.43zM228 40h-.07l-.26.07-.06.07-.09.06h-.05l-.58.25h.11l.56-.27.21-.18h.23zm-16.12-14.8V25h-.06l-.05.05-.06.08v.06l.05.17.11-.14zM233 36.3h-.22v.11h-.08l-.07.06-.13.16-.13.11h-.13l-.19-.16h-.06v.28l-.19-.12h-.06V37l-.1.09h-.05v-.06h-.06l.07.09v.07l-.1.08-.18.23-.05.1v.12l-.05.06-.08.06h-.35l-.07.09h-.18v-.08l.06-.08.07-.08.1-.06v-.17h.08l.1-.13v.06-.27h.08l.22-.33.13-.14.09.08.05-.06v-.37h-.18l-.19.17v.06l-.07.15v.06l-.17.1-.08.06v.15l-.21.17-.2.31-.08.06-.5.24-.65.13-.7.17h-.06v-.12h-.21v.18l-.06.08-.18.1h-.69l.1.09v-.09h.07l.06.07v.08h-.21v.06h-.06v-.11h-.19v.16l.09.08h-.41l-.22.12-.1.2.12.25h-.06l-.08-.06-.11-.09-.1-.06v.18h.15v.13-.06h-.12v.06l.05.14v.06h-.25l-.11.06v.12h-.2l-.1.09-.1.38v.1l-.09.17v.12l.15.1v.11h.07l.2-.09v-.06h.13v-.07l-.07-.06h-.07l.1-.1h.44v.05h-.08l-.5.34-.07.06h.15l.54-.32.75-.18h-.12l-.3.11h-.1v-.08l.1-.06.24-.06.41-.25.41-.14h.08l.13-.13.26-.13v-.07h.42v-.06h.17l.17-.09v-.06l.26-.08h.09l.08-.09h.29l.05-.06v-.07l-.06-.08h.15l.44-.18h.1v.06h-.07l-.19.1.38-.28.25-.12.13-.13v-.16h.12v.15h.07l.13-.12.13-.06.2-.15.32-.36.24-.13.26-.23.26-.13.43-.42h.06v-.06H233zm-3.19 2.55l-.19.15-.21.11-.16.1h-.11l-.09.14v.06l-.24.17-.39.18-.12.09-.3.15h-.11v.05h.14l.38-.18.4-.25.12-.11h.07l.23-.22.35-.22h.06v-.06l.13-.1zm-17.53-15.54v.11l.09-.12h.07l.07-.09.06-.1v-.16h-.05v.09-.07l-.05.18v.05h-.08zm20 12.19h.1l.09-.12h.06l-.31.13h-.06v.07zm-7.34 11.85l.06.09v.24h-.06l-.05-.06h-.11l.12.12h.14l.13-.1.09-.16v-.16h-.21zm.72-1.75v.33l-.27.75v.26l.07-.15.09-.45.14-.21v-.58zm-2 26.2l-.2.22-.11.07h-.11v.29l.41-.44.37-.23.06-.1h.06l-.11.1zm1.4-2.7l-.06-.22-.15-.25v-.23l-.07-.13-.08-.11-.1-.06v.09l.12.17v.1l.2.37.07.21v.45l.05.1v1.12l-.1.12-.28.18-.24.21v.14-.06h.07l.14-.12h.09l.15-.11h.14l.07-.08v-.53l-.11-.92zm-1.24-1.5l-.07-.08h-.22l.16.11.06.08v.1l.05.08h.15v-.19zm-1.43 5.75v.11l-.16.16-.35.58-.34 1v.17l.06.1v-.16l.35-1L222 74l.07-.08.09-.07.17-.29.1-.1.06-.16h-.06zm.55-.93v.11l-.1.18v.07l.05-.12.27-.3h.05-.11zM216.1 79v.45-.49zm5.18-3.87h-.48.3l.19.09h.06zm-5.44 5.48h-.18v.09h.15v-.4l-.07.14zm2-4l-.15.14h-.16l-.49.5-.13.19-.05.2.06-.1.37-.5h.06l.14-.07.32-.27.09-.12zm2.58-1.61l-.7.26-.67.27-.11.08-.06.1 1.14-.54h.11l.55-.07zm-52.12 33.1h-.13.19zm1.5-.23h-.65 1-.11zm.57 0h.33-.37zm-1.78 0h-.06.05zm-2.58.77v.06-.05zm1.72-.75l-.05.1h-.36.22l.05.05.06-.17v.13zM172 26.27l.11-.09h-.06v-.27h-.24v.11l.17.25zM185.66 40v.47h.06v-.24l-.05-.31zm-13.43-15.8l.21.26v-.18l-.07-.07zm-11.84-8.09v.46l.06.06h.36l.07.09.17-.05v-.16H161l-.1.08v-.09l.06-.11.07-.08h.06v.47l-.11.08-.05.07v.11l.25.31h.06v-.07l.07-.15.09-.29v-.06l.14-.08v-.15h.19v-.33h.2l.14-.19h.1v-.13h.08l.08-.06.22-.21-.07-.06h-.26v-.07h.25l.2-.09h.5l.13-.09h.09-.05l-.09-.1-.07-.05-.15-.06h-.08l-.9.1-.33.09-.27.14h-.05v.07l-.1.1-.29.18-.12.1-.33.51-.06.07-.16.12zm11.22 10.37h-.07l-.05.08v.16h.09l.06-.07v-.11l.05-.08h-.08zm-13.83-13.67l.13-.06-.14.09v.13h.05l.08.08h.18l.63-.36.2-.05h-.34v-.07l.14-.09 1-.49.18-.14.15-.14v-.16l.07-.11.27-.19.09-.1.05-.06v-.06.06h-.17l.08-.07-.27.17-.08.08h-.06l-.12.06-.27.25v-.08l-.11.13-.17.14-.17.1H159l-.07.08-.09.07h-.17l-.13.1-.51.33-.33.28v.06zm21.93 7.52v-.06h.05l.1.05v.05h.2l.08-.09h.09l.17.07h.71l.06-.06.06-.17.05-.13V20l-.09-.05H181l-.06-.13v-.1l-.08-.07-.19-.06h-.36v.08h.16v.1l-.09.05-.09.06h-.06v.11h-.13l-.09-.07h-.09l-.05.12v.07zm-2.44 1.21h-.11l-.08.07.06.05.21.13.15.13h.37v-.05l.05-.16v-.06h-.19v-.06l-.07-.06v.07h-.1zm-3.61.63v-.05h-.07l-.08-.05h-.05v.09l.06.08h.2zm-.4.38v.65l.09.08h.27l.12-.1V23l-.06-.14v-.31h-.28v.23zm-5-3.57v.12h.05v-.05h.09v-.13h-.06v-.05l.05-.1-.06-.1h-.17v.18zm9.45 1.56h-.11l-.05.06h.08v.05h.34v-.06h-.1v-.07zm.64-1.89h-.1v.17l.09.08.08.12.1.06.1-.08-.08-.14-.1-.11zm-.45-.65v.12l.08.19v.06l.07.05h.08l.06.05v.07h.23v-.05l-.2-.26V18l.08-.21v-.09h-.23l-.08-.05-.15.18-.05.07v.11h.05zm69.1-6.64l-.09-.11v-.05l-.12-.11h-.12l.13.2v.11l-.07.08v-.11l-.07-.12-.08-.08h-.07v.05h-.05.05-.05l-.09-.07v.22l-.13-.25h-.15l-.07-.06v-.07l.16.07h.11v-.12h-.07v-.13l.07.05h.05l.07-.06v-.24h-.06l-.12-.14h-.14l-.05-.07v-.09l-.08-.08-.08-.06h-.12v-.07h-.08V10h-.23v.05V10l-.11.12h-.16l-.17-.1-.21-.17-.22-.1v-.67l-.31-.28-.1-.18.08-.11.07-.1v-.26L244.1 8h-.2l-.11.05h-.63L243 8h-.23l-.05-.06-.09-.27v-.48l-.09-.08v-.16l.05-.09v-.09h-.05l-.54-.86-.22-.68-.21-.68-.21-.67-.22-.68-.21-.68-.21-.67-.21-.68-.1-.17h-.26L240 .76l-.21-.08V.62l-.29-.18-.21-.06-.29-.14h-.24l-.14-.1h-.49l-.17.1-.08.19V.41l-.09.05h-.34l-.07.05-.15.14-.06.08-.05.1V.9h-.28l-.15.09-.42.37h-.06l-.59-.15-.09-.08-.06-.1-.05-.17V.55l-.05-.15-.07-.05h-.67V.4l-.05.08-.58 1.36-.21.55-.22.55-.21.55-.21.55-.22.56-.21.55-.05.1v.51l.07.52.05.35v.14l-.23.32h-.05l-.07.07v.24h-.08v.62h.09l.08.09.06.1v.2l-.12.12v.41l.07.06h.17v.69l-.08.15-.24.3-.06.09v.39l-.06.08h-.09l-.09.12-.2.16-.05.07-.26.51-.08.38v.08l.06.1.08.06.18.05h.08l.06.08v.08l-.07.06h-.18l-.17-.09h-.17l-.06.06v.28l.08.22v.16l-.06.07v.19l-.06.08h-.07l-.29-.4-.08-.05h-.19v.12l-.05.09h-.08v.09l-.07.21-.06.05h-.2l-.38-.11h-.16v.07l-.08.17v.06l-.16.09v.05h.2v.11l-.06.21v.22l-.1.27v.28l-.39.1-.39.11-.38.1-.39.1-.39.11-.39.1-.39.1-.38.11-.39.1-.78.2-.39.1-.77.2-.39.1-.36.09h-.2l-.19.05h-.06l-.33.09h-.15l-.1.07h-.15l-.39.09-.39.1-.39.1-.78.19-.39.1-.39.09-.39.1-.39.09-.39.1-.39.09-.39.1-.39.09h-.82l-.12.13-.21.13-.06.05-.14.16-.06.05-.2.1-.48.45-.23.3-.36.5-.39.52-.38.52-.16.33-.11.2.07.06.05.09v.18l-.22.21v.12l-.19.13v.06l-.42.54-.46.34-.59.63v.08l.05.11h.14l.08.05V25v-.08l.23-.18.05.06.15-.06.07.05v.31l-.1.07-.05.08v.07l.25-.05h.07l.09-.13h.13v.13h-.05l-.13.06v.28l-.05.09-.14.18v.08l-.12-.05v-.12l-.18.13v.16h.07l.07.05h.06l.07.09.07.13v.29l.05.12v.12-.14h.05l-.11.27v.12l.13.05-.06.09-.12.22-.07.05-.26.11h-.36l-.16.25-.07.07-.37.28-.13.14-.11.17-.11.37h-.17v.06l-.24.17-.39.17v.19-.08l-1.56.25-.17.08-.47.28h-.37l-.33-.19h-.12v-.06h-1.6l-.47.18h-.64l-1.21.43-.23.17-.42.16-.48.3-.27.1v.09l.12.46v.36l.18.07h.47l.13.11v.12l-.11.17v.13l.09.05.07.23.12.14v.5l-.07.08-.29.19-.14.12-.09.16v.32h-.08v.24h-.05l-.25.13-.06.13-.19.18-.19.12v.06l-.11.08-.15.29-.2.16-.06.09-.06.08-.26.15-.26.29-.1.08-.07.08h-.05l-.47.3-.16.17-.16.08-.15.18-.17.1-.18.16h-.09v-.08h.1-.1l-.07.06v.08l-.09.08v.13l-.1.12-.61.49-.61.53-.05.05-.06.06-.19.1-1 .54-.12.12-.15.05h-.07V40l-.15.06-.09.08-.27.1-1.23.84-1.15 1.33-.14.08-.13.1h-.24l-.07.09h-.8l-.53.24-.29.22-.17.08-.28.06h-.07v.06l-.16.15h-.27l-.19-.05-.33-.19h-.13l.07.1.19.13.11.08-.23-.11h-1.22l-.19.16-.18.11-.16-.1v-.06h-.25.21l.06-.05h.07v-.06h.1l.19-.08h.2l.08-.09h.13l.28-.06v-.13h-.25l-.06.05-.07-.08-.06-.05h-.07v.28h-.63l-.25-.22-.12-.08h-.26l-.27-.06-.12-.06-.22-.17-.11-.05h-.22l-.34-.06v-.17h.05v-.35l.13-.29.06-.08h.08v-.15l.05-.12.08-.06h.12v-.2h-.05.13l.05-.06.06-.25h.05v-.36l.05-.59v-.2l.15-.25.07-.11.06-.08.25-.14h.13l.06-.06.06-.08.05-.09v-.63l-.05-.07v-.44l.17-.1h.05v-.07h-.11l-.08-.11v-.1l.09-.07h.1l.07-.06L187 37l.09-.08h.32v.38l.1.08-.1.08h.15l.12-.08.09-.12.07-.17v-.94l-.07-.1v-.56l.06-.18v-.44l-.15-.21h-.05l-.35-.9-.23-.91-.2-.39-.44-1.46-.19-.28v-.27l-.26-.28-.15-.11-.17-.08-.48-.16h-.18l-.2.1-.12.18h-.2l-.08.09h-.05l-.29.05-.1.18v.05l-.35.11h.29l-.11.17-.06.11v.23l-.16.29v.24l-.05.11h-.5l-.21.44-.12.17-.15.1h-.17l-.18-.08h-.62l-.1-.09-.09-.13-.05-.15v-.62h-.08l.09-.44.08-.18.15-.1h.2l.06-.06h.19v-.19l.07-.06h.26v-.96l.06-.2.14-.12h.13v.08-.06l.15-.26v-.07h.11v-.43l.08-1.18V27l.05-.21v-.22l-.07-.21-.06-.25v-.19l-.06-.08v-.05h-.07l-.08-.07-.13-.06h-.05v-.76l.07-.07h.13l.11.09h.34l-.06-.09-.16-.05v-.12h.07v-.14l-.05-.14h-.15l-.13-.15-.1-.14v-.11l.07-.08-.18-.14-.19-.12-.19-.08h-.68l-.12-.12h-.54l-.09-.06L180 23l-.19-.06-.61.07h-.08l-.07-.07-.06-.09v-.17l-.06-.08-.14-.13-.14-.09-.19-.07h-.39l-.37.08h-.16l-.34-.21-.55-.18-.15-.1h-.14v.17h-.08l-.53.05h-.15.06l.16.12h-.05l-.12.25-.22.2-.09.12-.07.17v.2l.05.19.09.16.09.11.14.12h.44L176 24l-.19.09h-.58l-.17.05-.59.41-.12.14-.07.16v.2l.18.66v.49l-.07.43-.13.41-.2.47h-.09v-.37l.08-.1v-.72H174v.34l-.08.1h.08l-.08.08v.51h-.08v-.05l-.09-.14v-.27l.11-.36v-.2h-.1v-.23l.06-.12.07-.05v-.14l-.09-.18v-.15l.05-.06h.07v-.31h-.09l-.1.11h-.11l-.16.4v.08l-.15.18v.15l-.15.44v.07h-.13l-.14-.09h-.21v.1l-.11.23v.05h-.79v.87h-.22l-.06.06-.14.06-.1.11v.14l.07.15.08.12v1.42l.07.16v.24l-.07.22-.15.34-.12.43-.11.21-.27.3-.1.17V32l.05.08.15.15.06.11v.27l.13.45v.19l-.08.2-.19.3-.05.18v.33l.11.17.06.16.79 1.43.08.07v-.07l.27-.12v.1l-.06.08-.07.07h-.12v.08l.28.53.06.21.06.12.07.12.06.06.07.14.18 1.35-.06 1.3-.07.42-.22.79-.39.73-.33 1.07-.18.38-.24.31-.23.16v.13l-.16.11-.73.52-.68.33-.37.08h-.56V45l-.13.07-.16-.09-.13-.15-.27-.3-.09-.16-.14-.38-.16-.26-.1-.47v-.1l-.05-.1h-.16v-.12l-.17-.24-.08-.18-.07-.21-.06-.4v-.94l-.07-.41v-.17l-.05-.09v-.4l.06-.18v-.46l-.06-.12-.2-.2v-.5l-.05-.12-.08-.11h-.12V38l.07-.2v-.1l-.09-.06v-.3l-.05-.12v-.34l.08-.42v-.17l.21-.52v-.22l-.06-.16v-.24l.2-.46.07-.26v-.49l-.1-.14v-.66l.06-.12v-.3l.16-.49v-.1h.05l.22-.15.07-.08.06-.1v-.31l-.19-.2v-.49l.05-.11v-.79l.06-.24.08-.21.16-.26v-.11l.05-.09v-.16l.09-.36v-.11l-.09-.05h-.09l-.09-.06-.14-.17-.55-.08-.09.07-.07.07L166 28l-.13.18-.06.05v-.1h-.1l-.11.07-.09.1-.06.09-.12.23-.1.27v.17l-.06.09v.06l-.28.15-.16.15-.08.1v.22l-.08.07h-.28l-.09-.07-.05-.06v-.75l.08-.09v-.31l.2-.27v-.15l-.06-.15.1-.15.17-.1.35-.11h.09l.06-.05v-.41l.09-.17-.06-.23v-.33l.17-.11.71-1.32v-.24l.06-.09v-.35l.11-.22.09-.1.11-.33.07-.06.17-.08.06-.06v-.75h.06v-.07l.05-.27v-.08h.07v.2l-.07.13v.83-.06l.14-.07h.17v-.14l.08-.17v-.19l-.05-.11.05-.06h.15l.16.08h.1l.08-.06v-.08l.05-.06.06-.05h.21v.07l-.08.37v.11h-.16V23h-.06v.21l-.11.13v.06l.06.09.05.05.13.08h.08v-.18h.06l.06-.19v-.08l.12-.06v-.12h.1l.15-.09v-.06h.21l.05-.05.06-.31.11-.24.16-.17.67-.19h.15l.26.05.25.1v-.2l.07-.05.41-.11.51-.06h.06v-.09l.06-.18.22-.34.07-.06h.32l.11-.08h.1l.07-.07h.09l.16.1h.45l.22.1h.4l.07.05.16.14h.06l.1.13h.31l.05.09.09.09.18.07h.19l.09-.11h-.07v-.21l.05-.08v-.33h.05v-.28l.07-.08h.11l.14.05.07-.05H177l.07.07v.17h.06v-.06l.12.09v-.11h.22l.11.06h.56l.25-.05h.81l.21-.06h.06v-.39h-.45l-.07-.06-.17-.15v-.27h-.26l-.05-.08h-.3v.05l-.1-.07-.09-.11v-.06h.09l.11-.13h.09l-.05-.09-.12-.12v-.4l-.17-.24-.06-.14-.18-.16h-.35l-.06.06-.12.22-.1.11-.15.11-.15.05-.14-.05v-.11l-.11-.13-.17-.07-.12.05-.09.1-.13.09-.14.05h-.19l-.18-.08h-.17l-.07-.07h-.05l-.12.07h-.2v-.14l.09-.13v-.1l-.08-.17v-1.09l.07-.05.05-.06v-.09h-.09l-.16.07h-.41l-.3.06-.35.16-.66.43-.18.06h-1.46l-.1.07-.63.21h-.23l-.49.42-.42.25-.14.14h-.2l-.16.16v.07l-.16.28-.11.13-.12.05v.01h-.27l-.09-.09-.09-.05h-.08l-.1.15-.07.05h-.2l-.05-.07h-.09l-.14-.15H167V19h-.15l-.06.11h-.28l-.16.1h-.59l-.07-.1-.05-.26-.21-.07h-.05v-.08h-.07l-.09-.07-.08-.08v-.09h-.05l-.2-.16-.06-.07-.09-.22-.07-.09h-.07l-.05-.11h-.14l-.05-.09h-.12l-.43-.06h-.85l-.3.11-.06.08v.11l-.08.12-.09.1h-.09l.07-.12.06-.15.06-.13.21-.13.1-.12v-.1h-.17l-.17.14-.16.18-.11.06-.1.13h-.2.07l-.19.31-.12.15h-.05v-.06l-.1-.15v-.95l-.07-.09-.08-.08h-.07v-.32l-.09-.06h-.31l-.1-.07v-.45h-.09l-.09.06-.6.58-.11.07-.06.16-.12.23-.06.07h-.12l-.15.08h-.28l-.08.09-.26.32-.29.25-.34.19-1.54.33-.15.09-.66.68-.16.11-.67.27-.2.14h-.37l-.09.07-.09.07h-.08l-.18-.08h-.29l-.38-.17-.31-.24h-.09l.09.08h-.09.14l-.07.11-.09.08-.46.22h-.11l-.11-.05v-.1l.06-.11.23-.31v-.47h.07l.06-.06.08-.25.06-.07v-.05l.09-.06h-.06v-.1h-.14v-.09h-.12v.1h-.24l-.17.09v.1h-.15l-.05.12h-.08l-.07.08h-.14v-.11h-.11l-.18.18-.29.21-.18.18h-.06l-.29.14-.3.07-.86.37-.57.13h-.09l-.26-.1h-.13l-.1-.07-.09-.09v-.05l.07-.17.17-.17.34-.24.22-.21.15-.06.22-.17.19-.24.13-.06.21-.18v-.08h.06v-.13l.26-.16 1.79-2.09.24-.12.57-.6 1-.58.52-.21h.26l.15-.11.76-.29 1.27-.75.06-.06.12-.14.1-.06v-.1h.23-.82l-.37.18h-.07l-.24-.1h-.12l-.23-.3-.05-.05-.19-.06h-.22l-1.12.23h-.07l-.11.06h-.23l-.34.13h-.19l-.14-.08v-.52l-.13-.07-.19.06-.31.2-.07.05-.16.09-.49.37-.12.14-.14.1-.34.07-.24.13h-.23l-.34.05v-.06h-.4l-.1-.06.07-.14-.14-.15-.07-.06h-.42l-.42-.14h-.14l-.07-.07-.06-.13v-.13l-.06-.11h-.44l-.39.08h-.09l-.07.12v.37l-.09.06h-.22l-.15-.25-.14-.15v-.51l-.07-.11-.14-.06h-.17l-.33.07H144l-.06-.07v-.12h.07l.17-.05h.07v-.08l-.07-.09h-.3l-.63-.12-.28-.15h-1.17l-.49.12-.11.06h-.13v.21l-.12.09h-.29l-.12.07h-.07l-.53.11h-.09l-.12-.12-.13-.38-.15-.09h-1.52v-.1h-.1l-.64.1h-.16l-.29-.1-.38-.26-.05-.05V9.12l-.19-.57-.36-.55v-.82l-.05-.08h-.07l-.27-.13h-.68l-.22-.07v1.9h-29.69L104 9H93.05l-.84-.05h-.84l-.84-.05h-.84l-.84-.06-.85-.55-.84-.06-.84-.06-.84-.06-.84-.06-.86-.05-.84-.06-.84-.07-.84-.07-.84-.07-.84-.07-.84-.07-.84-.09h-.84l-.84-.08-.84-.08-.84-.08-.84-.08-.83-.18-.87-.06-.84-.09-.84-.09-.84-.09-.83-.1-.84-.09-.81-.1-.84-.09-.83-.1-.84-.1-.84-.09-.83-.1-.77-.1H62l-.84-.11-.83-.1-.84-.12-.83-.11-.84-.11L57 5.1l-.87-.1-.83-.12-.79-.11-.83-.12-.88-.15-.8-.13-.83-.13-.38-.06-.45-.07-.88-.11-.83-.13-.83-.14-.8-.15-.83-.14-.83-.14-.84-.14-.86-.16-.83-.15-.81-.12-.83-.15-.83-.15-.83-.15-.83-.15-.84-.13-.84-.18-.83-.16-.83-.16-.83-.16-.82-.16-.82-.18L32 .85l-.78-.17-.83-.17-.82-.17-.38-.07v.18l-.12-.06h-.13v.13h.18v.4l.14.16v.27l.05-.06.06.05.05.1v.07h-.06v.11h.05l.15-.16.07-.07h.15l.09.06.06.08v.09l-.11.14v.08l.08.06v.45l-.05.09h-.14l-.13-.15h-.16l.13.13v.5h-.1v-.05l-.03.13h-.11v.13L29.23 3v-.15l-.06-.09h-.28.05L29 3v.24h.06l.08-.08h.06-.06v.06l.05.15h.12l.07.1.1.09.11.13v.16l-.08.09V4v-.05h-.36l-.07.09v.39l.06.1.27.28.05.13h.07v-.27h-.06l.02.33v-.43h.09v-.14l.15.1V5l.05.18.1.15.22.26h.13v.14h-.31l-.05.07v.19l-.07.07-.13.07h-.05v.61l-.07.08.16.11v.33-.2h-.11v.44l-.6 1v.06l.08.16v.24L29 9h-.34v.11h-.2l-.11-.15-.12-.1v.33l-.09.18-.14.16-.4.36-.15.09h-.16V10v-.12l-.09-.06v-.17l-.2-.09v.08h-.2v-.1l-.17.08-.05.06v.19l-.06.05v.19h-.06v-.46l-.07.11-.09.07h-.18.14l.23-.26v-.08l-.11.12-.38.08h-.08l.08-.06h.21v-.12h-.23l.02-.05h.31l.12-.06.08-.09.2-.37h.18l.11-.06.06-.09.11-.24.07-.06v.46l-.03.05h-.08v.37l.07.19.13-.07v-.11l-.06-.17v-.28l.08-.08V8.8h.26l.39-.32v.13l-.05.08-.08.06v.08l-.05.06h-.06v.05l.08.09.27.18h.06l.07-.09v-.05l-.06-.2h.18V8.8l-.05-.12v-.11l.08-.12.06-.12v-.09l.07-.1v-.09L28.43 8v-.38h-.55l.12.08v-.45l.08.32.08.13h.11v-.92l.17.25h.07l.04-.03.05-.07v-.12h.06l.18.08V6.7l.07-.07v-.64l-.08-.1-.2-.17.05.14v.59h-.15l-.48.42-.05.08-.22.05v.07h-.46l-.27.1h-.06l-.36.32-.23.31h-.05l-.16.2-.05.06v.07l.06.14h.15l.31-.07.3-.11h.27l-.15.09-.14.05-.7.12h-.22l-.1-.11v-.08l.14-.16.09-.18.09-.07h.09l.07-.06.19-.27.06-.07.35-.3h.05v-.12l.09-.06.06-.1.08-.11.1-.05v-.39l.06-.08v.2h.08v-.19l.06-.06v.34l-.14.32-.06.09h.15V6.7l.05-.09.11-.17.31-.04.21-.16v-.09h.12V6l-.14-.28v-.2l-.07-.05-.11-.3v-.35h.1l-.05-.14h-.09L28 4.6h-.18v.19l.12.19v.08l-.09.14h-.13.09v-.3h-.05v-.2h-.46v.28h-.07l-.05-.09.06-.11-.06-.15L27 4.4l-.11-.08-.14-.05h.12v-.06h-.15l-.31.16h-.13l-.62-.17-.07-.05h.08-.35L25.26 4h-.39l-.09-.11h-.4l-.56-.16-.49-.25h-.07l-.09-.18-.06-.3-.27-.19h-.32l-.08-.1-.26-.13-.18-.26-.55-.42-.17-.09-.2-.07v.15l.08.13.08.09v.05l-.07.06v.3l-.17.29-.05.07h-.07l.07.28v.96l.08.25h.09l.18.3v.35h.05v.48l.07.32v.09l-.05.43v.21l-.07.79h.08v.89l-.05.42V9l-.1.36v.17l.15-.12v-.18l.05-.07h.65l.07.06.05.08v.29h.66l.08.07h-.31l-.31.07h-.28L22 10v.28h-.16v-.18l-.08-.1v-.18h-.09v.92h.34-.05l.19.08h.16l.08.11.07.12.06.1h.12l-.06.05h-.14v-.16h-.06.02-.14l-.07.11v.16l.05.15h-.06l-.09-.09h-.06v.09l.07.15V12H22v.24l.06.06h.08l.05.07v.1l-.06-.08-.13.07v-.06.12l-.07.1-.1.06h-.09l-.05-.08v-.55l.12-.39v-.3l.07-.09h-.11l-.06.19-.13.88-.06.21-.07.16v.12l-.05.09-.06.09-.05.06h.15v-.1l.07-.05h.14l.05.06.15.25.09.05h.18l.08-.05h.14l.12.06h.19v.2l.21.11h.61l.09.07v.29l.25.29.07.06h.48-.07l-.14.11h-.28l-.4-.16-.06-.06-.14-.32v-.05h-.4v.07h-.54l-.05-.13h-.36l.06.11h-.05v.13-.15L22 14v-.09h-.14l-.06-.05-.05-.09-.09-.11-.09-.08h-.18v.12l.09.45v.57l-.05.1v.07l-.11.07.06.12v.25l-.08.29-.05.1-.13.17.08.07.05.13v.32-.1h.05l.05.05h.09l-.05.05h-.1v.05l-.1.06v.12l-.08.16v.07l.08.1h.12l-.05.11v.17h.09-.08l-.06-.06h-.06v-.26l-.06.17-.07.1-.05.22v.11l.13.11-.07.05-.07.08h-.07l.05-.16v.2l-.05.06h-.08.11v.32l-.06.19V19l-.05.12-.06.12-.1.1-.06.08v.12l-.08.23-.05.16-.06.11v.24l-.07.1-.07.08v.08l-.06.32v.2l-.08.23v.31h.09v.15h-.07l-.08-.07-.26.65v.22l.07.06H20v.15l-.13-.1h-.07l-.8.14v.1l-.14.3v.12l-.07.18-.06.34-.17.43-.06.17v.34h-.06v.3l-.09.21-.22.61-.12.21v.2l.06-.05.06-.12.06-.09H18l.09.06.08.08v.06h-.18v-.09H18v.07l-.05.06-.06.05-.11.07-.07.06v.07l-.08.24-.07.1v.06l-.41.66-.1.11.12-.13.17-.14.18-.11.15-.06-.07.11v.18l.1.22h-.14l-.08-.05v-.27h-.11l-.12.1L17 28l.05.07h-.07v.26-.36h-.13l-.05.05-.05.05v.12l-.06.22-.31.67-.08.23v.21l-.07.08-.07.06-.06.07-.2.28-.31.43-.09.05.06.06v.5h.07v.4h.06v.58l-.07.17v.06l-.14.18v.62l-.05.07h-.05v.42l.06.07v.76l.13.26.2.22v.35l-.13.48v.09l-.14.17-.15.12.12.08.18.19.12.22v.74l-.07.08v.51l-.05.16-.14.28-.1.27-.17.34-.12.17-.09.19-.08.06v.33l.09.23v.25l-.42.73-.24.24-.07.11h.08l.09-.08.26-.28.17.06h.05l-.1.1h-.3l-.07.06-.15.19h-.06v.21l-.06.1-.22.56V42l-.16.13-.1.11-.09.15v.07h-.06l-.17.19v.07l-.07.13-.07.13v.17l-.06.08v.27l.05.35V44l-.11.24v.12l.05.08h.06l.44.61.2.19.06.09.11.27v.21l.1.05.11.15.41 1V48l-.1.37v.38h-.08l-.07.1-.1.23-.12.36-.1.17v.95l.06.07.08.4v.46l-.05.14-.06.05h-.06l-.08.08v.17l.08.2.23.39.18.22v.15l.07.11.14.14.1.16.51 1.11.12.15.46.38.1.16v.34l.08.13-.06.26v.09-.11l.21.22.06.1v.2l.09.17.13.37.13.24.05.12v.14l-.06-.13-.08-.12.18-.12v-.25l-.17-.27-.07-.09.06.34v.15l-.25.5-.16.19-.05.07h.19l.06-.06h.07v-.08.17l.1.13.25.2v.34l.09.07.05.06.07.17h.1v-.34l.2.25.09.16.13.14.05.07.06.07h.27v-.25h.07v.09H18v-.18l-.11-.13v-.21h.18v-.06l-.1-.1v-.11l.06-.3v-.15h.28l.1-.06.1-.13.41.34.05.11v.05h.06l.13.06.2.14h.19l.18-.11.06-.1h.28l.06.07v.07l-.11.16.18.09.21.06v.06h.66v-.05h.05l.15.05h.32l.12-.09.17-.19v.12l-.06.09-.08.07h-.24v.08h.36v-.07l.07-.06h.34l.24.3h.07l.06.11v.1h-.07l-.07-.09-.06-.1v-.08h-.08l-.09-.06-.12-.15v-.09h-.25v.06h-.11l.12.06h-.18l-.17-.1-.5-.16-.2-.11-.51-.17h-.1l-.22.09h-.31l-.13-.16h-.26l-.25.16H19l-.06.11-.07.08h-.15l.08.21.15.11.13.14v.26l-.1.19v.11l.06.07h.09l.21.13.07.07h-.19.06l-.05.08h.11l.05.05v.22l.05.66v.21h.1v.14l.06.05h-.33v-.26h-.06v-.06L19 61v-.2h-.06v-.1h-.2l-.05-.12h-.07v-.51l.1-.33v-.05h.07-.07v-.46h-.44l-.12.2v.78l-.11.14v.43h.11l.05.1v.8l-.07.23-.08.2-.05.2.06.22.11.13v.19L18 63l.23.27.18.37.11.16.29.27h.46l.06.08.16-.06h.13l.11.09.09.17.15.53.08.17-.16.31v.12h-.16l-.08.25-.05.11-.08.09-.07.07h-.1.06-.22l-.07.08-.12.12h.06l.05.05h.05v.07h-.09v.14l.05.28v1.08h.05l.12.06.36.37.1.16.15.42v.32l.06.05h.1l.08.06.06.07v.64l.05.09.13.16.07.18v.08l.15.11v.38l.1.36h.09l.23.19.15.06.1.16.08.28.12.21.1.19.43.58.11.11.29.11.1.07v.38l.06.14v.08h-.15l.06-.08-.19.32-.05.19v.19l.09.12.24.16.1.11h.4l.06.1h.07v.36l-.06.21-.07.21-.19.31v.12l.11.14v.28L23 77v.56l-.06.09-.05.07-.05.08-.07.16-.07.04v.07l.05.06.11.06.12.06h.11l.14.16.09.21.07.23H24l.67.08.22.06.17.11h.24l.24.14.42.32h.36v.06l.09.08.11.07h.67l.09.11.26.18.15.07.46.58h.21V81h.06v.43l.16.22.11.08h.14-.06.14l.34.3.43.21.21.06.17.11.07.09h1.14l.12.11.12.15.13.3.06.27.06.21v.43l.24.23v.08l.07.14h.15v.12h.11v-.09l.06-.16h.19l.09.1h.37l.51.72.14.15.49.36.19.21.15.28.08.07.18.15.07.07.22.32.37.36.52 1 .16.55v1.12l-.06.1H36v.17l.09.19v.2l-.07.23v.24-.17h.19l.08.06.09.06.05.06v.35h-.06v-.31h-.05V91h-.15v.06h.13l.09.09v.14l.06.17v.43H47.9l-.06.14v.09l-.06.08-.12.07-.09.13v.24l-.09.21h-.07l.16.08 1.8.94 1.79.93 1.81.93 1.81.92 1.81.91 1.83.91 1.82.9L62 101l.23.12.23.11.23.12.23.11.23.12.23.12.23.11.24.11.12.07.28.06h13.06v-2.47h8.12l.06.06h.3l.17.07.14.17.12.2.08.19.1.38v.1l.18.25v2l.15.1.05.07h.1l.2.07.15.11h.28l.2.15v.21h.17l.08.07.34.45v.17l.34.25h.08l.11.14.09.08H89l.07.06v.38l.12.07.15.2.37.32.17.24h.06l.14.05.26.14v.15l.06.07.21.28h.17l.1.06.09.08.06.08v.18h.15v.06l.14.17v.32l.08.05v.56h.06v.17l.09.06.06.14v.15l.06.11h.08l.09.2.06.09v.45l-.07.19v.24l.08.31v.13l.06.07v.06l.08.11.06.26.09.1.08.07.06.09v.23l.08.16v.27l.07.08.21.17.07.06.38.26v.08h.34l.07.1.11.09.08.19.15.19.1.09.17.09.22.26.18.11.43.17.3.07h.39v.18l.22.2.14.08.42.12h.16l.24.26.2.12h.06l.13.13h.07l.06.1h.07v.12h.36l.26.08h.19l.12-.06.07-.15v-.19H101v-.14l.19-.1.14-.28.1.06.22-.16h.13v-.06l-.11-.08v-.07l.07-.21v-.16h.09v-.15 1.3-.2l.16-.4v-.24l.08-.15v-.08l.14-.24v-.06h.3l.18-.09h.09v.06h.14v-.06h.52l.12-.17v-.15h.06v-.1h.09l.06.07h.15v.1h.24l.22.12.17.08h.58l.08-.07h.07l.07.06h.51v.06l.78.12h.32V113v.09h.18l.08-.06h.09v.07h.16v.21l.08.12v.1l.06.14h.19v.28h.06l.08-.07.12-.07h.12l.07.07v.38h.11l.09.12.14.07.31.11h.15v.39h.06l.34.16.11.1.1.13.23.11.1.07.06.08.1.19v.19l.25.21h.12v.39l.09.22v.38l.06.05v.14h.07v.07h.1v.06l.11.53.06.13.18.23v.1h.17v.2l.06.11.1.06.2.09-.14.07v.45l.13.19.08.12v.29l.09.1.08.06h.14v.2h.08l.48.24.08.09v.19l.07.08.06.06v.23l.07.09h.24l-.06.08v.08l.08.1.08.08h.08V124l.06.06.06.06h.12l.07.06v.07l.06.07h.09v.13l.08.13h.17l.05.09h.06l.1-.05h.06l.06.11h.18l.1.09v.48h.08v1.18l-.08.09v.06h.14v.08h.06l.07.09.06.09v.31l-.07.23v.22l-.1.18.09.12.07.06h.08v.24l.2.16v.07l.16.19.07.09.08.09.08.09.07.24.06.26.21.58v.49l.12.05h.13l.06.07v.49l.11.08H121v.08l.08-.07.18.13h.26l.07.09.18.11v.15h.19l-.06.08h.08l.11.1h.07l.29-.12.14.07h.16l.14.06.1.12.06-.08h.14l.15.09h.14v.17h.19l.11.17.39.2h.83l.23-.06h.1v.13h.11l.15-.09h1.14v.08h.7l.09.07v.16l.06.07.14.06.23.23.09.06h.27v.09l.06.07h.1v-.06l.1-.05v-.33l.11-.09.09.06h.11l.06-.06v-.09h.64v-.4l-.05-.15h-.12v.33l-.12.06v-.17l.06-.13v-.1h.07v-.13h-.37l-.06-.07v-.42l-.08-.11v-.22.71-.29h-.17v-.2h-.15v-.31l-.17-.06h.13v-.24l-.12-.37-.06-.35-.12-.35v-.41l-.06-.06h-.21v-.52h.06l.22.2.06-.1-.07-.07-.2-.09v-.06l-.05-.08v-.39h.34V128l-.06-.13.05-.06v-.14h.15l.07-.05v-.29h.05V127h.05v-.2l-.32.11-.1.06h-1.19l-.07-.1h.47v-.08h-.17.1l-.06-.12-.18-.17H127l-.06-.11-.17-.17v-.13l.16.1.12.12.41.56v.13h.12v-.07l.08-.13v.08l.08-.07h.05v-.08h.06l.11-.11h.09v.32H128l-.18.1.09.07h.07l.11-.12.31-.13h.05v-.12l.19-.57.07-.08v-.17l.08-.24.14-.28v-.23l.06-.07v-.25l-.44-.17-.08-.07-.13-.16v-.3h-.38l-.09-.07-.08-.13h.92l.2-.09h.2l.07.06.06.08.06.09h-.1.13l.1-.08.37-.56.17-.33.08-.17.05-.06v-.41h-.05l-.08.1-.23.1v.3h-.06v-.06l-.05-.08h-.27v-.05l.09-.13.19-.2h-.07v-.06h.13v.06h.13l.18-.08.17-.11.08-.12v.3l.17.06h.06l.06-.11v-.28l-.07-.06.11-.18.07-.08h.05v.28l.07.1-.06.09v.09l-.05.2h.32l.16-.24.08-.09.17-.11.05-.07-.1-.21v-.29l-.08-.13-.14-.17-.1-.15.07-.07h.07l.1.07h.1v-.15l-.12-.09.09.13h.05v.09h.09v.35h.08l.09.07.52-.31h.07l.16-.11h.09l.35-.2v-.13l-.15-.12-.18-.06h-.15l-.05.05h-.15v-.09l.25-.13v-.1h-.1l-.14-.1h-.06l-.05-.06v-.24l-.14-.18v-.32h.31v.31h.2v.13l.18-.13v.21h-.16l-.07.07h.15l.16-.08.28-.18h-.23v-.48l.09.14.07.07v.28l.15.13h.08l.1-.06.12-.16.1-.06v.08l.11-.07h.24v.06l-.1.18v.06h.38l-.07.06h-.31v.09h.1l.23-.07.28-.14h.16l.53-.84h.1l.09.05v.17h-.16l-.68.38-.16.12-.11.15.15-.07.3-.21.28-.1.28-.24.49-.14.31-.17.56-.4h-.17l-.19.07-.65.41h-.06v-.26l.64-.26h.62l.21-.06.2-.11.54-.38.32-.24h.19l.25-.23.25-.31.13-.08.34-.29v-.71l-.06-.14h.22v.1l.13-.08.1-.09.3-.38v-.05h.07l.09-.07v-.07l.07.06h.07l.06-.11v-.23h.31l-.22-.09h-.11l-.15-.23h-.12v-.16l-.08-.06h.19v-.08l-.36-.1-.16-.09v-.15h.05l.06-.1v-.1l-.17-.07v-.2l.08-.06h-.15l-.08-.09h.28l.16.08.15.13.15.06.14-.11.07-.19v-.23l.08-.05.17-.08.11-.07v.11h.09v.63l-.06.2-.08.19-.05.08h-.07.3l.69-.24h.17l.08.07h.09l.07-.06v.17l-.06.05h-.32l-.14.16h-.17l-.12.07-.37.4v.13h.21l.23-.31.17-.14 1.49-.77.56-.24.39-.25.38-.24.19-.07h.88l.08-.1-.09-.17-.28-.29-.12-.19v-.2l.34-.56v-.21h.39v.43l-.18.4h-.37v.19l.06.22.13.16.09.07h.1l.07-.07.15-.08.06-.06.15-.1.22-.05h.89l.12-.06h.49l.28-.07h.51l.53.1.32.13.6.16.25.18.18.08.52.19.8.12h.22l.11.06.73.08h.28l.34-.22h.56l.06-.08h-.1v-.06h.2-.28l-.07.06v-.09l-.15-.27h.06l.13-.1h-.16l-.06.06-.05-.11v-.22l.11.06v-.08h.08V112v.05h.06l.06-.05.1-.12h.06l.4-.18v-.08h.2l.12-.11h.34v.23-.06h-.05v.32h.17l.17-.12h.75v.53h.29v.17l.06.1v.23l-.06.07h.12l.19-.05.19-.07.11-.09h.07v.06h.39l.21.07.11.06v-.06l.05-.11v-.17l.13-.12v-.09l-.06-.12h.15v.22h-.05v.64l.09.12h.06v.12l.16.07.28.21.07.11-.07.15v.05h-.1v-.06h-.05v-.34h-.25l-.07-.11v-.09h-.11l-.05.06v.2h-.24l-.06-.08.08.23.22.17.28.1h.56l.12.09h.14v-.09h.2-.05v.11l.13-.06h.14l.13.07.23.18.1-.06v-.09h.34v.1h-.07v.07h.31v-.09h.21v-.13h.06v.07-.5l.05.06v-.06l-.07-.08v-.22h-.11v-.06h.05v-.06h.06-.06.32l.07.08.1-.13v-.25l.11.15v.38l.1-.16v-.14h.06v.1l.2.18v.09-.17.56l.11.09v.19h.07l.14-.07.23-.18h.08l.07-.07.06-.08.07-.06.09-.22v-.09h-.15l-.09-.15v-.16h.14l-.06-.09v-.05h.09l.07.08h.09-.09l-.07-.06-.05-.08v-.25.25h.07l-.11-.1-.12-.06h-.12H163h-.05l-.22-.17h-.05.16-.13v-.07l.06-.1v-.06l.07.06.13.15.08.07v-.05h-.07.24l.55.3h.15l.15-.09.17.14h.08v-.2h.11v.15l.1-.06h.05v.37h-.07l-.17.08h.73l.12-.13h.12l-.07.13.09.06v.16h.25l.3.08-.06-.11.05-.05h.19-.09l.31.46h.11v.06l.06.14h.16l.11-.07.05-.1v-.18.4-.21h.07v.3l-.06.19h-.11v.21l-.09.13v.06l-.08.08v.23h.1l.08-.08.19-.36v-.24h.28v-.18h.06l.14.2v.06l.17.17h.06l-.11-.18v-.1l.12-.14v-.16h.06v-.12h.14v.14l.06-.06.11-.29h-.32v.14l.06-.09.08-.07h.06v.11-.06h.11-.07.1l-.06-.07h-.22v.06h-.2v-.06h-.2.7v-.06h-.05V113v.1l-.07.08h-.14v-.1h-.45.14-.47l-.28.09h-.12.05v-.09h-.07v-.16h-.09l-.13-.06h-.27l-.12-.06h-.19v-.18l-.15-.15v-.06h.06v-.05h-.17.17l.4.07h.09l-.13-.11v-.06h-.1l-.07-.05-.13-.07h.14l.25.13h.56-.66l-.18-.13h-.07.1l-.07-.06h-.3l-.06-.05v-.19l.07-.1h.25v-.1l.06-.08.07-.07v-.17h.17l.06.09h.06v.15-.16h.16-.07v-.06l-.05-.06h.06l.09-.07h-.21l.09-.08v-.05h-.11l-.08-.09.12-.08v.09h.09v-.09l-.09-.1h-.33.31-.1l-.09.08h-.16v.2h-.1l-.07.07v.26V110v.13l-.06.1-.08.07h-.32l-.1-.08-.12-.12v-.1l.06-.1-.16.09h-.34l-.06-.1v-.27l.06-.09.1-.07h.25l.1.08h.05v-.06l.14-.07v-.21l.06-.06.05-.1h-.05l-.09-.09h-.07l-.12.05h.06v.08l-.06.06h-.12l-.05.13v-.34.22l-.09.15v.07h-.21v-.13h-.12l-.07.19-.12.16-.3.26h-.19l-.32.05-.19.08h-.11l-.3-.06-.18-.1h-.34l-.21-.06-.17-.13-.11-.19v-.25l.1-.18.32-.34.11-.17-.25-.5.1-.12.1-.09h.61l.18.06.23.16h.05l.12.19v.06h.51l.18.13h.11l.15-.07h.09l.05.1v.12h.62l.06.06h-.13l.09.06h.14l.13-.11v-.07h.2l.06-.05v-.15l.07-.11v-.13l.4-.28v-.23h-.17v-.06h.15l.17.1h.09-.07v.06h.15l.28-.12.29-.11.33-.15h.14l.14-.09h.5l.07-.08h-.59.14l.11-.06.39.07.53.32h.38l.2-.11.07-.14v.06h.07v.11h.48l.1-.05h.11v-.35h.12l.1-.06h.09l.1.12v-.11h.57v.12h.89v-1.72h.06v-.14l-.05-.08h.07v.07-.13.06h.22l.06.06.19.4v.76h.18l.06-.08v.19l.05.06.24.19.08.18-.12.1-.21.08-.17.08h-.19l-.11-.08-.18.06-.1.06-.05.06h.15l.41-.11.58-.07.61-.15.29-.16.1-.22h-.11v-.24l.09.06h.18l.05-.07v-.07h.18l.05-.08v-.19l.18-.21v-.06h-.05.19v.19h-.11l-.08.07-.12.19h.06v.06h-.23.17l-.17.05h-.05.1l.08-.06.65-.21.1-.07v-.09h.16v-.25l.08-.06h.19v-.13l.08-.22v-.17l-.1-.12v-.3h.13v.05h.08v.11h.1v.46h.9v-.26l.05-.13.06-.31v-.15l.1.05.07.11.05.06.09-.07-.15.1-.06.06v.14h.08l.07.1h.34l.06.06v.06h-.23l-.27.29h-.34l-.28.11-.16.11v.06l.23-.06.46-.18.72-.19h.39l.1-.07h.1l.38-.09h.37v-.11h.17l.05-.09h.17v-.2l.05.07h.06v-.06h.27l-.08.16v.08l.07.07h.14v-.06h.16l.19-.08h.39l.07-.08.07.14h.15l.12-.07v.17l.16.14v.08h-.38l-.14-.09h-.19.16-.28v-.06.21h-.78l.13.06h.57l.84.12.62.11.58.22.43.15.62.34h.12l.07.06v-.08l-.09-.07h-.09l-.05-.06.06-.11h-.07l-.05-.06h-.6v-.17l.08.36h.22v-.11l.07.11.07.08.06.07v.1h.05v-.06h.18v.07l.07-.07.09-.21.05.06.08.12h-.11l-.16.25h-.19l-.16.27-.1.07h.05l.18.06v.06h.19l.11.06h.07v-.12h.32l-.06.07v.13l.08-.06v.27l.05.08h.08v-.13h.07-.13l-.07.06-.17-.05-.19-.1-.09-.1-.09-.07-.32-.06v-.1h-.33l.05.06.27.2h.06l.67.42h-.21l-.11-.09-.07-.09.15.1.58.19h.09l.09.08.08.09v.17l.18.18.06.11v.56h-.11l-.15-.17-.07-.11-.05-.12v-.5l-.06.13v.28l.15.44.06.07.08.08h.11l.16-.11h.33l.52-.26h.63l.08-.16h.12l.06-.15h.13l.05-.06h.14l-.11.25v.09h.05l.06-.07h.22l.1-.11h.25l.21-.27.12-.12.22-.09.18-.19.23-.19h.7v.12l.12-.1v-.25h-.5v-.06h-.08v-.09h.07l.1.05h.36l-.11-.1v-.07h.77v-.09l.15-.11h.21v-.13h.17v.11l.47-.67.33-.07.14-.09h.09l.39.23.49.22.22.06h.11l.12.1h.21l.23.13v.05l.05.06.21.16.06.11h.1v.24l.05.08.08.1.1.08.09.06h.56l.06.06v.62l.13.07h.12l.28.25.15.08h.11l.11.06.09.08.18.18.11.15v.17h.37l.05.06v.07l-.05.06v.57h.07v.12h.82l.08-.08h.06l.09-.06v.19l.05.05h.09l-.09.07.06.09.2.11v.28h.12v.2l.24.22h.17l.06.06v.4l.06.15-.14-.13h-.08v.14l.11.11v.07h.08v.44l.05.46v.53l-.07.2v.15l-.1.48v.16l-.08.16v.32h-.05v.25l.05.14v.07l.06.07v.79l-.09.46v-.35.44l.07.15v.07l.09.12.34.24.09.17v.09l.06.11.07.09h.06v-.19l-.1-.17-.07-.09-.33-.27-.06-.07v-.08l.11.08.21.12.1.08.11.12h.17v.14h.17v-.52l.06-.09v-.12l-.05-.11v.37l.14-.12-.2.06h-.2l-.19-.07-.2-.05.07-.1.21-.1.05-.08h-.23v-.17l-.06-.08.23.15v-.07l.05.06h.21-.09.28l.09.06.06.13v.4l.07.09h.17V117l-.05-.08v-.36l.09-.07h.15l.08.22.13.21v.21l-.13.2v.06l-.12.12-.05.16v.33l-.12.12-.05.12v.23l-.1.08v.08h.13v.08l-.14.07-.07.05h.25-.36l-.07.11v.16h-.26l-.1-.17v.09l.14.23.07.07h.26l.21.11h.1l.08.06.09.25.14.19v.25l.08.1.09.09.08.11v-.07h.06v.16-.06l.05.12.15.2.08.19.58.8v.11h.07v-.08l-.08-.11v-.09l.15.13.22.44.16.07h1.35v-.05h.05v.15h.05v-.15l-.09-.24-.1-.18-.1-.16h-.12l-.17-.15-.07-.09h.17l.12.15h.2v.09l.11.09h.06v-.06h.12v-.08h.28l.19-.08.09-.11h.08v.22h-.1l-.22.18-.08.09v.07l.11.07h.08v1.03l.12.17v.38l.06.08.09.08h.06l.06-.06.09-.06v.08h.11l.08-.44v-.1l.13-.2.08-.09h.17l.1-.09h.07v.07h-.06v.06l-.18.24-.05.08.05.13-.07.17-.11.14-.12.12h-.08v.16h.06l.29.11h.1v-.21.08l.13.16.05.07v.1l.06.34v.09l.18.24v.24l.11.42.15.37v-.23l.15.37.1.13.16.08v.18h.29v.22h-.3l.06.15.06.05h.08v-.08h.17v-.08.06h.11v.06-.06h.92l.05-.08h.06l.08.07h.35l.13.06.13.09.12.13-.11.12v.07h.06l.08.14h.21v.22l.14.17.09.24v.05h.36l.1-.05h.06v.08l-.08.08.08.09.19.15.1.2v.21l.25.14h.67l.33.25.05.09v.13l-.07.07-.11.05h-.2l-.4-.1h-.07l-.11-.15h-.19v-.08l-.08.09-.05.19v.39l.08.15.11.16.27.18h.07l.22-.09.2-.06.15-.06h.28l.09-.14.12-.11.09.05h.15v.09h.07v-.11l.05.05h.23l.08-.11h.14l.17-.07h.08v-.31h.33v.06l.07-.07h.1l.09.06v.12-.11l-.07-.07h-.21l.05-.08.09-.06h.08v.08h.07l.12.13h.09l-.07-.05-.08-.07v-.17l.07-.11v-.1l.17-.29.15-.19v-.07h-.12v-.51l.06-.13v-.09l-.05-.27v-.1l.12-.17.06-.25v-.24h.1v-.69l.13-.26v.21-.1.23l-.21-1.59-.1-.11.07-.07v-1.72l-.1-.74h.08v-.16l-.14-.69-.06-.16-.08-.07.06-.1v-.14l-.22-.49h-.24.11v-.13l-.13-.18-.15-.28-.16-.21v-.08l-.05-.08h-.14l-.05-.06-.22-.18h-.2l-.15-.12h.5l.06.1v-.09l-1-1.59-.32-.78-2.14-3.13-.05-.13-.2-.26-.14-.29-.06-.1-.21-.51-.05-.22v-.1l-.2-.26-.08-.12-.16-.48h.1l.18.13h.22v.68l.08.06h.5v-.08h.64v.08l.07.21v.92l.16.93.08.22.22.4.38.47.07.18.18.14v.05l.15.21v-.23l-.49-.53-.14-.21v-.08l-.09-.15-.2-.53-.07-.29v-.19l-.09-.53v-.05h.05l.06-.12v-.12l-.09-.1-.18-.33-.37-.45-.32-.31-.39-.51-.82-.9v-.1l-.06-.09H207v-.1l-.58-.75-.45-.8-.39-.59-.28-.35-.05-.09v-.31l-.19-.23-.12-.32h-.06l-.07-.26v-1.07l-.27-.59-.1-.41v-.1l-.13-.17-.06-.09-.25-.57v-.79l-.14-.08h-.08l-.05-.07v-.32h.05v.29h.08v-.16l-.06-.46v-.25h-.18v-.39l-.07-.07v-.14h-.08.19v-.28l.11-.18v-.09h-.33l.21-.08.07-.07V99l-.06-.08-.22-.17-.08-.09h.13l.13.08.11.11.08.1v-.54l-.09.11v.17h-.06l-.13-.1h-.14v-.07l.18.06v-.18l-.07-.21v-.26h.1v.38h-.6l.07-.08.09-.17.12-.29h.1v-.3l-.08-.06-.22-.12h-.68l-.13-.09h.95v-.15l-.07-.08-.16-.12-.05-.08v-.07.05-.14l.24-.53.06-.2h-.16l-.13.1-.24.22v-.22h.71l.07-.07.11-.16-.07-.06-.13-.09-.06-.07h.26l.05.06.08.19v-.62l-.08-.06h-.07v.07h.07l-.28.09h-.09l.15-.23V95l-.15-.08h-.21v-.07h.19l.12.06h.46l.05-.07.11-.21v-.23h-.08l-.11-.08h-.29l.05-.08.17-.08-.1-.05v-.06h.11v.06h.46l.09-.1.13-.18h-.12l-.08-.08v-.1h.06l.2-.21.07-.13-.08-.1h-.2v-.2l.17-.29v-.24l.08-.13v-.51l.05.2-.1.37v.21l.35-.31.11-.23.1-.16-.08-.1h-.11.15-.07l-.19-.23h-.08v-.21l-.07-.13-.12-.18-.09-.19v-.16h-.05l-.09-.15h-.06.09v.13h.14v.22l.09.19.17.28.35.22h.12v-.11l-.06-.08-.06-.37v-.14H205h.13v.49l.15-.1v.49l.06.14h.05l.16-.12h.16l.33-.31v-.09h-.09.06v-.34l-.06.08v.06L206 91l-.12.08h-.08l.06-.1.09-.11.19-.11v-.11l-.07-.09h-.55l.1-.07h.38-.86l-.07.06v-.13h.59V90v.06l.19.12h.48v-.27h.07v.07h.12l.28-.3h.05v-.08l-.24-.15-.07-.06h.16l.17.13.13.07h.06l.05-.07.1-.06h.1l.19-.11.24-.08v-.05h-.12.49l.23-.24v-.28h-.31l-.06-.06v-.08h.15v-.16L208 88v-.07l.18.08v-.1l.09.06-.07.15v.09h.15l.05.06h.15l.13-.08.32-.19.05-.11v-.14l.07-.12.11-.07v-.08l.2-.17v-.08l-.07-.08v-.12l.07-.27v-.08h.06l.12-.12h.08v.06l.08.1.06-.06.08-.05h.31v-.26l.08-.1.18-.13v-.2h-.2l-.06-.06h.29l.05.09h-.06v-.06h.06l.05.08v-.09l.05-.06.05-.06h-.06l-.05-.09v-.13h-.28l-.1-.07-.06-.1v-.36l.15-.32.07-.11.09-.06v.06l-.13.22-.07.27v.14h.26l.06.07v.29l.05.07v-.85l.06-.24.34-.72.31-.67.25-.39.39-.49.42-.38.17-.11h.42l.11-.06.12-.06v.06l.37-.22.26-.14.09-.08v-.16.18h.16l.35-.15h.18l.24-.06h.66l.11-.29.05-.22v-.43l-.07-.12-.13-.37v-.16l.12.22.13.19v.16l.13.42v.28l.11-.18v-1.01l.06-.22v-.27l.12-.16.16-.43.21-.38.49-.61.32-.28.21-.11h.07v-.07h-.33.07v-.27l-.06-.07h-.06l-.05.05v-.08l-.09-.28.06.06h.12-.07.08l.22.18v.11l-.17.19-.05.09h.22l.11.06h.07l.1-.1h.05l.11-.09.16-.35.12-.1-.06-.09V75.1h.08l.05.12.13.13-.07.07v.06l.6-.33.13-.12.87-.11v-.06l-.13-.13h-.07v-.1l.08-.1.1-.09h.17v.26l.05.1h.13v-.13l-.07-.46.08.07.12.07-.06.09v.08h.29l.11-.21.06-.08v-.25l.15-.12v-.28h1.14v-.1H222V73l-.09-.07h-.14l.05.07.1.1v.08h-.18v.1l-.18.11h-.07v-.1l.11-.09-.11-.09v-.21l-.05-.06v.57l-.08-.08h-.21l-.09.06v.07l.13.13v.1H221l-.12-.06h-.2l-.07.07-.06.09-.06.1-.06.09-.11.07v.07h-.06l-.18-.08h-.63l-.21-.18-.15-.21-.09-.09h-.09v-.05l-.25-.27h.17l.27.26h.24l.25.18.14.07.17.06h.33l.16-.09.05-.14.08-.1.17-.15.13-.15v-.08l.13-.08.07-.13v-.14l-.1-.13-.06.05h.07l-.06.05h-.36v-.07h.5-.18.34v-.23l-.08-.06h-.91l-.31-.1h-.36l-.51-.96-.2-.07h-.19l-.12.1-.07-.16h-.21l-.06-.06-.1-.14.2.1h.3l.24.08h.54l.11.07h.11l.22-.11h.14v.13l.11.06h.13l.09-.07h-.09V71l-.08-.06v-.13h-.18l.16-.15.08-.06h.55v.16l-.06.05h-.34v.07l.06.06h.1v.07h.27V71l.07.08h.07l.18.05v-.06h.16l.05-.2-.06-.09H221l.05.09v.25h-.18.18v-.28h.11l.09.12.15.06h.05V71l.07.09h.78v-.08l.15-.09h.07l-.07-.07v-.22h.14v-.18l-.05-.07.11-.06h.08l.19-.32v-.27l.06.11.08.09h.08l.1-.07h.19v-.26l-.13-.13-.07-.09h.21v-.19l-.08-.08v-.35l-.1-.09v-.07l-.28-.29-.16-.12-.17-.08v.16h.15l-.08.06h-.29v.06l.05.06h.16-.12l-.11-.1-.08-.05-.12.13.15.66v.19l-.07.46h-.35l-.11-.12h.4l.06-.09-.06-.06v-.06l-.05-.06h-.36.18l.12-.06v-.14l-.09-.15-.12-.06h.1l.06-.1v-.25h-.06l-.13.09v-.25h.11v-.09l-.1-.06h-.24l-.41.12-.36.19-.08.11h.17-.46V68h-.16l-.22.1-.21.14-.12.12h-.15l-.61.12.1-.24V68h-.07v-.13h-.05v-.05l-.06-.14-.09-.11v-.06l-.08-.35v-.38l.06-.08v-.17l-.1-.07v-.06h.2l.06.08v.22l-.05.08v.32l.06.13.15.22.12.28.11.07h.1v-.14h.05l.16.17h.14l.15-.05h.1l.13-.09.12-.12.07-.13h-.06l.06-.05.43-.17h-.58l-.05-.05-.08-.11h.09l.09.06h.15l.1.1h.14l.5.11h.21l-.1-.06-.2-.18h-.11v-.07h.09l.14.07.1.11h.59l.08-.08h-.11l-.07-.12h-.12l-.06-.06-.1-.11h-.39v-.9H221h.32l.11.06.09.07h.09l.14.14.09.06h.49-.14l-.14-.09h.05v-.18l-.09-.19h-.05l-.06-.07h.16l.14.08v.11h.14v.07l.11.06.07.07v.25l.15.13.09.06h.15v-.09l-.08-.11-.06-.1v-.07l-.37-.57v-.07l-.05-.07-.19-.19-.06-.08v-.39l-.1.18v.18h-.1l-.14-.11-.08-.12.06-.06h-.1l-.12-.06-.1-.09-.06-.1v-.21l.18.18h.14v.15h.28v-.14l-.05-.13h-.07l-.07.07v.05l-.09-.29-.07-.56v-.06h.06v.06l.18.35h.07v.26l.1.18.08.17.09.12v.09l.09.11v.07l.11.35.06.13.08.06.17.21.09.16.1.15.08.15v.43h.13v.14l-.1.06v.15h.08l.39.34.1.12.05.19v.09h.11V68h.09l-.2-.29-.1-.21-.93-1.11-.31-.51-.19-.24v-.2l-.05-.11-.11-.2-.37-.84-.1-.21-.07-1.08-.18-.42-.11-.12h-.1l-.11.07h-.55l-.44-.06h-.15l-.07.12v.08h.05v.4l.1.09h-.15l-.06-.05V63h-.46l-.08.07-.07.09-.08.07h-.12l.11-.12v-.2l-.05-.05.06-.07-.3-.09h-.2v-.05h-.35v-.07L218 62l-.13-.3v-.05h-.05l-.09.17h-.17l-.18-.13h-.07l-.39.08h-.1l-.18-.08h-.1v-.1l-.06-.09h-.11l-.1.14h-.05v-.05l-.37.08-.3-.05h-.07v-.07l.1-.13.08.07h.69l.05.07.11-.14h.06l.16.18.06.09h.17l.07-.08v-.32.33h.38v.05h.07l.18-.06v-.05l.11.05.09.11.06.13v.16l.07.06.11.08h.19l.45.26.07.06.09.2h.07l.06-.05.1-.13h.23l.07-.05v-.48h-.06l-.16.08h-.08v-.08l.08-.09v-.07l-.1-.06-.14-.06v.06h-.11v-.18l-.07-.06h.21l-.18.07h-.2l-.2-.08-.34-.18-.31-.25-.13-.15-.08-.07-.16-.06-.25-.28H217v-.16l.26.17.18.21.11.1h.19l.35.36h.1l.05.07h.14l.19.1h.09l.33-.15v-.06l-.05-.07h-.13l.11-.07h-.06l-.13-.06v-.06h.09v-.14l.1.05.18.21h-.1.06v.08l.22.18.05.07v-.73h-.15v-.13h.05l-.14-.1h-.07v.19h-.1l-.17-.08h-.17l.11-.06.2-.06h.07l.06-.07h-.54l-.14-.14h-.49l-.09-.11-.05-.09-.06-.15-.14-.09h-.26v-.11h-.17v-.07l-.14-.16v-.1h-.2l-.08-.05h-.08l-.06-.11h-.06l-.1-.29-.09-.07h-.43v-.07h-.23v-.11h.35l.07.07.05.08.06.05h.38l.11.11.18.27.2.09.09.16.29.08.1.16.21.22h.19v-.07.08-.06l.15.07.06.1.19.16.07.08v.15h.13v-.28l.07.07.05.07h.49v-.09l-.07-.06v-.12h.15v-.06l-.16-.08v-.06h.06v-.26l-.13-.16v-.1h.08l.16.11h.08v-.21l-.05-.22v-.06h-.18l-.42-.06-.19-.08h-.38l-.15.07v-.21l-.08-.06-.16-.06-.12-.08v-.11h-.05l-.08.05h-.09l-.09.08-.1.05-.06-.06v-.06h-1.29l-.19-.07-.08-.11v-.07h-.09l-.23-.16h.12v-.26l-.05-.05h-.11l-.09.07-.09.1-.2.11-.12.13h-.07l-.27.1h-.4.14l-.06-.06-.18-.12-.07-.06.06-.05h.06l.11.09-.08-.19v-.6l.07-.07.05-.07v-.36h.11v.13l.07-.05V54.2h-.08v-.12h.07v.07V54l.07-.08h.06v-.19l-.12-.55-.11-.1.2.06.08.25v.27l.1.13v.08l.06.1v.07l-.15.09h-.06v.34h-.09v.13l-.11.08h-.09v.66l.05.1.06.09.1.09h.11l.08-.05.09-.06v-.07l.05-.2-.05-.06h.05l.05-.05v.11h.1l.05-.05v-.26l.08.07.09.12.21.37.08.08.35.25.13.05h.09v-.14l-.06-.14-.07-.12-.16-.21.15.05.12.09.08.13.06.19v.07l.1.1.07.05h.07l.39-.14h.16l.3.2h.2l.07.08v.07l.06.12h.06v-.05.08l.12.08h.06v-.25l.11.07.07.17v.17l.07.06h.12l.38.22v-.52l-.18-.18-.13-.07v-.36l-.06-.07h-.4l-.09-.08-.08-.09v-.09l-.31-.07-.17-.1-.14-.13-.11-.16-.06-.2v-.19l-.1-.38v-.14l.07.12.3.79.36.3h.36v.05l.08.07h.22l.09-.07v-.1l-.27-.15-.06-.09-.16-.16-.36-.27-.13-.19v-.88l-.14-.1-.07-.08v-.2l.13-.13.05-.09v-.12l-.11.1h-.05v-.18h-.05.09l.06-.08-.06-.06-.16-.05h-.06v-.14h.16l.18.14h.08v-.06l-.08-.12-.23-.24-.12-.08h-.15v-.06h.05l.09.09.29.2h.16v-.06l-.08-.09h-.09l-.25-.06h-.12l.16.07h.11v.06-.12l-.07-.11-.09-.1-.1-.18-.08.08-.08-.09v-.11h-.31.16l.23.05h.07l.06.05h.05l.15-.14h-.14l-.14-.07-.11-.12-.1-.13h.15l.1.11h.07l-.18-.15v-.06h.25l-.05-.06v-.16h-.3l.31-.15h.06l.13.22.09.25.09-.19h-.05l-.08-.08v-.48.48l.08.06.09-.12.22-.21.16-.24v-.13h-.23l.06-.31h.05l.29-.06v-.2h.06v.41l-.07.17v.21l.05-.11.24-.31.06-.1.05-.1.05-.1.1-.06v.27l-.05.11-.09.08.06.08.07.05h.14-.41l-.07.06-.07.1-.13.23v.1h.11l.48-.1h.19-.11l-.18.05-.48.09-.36.12v.2h-.08v.2l-.12.43v.36h.11v.33h.05l.06-.08v-1.4l.12-.11v.06h.11l.08-.06.08-.09.08-.06v.1l.28.27-.06.14h-.1v.11l-.06.08-.09.06h-.29l-.14-.1h-.05v.9h.06l.08-.07v-.18h.13v-.14h.08l.16.09v.19h.06v-.16h.06v.17h.19l-.07.09-.11.06-.08.1v.15l.08.11h.09l.08-.08v-.09.25h-.36l-.06-.12h-.08l-.06-.06h-.07l-.06.05-.09.12v.75h.05V53l.05-.08v.28h.05l.06-.1.1-.2h.09v.27h.06l.06.11v-.21.1l.05.06h.25-.05l-.1.08h.26v.11l.1.07h.73l.09-.05v-.3h.06v.41h-.19l-.47-.07h-.12v-.07h-.06l-.1.07h-.33l.06.06-.07.13V54h.19v-.1h.16v.19l-.07.06-.09.05-.07.06v.32-.12h-.19v.11h.05l.06.11v.06l.17.17.11.12v.13-.06l-.12-.23h.08l.33.27.06.08h.17l.19.21h.06v-.35h-.05l.05-.15.09-.18.09-.08.07.11v.09l-.11.08v.25-.45l.16-.3v-.17h.74v.24l-.09.26v.25l.06.1h.36l-.14.11-.16.08-.12.12v.33-.1h.28l.09-.06h.2-.13.22v-.07h.07v.11l-.15.23v.07h-.12v.07l-.06.16v.17h.05l.07-.08.1-.14.08-.09h.1l.39-.06h.18v.07h-.06l-.13.06-.1.08-.08.11h.32v.13h-.1v.12h.05l-.25.09h-.1v.08l.11.07v.07l-.05.08-.07.09h.09l-.11.19v.13h-.17l-.06.06v.09l.09.07h-.09l-.07.07h.07v.12h.19l-.09.07-.07.1v.29l.08-.07v.06l-.11.08v.43l-.06.05v.38h.09l-.06.09v.26l.11.08v.11l.15.14.06.1.05.12h.12v-.46.29l.09-.08v-.05l-.05-.12v-.24l-.07-.49v1l.07-.15v-.22l.06-.13v-.05l.32-.13v-.05h-.18v-.18l.06-.05v.15l.06.05h.06v.06l.06-.1.07-.13v-.28h-.08v-.32l.05-.18v-.2l.19-.78.12-.21v-.09l-.06-.1h.07v-.34l.05-.07h.06l.05-.06v-.74h.15v-.8l.13-.11v.13h.14V54h-.1.65v-.13h-.27l.07-.06h.3l-.1-.11h.11v-.1h.1v.64-.79l-.06-.13-.07-.12-.05-.13v-.29.08l-.07.12v-.05h-.11l-.14.15h-.07v-.28h-.09l.06-.11.27-.14.07-.12h-.2.14l-.12-.17h.2l.08.06.07.25v-.21l-.19-.56v-.06h-.36l-.14-.08-.29-.24-.26-.14v-.23l-.05-.08-.19-.26-.09-.08h-.13v-.2l-.05-.06v-.64l-.07-.11-.13-.19-.16-.13h-.14l-.24-.31-.08-.07h-.07l-.09-.08-.06-.1V48l-.06-.09h-.05l-.14-.1v-.23l.13-.08.14-.28v-.4l.13-.14v-.06l.08-.16h.13l.23-.18h.21l.14-.14.23-.15v-.4l.07-.06h.08l.12-.15.08-.06-.05.09-.1.3v.09h-.07v.06l.05.1.08.06v.07l-.05.08-.05.06h-.07L221 46l-.14.1h-.16l-.16.08-.22.16-.13.14-.11.17-.06.18v.15h-.05v.26l-.07.07-.07.11.06.06.17.11v.43l.08.16.12.09h.15l.53.37h.06v.08l.06.07h.23l.05.09h.07l.18.08v.06h.14v-.11l.12-.06h.54l.12.16v.21l-.11.49v.46h.07l.22-.15.14-.14.11-.16v-.16l.1-.05v-.09l.07-.13v-.12h.05L224 49v-.07l.08-.08.12-.27.1-.11-.21.13h-.2l.06-.11.1-.05.27-.06v-.17l.1-.2h.13l-.08.14v.16l.1-.06.21-.22.12-.08-.06-.09-.07-.09h-.15v-.22l.05-.06h.12v-.23h-.11v-.09l-.05-.19h.12l.25.02h.06l-.08-.08-.08-.1v-.18h.05v-.24l.1-.08v-.43h-.15v-.47l.06-.11v-.26l.08-.11h-.19l.06-.1v-.2h-.07v-.34h.12V44h-.07l.06-.08h.05v.63l.15.88v-.13l-.06-.56v-.88l-.06-.09h-.09l.05-.16v-.99l-.22-.71-.06-.13h-.08v.1l.07.11.06.05h-.06l-.19-.06h-.5l-.21.09h-.23l-.07-.07v-.36l.06-.07v-.67l.07-.06v-.15l.08-.07v.28h.07l.06-.11.07-.09.07-.11v-.69l.11-.32.06-.42v-.45l-.17-.44v-.33l-.06-.08-.07-.06h-.08l-.07-.06-.07-.17v-.13l.07-.08v.29l.1.1.16.09h.06l.06.07.09.17.06.2.1.43v.57l-.05.24v.2l-.14.46v.34l.08-.1.78-.42.05-.14.1-.09.15-.06h.27l-.08-.09h.1v-.22l.14-.24h.14l.06-.14v-.06l.08-.08.1.05h.08l.07-.07v-.09h.05v-.15h.07l.12-.13h.06l.15-.16v-.06l.06-.06h.08v-.06h.13V38l.12-.13h.18v-.94l.08-.07h.12l.07-.17.12-.18v-.06.12l.05.05h.06l.24-.07h.08l.05-.07.15-.05h.24l.22-.11h.29v-.13l.06-.08.09-.06h.35l.06-.09h-.05v-.14l-.06-.07-.08-.05-.07-.07h.2v.13h1.59l.22-.2h.12v-.15h.36v-.2l.24.13.22-.2.27-.08h.16-.06.13l.35-.15.61-.42.19-.06h.2v-.13l.11-.45v-.09l-.08-.28v-.07l-.08-.09v-.44l-.06-.07h-.11v-.22h-.05v-.4l.07.06v.22l.06.07h.18v-.12.4h.07l.06-.05.08-.1v-.25h.6v-.05l.06-.27v-.08h.06l-.05.24-.12.42v.46l.08.23.1.18v.1l.09.11.2-.3.08-.08-.06-.07h.16v-.11h.07v.15h-.08.23l.14-.18h.06l.07-.1-.07-.15v-.34h.11l.06.09h.05v-.06l-.06-.13.07-.05.06-.06h.05l.07.06.05-.11v-.39h.11l-.06-.06v-.23h.1l.15.06v-.07l.05.05V32l.11.4v.15l-.07.13h.12l.21-.17.11-.06h.14l.11-.06.08-.08.06-.11.06-.25v-.05h.06l.08.08.05-.07h.2l.09-.08h.06v.2-.12l.12-.1.19-.05.61-.29h.17l-.07-.36-.08-.27-.06-.06h-.06l-.07.08v-.3l.07.05h.07l-.09-.09-.35-.56-.14-.12-.28-.19h-.45l-.16.07h-.11v.13h.09l.13.11h.06l.07-.05h-.06v-.16h.14l.16.06.1.15v.06l.14.22v.08l.06.24v-.28h.19l-.06.05.12.11.07.16v.33l-.06.05-.13.06-.1.11.47-.15-.18.18-.11.08h-.25v-.05h.21l-.53.09H238l-.31-.11-.15-.1v-.28l-.07-.2-.12-.16-.1-.05-.15.06h-.19l-.29-.17h.08v-.26h.05l.06.07.09.13h.05l-.18-.15v-.17l-.11-.07-.15-.15-.1-.08h-.06v-.15l-.13-.1L236 29h-.31l-.12-.05-.22-.13v.14l.06.06h.06v.06l-.06-.06v.1h-.13v-.05l-.06-.06H235v-.15l-.08.08h-.06v-.17h.06-.09v-.08h.22-.05.06l.09.06h.06v-.16l-.06-.08v-.08l.07-.07.14.1.1-.06h-.18V28h.1l.06-.09h-.05v-.05.07-.16l.18-.14.44-.22v-.16H236v-.05h.06v-.09H236v-.08l-.1.08v.06l.05.14h-.08v-.06h-.23l-.1-.07h.07l.06-.05-.26-.05-.11-.06-.06-.16h.06l.17.14v-.05l-.2-.3-.06-.05H235h.18l-.08-.18v-.4l.13-.38v-.28h-.09l-.08.05v-.34h.07l.07.05.08.07h.07v-.58h.06-.07v-.2l-.08-.1v-.39l.08-.19v-.05h.12l.08-.07v-.17l.06-.09v-.31h-.05l-.07.07v-.51l.06-.07h.06v.11l.05-.06.05-.13h.07v.08h.06l.08-.08h.06v-.23l-.09-.11h-.31.17v-.2l.1-.11v-.24l.07-.08.15-.26.09-.07v-.21h.05v.17h.05l.11-.14h.08v.16l-.1.33v.15h.07V19.7l.05.1-.12.6v-.13l.1-.26v.07-.24h-.11v-.05h.1v.11h.07v.34h.05v.16h.06V20l-.06-.09-.09-.16-.05-.18-.17-.4-.11-.19-.05.11v.05V19l.16-.33v-.13.07l-.05.11v.83l.1.24v.08l.08.14h.05v-.48.14-.3h-.05v-.08l.2-.66v-.08H238v.41h.1l.05.05H238v.22h.27l.05-.06v.17V19l-.06-.05v-.69.08l-.06.24v.13h.05v.32h.08v.05l.08.06v-.25.18l.06.06v.17l.05-.11v-.8h.06v-.06l-.06-.11V18v.18h.48v.21h.07l.08-.08h.05v.21-.05l.15-.37h.08v.1l-.07.22v.13h.07l.11-.12v-.29h.06V18h.13v-.24h.11v-.27l-.13.05v-1.19l.07-.06.06-.07v-.08l-.05-.08-.16-.15v-.11l.07-.08.16-.1.08-.14.05-.05h.06v.09h.05l.07-.06.05-.08h-.09v-.45h.21v.09l-.05.29v.4l.05.05v-.2l.13-.12v.07l.1.09h-.09v.58h.11l.11-.14h.3l.14.08h.29l.45.2.09-.08h-.05v-.05h.07v-.36h-.09v-.28l-.05-.05-.08-.11h-.06.19l.08-.07v-.12.18-.22h-.06v-.23l-.12-.14h.19l.06.07.06.28v.06l.09-.06v-.07l.06-.14v-.11h.34v-.12l-.07-.05h-.14v-.1h.21v.09l.16.1v-.3.11l.05.14h.06v-.12.05h.13v.2l.06.13.08.14.06.07V15v.05h.06v-.07l.07-.23v-.15l-.08-.12h-.21.12v-.18l.11.33h.73v-.35.27l.05.13.09.05v-.47h.11v-.32l-.1-.08v-.21h.05v-.14.33l.05-.28v.35l.05.05h.11l.05-.27v-.09h.54v-.3h-.08l.11-.18h.06l.06.11v-.07.13h.27-.07v-.14l-.06-.08h.1l.06.09.06.12.08.08v-.17h-.07v-.12l-.05-.06h-.06v-.08h.1v-.05h-.07l.1-.09h.08v.19h.31l-.07-.07h.23l.06-.05.14-.3v-.34h.09l.09-.19v-.07zm-4.25 3.58v-.09h-.14l-.16.06-.13.11v.12h.06v.05h-.05v.4h.06-.05l.06.07h.15l.07.05.05.08.05-.08v-.14h-.07l-.06-.06v-.13l.12.06.16-.06.14-.12.06-.13-.08-.13zm-1.63 2.26h-.5v.1h.19v.16h.23v-.17zm.4-.67h.05l.08-.06v-.17h-.25v.23h-.07l.07.08v.1h.23l.13-.12zm-21.91 40.23h.17v-.32h-.2v.14h.18zm3.69-2.53v.13l-.07.43-.07.23v.37l-.09.21-.05.19-.07.14-.06.14v.32h-.06l.08.07h-.09.14l.09-.14.07-.18.15-.68v-.06l.11-.2.07-.47v-.33l.09-.32zm-3.83 1.44h-.17l-.06.09v.1h.22v-.05zm19-22.67l-.06-.07v.06l-.05.11v.07l.07.05h.13v-.08zm-.42.11h-.11L238 33v-.05l-.06-.07h-.06v.13h-.05v-.13h-.06l-.19.15-.09.16-.05.22v.08h-.06l-.26.07h.06l.1.08h.14l.06-.09.08-.09.1-.08.11-.06.57-.17h.07l-.11-.26zm2-1.33v-.46H240v.15l-.05.44zm.29 1.1l-.13-.21.09.13v.12l-.07.24h.06l.08-.15h.06V33v.15l-.1.06v.06h-.13l-.34.14h.72l.22-.07.17-.15-.09-.16zm-78.13 81.8v.06l-.09.05h-.07l.24-.1zm1.77-.94l-.06.08-.11.06-.1.07v.12l.06-.08.15-.1.1-.08zm4.68-3.76l-.05.07h.07zm-8.59 5.31h.05zm-.19 0h.08zm-.53 0h.31-.11zm2.29-1.2h-.05v.13zm.23 1h-.46l.24.07h.21zm.58-.22l-.13.12.29-.14zm6.22-3.87l.15-.25.06-.13-.26.44zm.1-1.15zm0 0l-.08.11zm-.29 1.42zm.5-2.09l-.05-.13-.06-.11h-.11.07l.06.08.06.19v.14l.09.15v.47l-.11.3v.09l.1-.24v-.58l-.07-.37zm-4.6 4.16h.15zm-.24.24h.05l.07-.06h-.07zm-.73-.95h.07-.09l-.06-.06h-.39l.09.09h.18zm5.47-2.66v.07zm-8.1 5.13h-.39.08l.36-.12h.13zm6.35-5.55l-.12.12H167v-.06h.06zm.08-.41V109h-.15l.06-.11.12-.15v-.06h.06-.07l-.06.06-.08.12-.11.1h-.14l.05.09h-.21v.07h.16l.07.08v-.07zm-1 1.58v-.07h-.14l-.06.07v.32h.06v-.13.05h.07v-.08zm.84-1v-.07h-.2l-.07.08h.08zm-.11.66h-.15l.24.18zm1 1.5l.13-.18zm-.3.12v.08l-.07.06-.15.07h.26v-.09zm-1.83-.85h.1v-.08zm.93-1.42v-.06l.06-.13v-.1l-.07.11v.22zm1.61.47v.1-.15zm-9 5h-.06zm-4-2.58h-.4l-.13-.11h-.41v.07h-.29l-.11.11v.08l.08.06.51.18h.1l.29.17h.25v-.21l.06-.06.17-.11v-.08zm47.72-13.36v-.11.18l-.2.22v.17l.06.1v.19l.11.41v-.35l.05-.16v-.69zm8.7 31.41v.05zm.14.19zm-.23.34zm-.51 1l-.15.06-.34.32.34-.21.06-.08h.06zm0-1.43zm1-.6v-.06zm-.06 1.13zm0-1.08h.07zm0 1.31l.06-.06v-.07zm0-1.38v.05zm-.16-.09zm-.11 1.72v-.09l-.19.2v.07h.26v-.05zM209.2 133h.05v-.07zm-.3-.08l-.17-.09h-.07l.41.44v.16l.1-.1-.11-.2zm-.12.42zm-.32-.1h-.11v.14h.11v-.1zm.18 0h.07v-.11zm2-3.51v.08-.15zm0 2.88h-.1l-.26.13-.09.06h.22v.08-.14l.1-.07zm-11.26-19.28zm8.84 20v-.06.11h.23v.13-.06H208h.09v.06l-.1.08-.08.09.33-.16.16-.1.11-.11zm2.24-3.57zm.12.14zm-.68-.56h-.17zm-.15.13h.05v-.11zm.17.1v.06l.05.06v-.07h.03-.07zm5.29 6.23zm-.18 0zm-5.93-24.11v-.17l-.11-.15h-.07l-.09.1-.09.08v.1h-.1v.53l.06.08.12.43v.09l.09.11.26.48.1.14v-.08l-.06-.08-.06-.1V113l-.08-.66v-.21zm-8.66 6.92h.08zm1.29 15.89zm10.83-16l-1.22-2.06v-.3l-.1-.19-.26-.3-.14-.21-.07-.21.08.11.21.37.11.14v.06l.06.1.05.16v.07l.05.06.06.09.35.78.09.16v.06h.07v.07l.4.59.09.2.12.1.1.14zm-3.25-5v.13l-.11-.16zm5.45 22.48zm-.54.3zm-.39-7.73l-.07.07-.1.22-.06.05-.15.07v.19l-.14.23-.06.25h-.23v.1h.12v.34h-.1v.13l-.09.15-.05.13h-.07v.2h-.12v.05h.1l.09-.14.14-.26.13-.16v-.26h.05l.33-.47v-.22l.12-.26.11-.21v-.3h-.11zm-1.36 1.27h-.08.06zm.06 1.25l-.12.22.09-.12v-.07zm-.28-.73zm.45-.69zm-.45.52v-.11.07zm1.86-2.47v.49l.05-.07v-.45zm-1.11 2.41v-.07.05l.06-.08zm1.62 6zm-.72-9.29h.1v-.3.06zm-4.38 6.37l-.05.08h.05v-.05zm-10.78-21.53zm0 .26h.05-.07zm.34.33h.08-.06zm-.06-.62v.05-.08H199h.06zm-.17-.12h.15-.08zm.08.14h-.08.06zm-.28.07zm-1.7-1.31v.08h.06zm-7.91-2.57l-.1.09-.17.12.26-.09.1-.07v-.12zm9 2.61h-.05zm.56 1.69zm.4.61zm2.24 22zm.26 0zm-.92-14.89l-.22-.19-.15-.19h-.08v.06l.07.08.06.08.24.21h.09zm.94 14.86zm0 0zm-2.58-22.38h.12v-.07H199zm-.11.1zm-10.34-4.22l-.08.11h-.06v.07l-.94.62-.21.08h-.1l-.14-.07h-.08l.14.07h.48l.26-.21.09-.1.44-.26.25-.26.1-.06zm10.52 4.31zm-.12-.45h.11v.06zm.18.8v-.06h-.06zm7.75 14zm-.55 0h-.11.1v-.12zm-1 7.41h-.06.09l.05.07v-.06zm-.1.26zm-.05-.11zm-18.22-25.53v-.06h-.25l-.07.07h-.28.42v-.11zm18.48 25.59zm2.3-.62l-.13.06h-.11v.12l.35-.17v-.09zm.16-6.65v-.06h.16-.19v.26l.06.06zm-.51-.24h.08l-.05-.08h-.18v.09zm-.25-.2H207v.21-.1zm.23 7.31h-.07l-.08.1H207v.09l.14-.05h.08v-.08h.06zm.65-6.95h-.05.14-.05zm-4.9-3.78l-.11-.19v-.13l.1.25.06.1.09.11zm1.15.84h-.1l-.12-.05v.07h-.45l-.07-.08-.06-.1v-.06h-.05l.05.16.07.16v.08h.11l.33.13h.16l.1-.12h.09zm-1.44-1.61l-.07-.12.06.08.06.27.06.11v-.25zm-23.83-16.77l-.15.06-.11.06-.49.13h-.28l-.13.07h-.44l-.27.13-.53.15-.38.06h-.09.27l3.15-.79h.15-.66zM210 129.51v.06zm-4.82 5zm-1.67-11.5l-.11-.08h-.17l.09.15.12.15.09.16v.14l.08.09.12.25.08.1h.06v-.1l-.08-.27-.05-.07-.09-.11-.08-.11v-.2zm1.66 11.44zM26.71 86.13l-.13-.08-.08-.05h-.22v.16l.09.14.14.1h.32v-.12zm-1.82-4.42v-.27h-.66l-.23-.01h-.1l.07.09.08.14.07.14v.17l.08.09.1.06h.26L25 82v-.2zm7 4.51l-.4-.22h-.07l-.27-.23h-.23l-.05.07v.08l.1.08.11.06h.08l.12.06v.61h.29l.14.12h.16v-.07l-.2-.44zm-8.19-5h-.05v.1h-.3.07l.11.08.12.05h.28v-.06zm-7.87-22v-.05zm15.32 29.9l-.15-.25-.19-.2-.07-.12-.05-.15v-.27h-.16v.12l.05.15.06.15.05.22.13.27.05.21.09.1.1.09h.46l-.18-.2zm-4.1-7.35h-.13l-.2.13h-.12l-.36-.24h-.35l-.22-.18h-.17.08l.05.05v.15l-.08.12.09.13.17.1h1.33v-.08zm.72.39h-.17.24zm-9.36-23.33v-.06zm10.51 26.43h-.09v.07l.06-.08zM18.6 59.09v.14-.08zm153.59 48.28h-.33l-.42.12h-.07l1-.15h.06zM35.34 120.88v-.06zm-.61 15.74h.05v.07h.3l.09.08v.16h.11v-.05h-.08.15v.05h.53v-.07h-.06l.05-.06.07-.06v-.12h-.2.16-.08v-.21.14h-.21l-.11.07v-.07l-.15.05v.07h-.45v.11h-.2l-.35-.14h-.3v.06l.09.17V136v.13h.07l.27.25v.07zm-1.4 15.29h-.11.1-.06v-.1H33l-.11.05h-.08v.22H33v.08l.07-.09h.11v-.05h-.12zm1.22.2h-.29.3zm-.91 0h-.08.11zm0-.17h.1v-.05l-.15-.09h-.19.13v.05h-.05v.15zm.46.15h-.35.21v.06-.08zm-1.33.05h-.12v.06h.13zm-.82-25.75l.26.25.06.12.05.15-.05-.18-.1-.14zm.73.89v.22-.12zm-2-1.35v.2h.11l.12.07h.57v.1h.18l.15.15v.06l.08.11.07.07v.14h.44l.11.08v.42H33v-.08h.43-.21.84l.08-.1v-.13h.08l-.27-.13h-.09l-.17-.06h.09-.07v-.12h-.19v-.18l-.06-.05h-.56l-.06-.07h-.11v-.15h-.06v-.09h-.33v-.05h-.09l-.07.06h-.4l-.23-.14h.06-.21.05l-.17-.14v-.16.14h-.05v.12zm1 .29l.2.11-.26-.15h-.12zm0-.47zm-.07 0h.07zm1.7 1h.06-.08zm-1 26v-.13.06h-.06v.08-.08.06l.07-.09H32h.31v-.08h.09v-.12h-.06v.13l-.18.13.06-.08h-.07v-.15H32v-.13h-.6l-.05.08H31h.09l.07.14h.18l.1.09h.12-.06l-.06-.06v.21-.27h-.34v.05l.05.05v.05h-.06v.06-.06h-.06v.06h.18-.33v.14h-.11l-.09-.06v.14h-.15v.06l-.08-.05h-.55l-.24.14h.14v.05h.11v-.05h.1l.1.06v-.07h.35l.1-.05h.05V153v.05-.07l.05.1v-.22.17-.07l.09.07v-.09.06l.06.13v.06-.15.05-.09h.41v-.1zm.49-25.18v.09zm-.12 24.94h-.09l-.05.1v-.08h-.05v.17l.05.08h.08v-.1h.09v-.11zm7.32-2.2l-.06-.07zm2.31-.34h-.01zm-.31-.27v-.17h-.11.11v.07zm-1.93.19H40h.07v-.06zm1.85-.12l-.08.05h-.14l.05.07h.14v.08-.27zm-1.53.3h-.11l.07.06h.06v-.05zm1.29.14v-.3.11h-.06l.06-.06v-.18h-.14l-.06.07-.06.08v.32-.09h.06v.05h.12v.07-.08h.06zm.9.15v.06-.27l-.06.07v.09h-.05v.09l-.12-.07v.18h-.05v.07h-.08v.07h-.08.13l-.08.15v.11-.14l.08-.07.06-.09v-.05h.08v-.11.06-.07zm.93.71h-.06v.06h.06zm.06-2.33v-.07zm.87-.05h-.13v.13h.06-.05l.05-.08h.07l.15.09zm-1.12 2.18h.07-.12v.06h.07v.13h-.14.05l.1-.06zm-.29.54v.15-.05zm-7.22-28.3h-.06zm7.28 27.56v-.32.06h-.06v.08h.06H43l-.07-.07v.08-.11.07zm-4.84 1.16h-.17v.11l.06.1h.29v-.08zm-1-1.87h-.13zm-7.61 1.78zm8.83.27l-.07-.05v.06h.07-.05zm-3.72-.11l-.14.06h.13zm2.8-.8v-.16h-.22v-.6L37 150h-.17l-.1-.06h-.29l-.08.08h-.33l-.06.05v.06h-.13l-.06-.07h-.12l-.11.06v.1l-.26.38-.07.06h-.28v.4l.23.07h.4l.05-.08v-.09l.19-.13h.67l.16.08h.32v-.14h.06v.1h.2-.06.13zm.37-.53zm1.84-.42h-.25v-.16l-.06.07v-.05h.06zm-.3.33v.09zm-.84.86zm.75-1v.06-.08zm-.49.16h.02-.16v.18h.05l.07-.1v-.16zm-37.61-5.17l-.17-.05H.66l.13.1.16.06h.18v-.15h.17zm10.44 7.38zm4.31.76h-.08l.18.15v-.13zm-4-.28zm-.62-.47h-.05v.05h.07zm.25 0zm1.49 0h.27v-.06h-.15l-.2-.08-.06-.06v-.07l-.31-.09-.09.05v.07l.11.13v.08h.07v.11h-.2.13v.12h.06v.08h.13v-.06h.05v-.06zm.58-.05h.07zm1.69.75h.07-.2v.3h.06-.07zm.48.21v-.1.14-.11.07-.08H16v.07zM14.3 153v-.05h-.07v.11L14 153h-.62v.12-.05h.29v.07h.1l.07-.06v-.1h.08zm-3.3-.52zm4.22 1.07v-.06h-.3.08V153h-.24v.14l.06.09h-.06v.08l-.12-.06v-.09h.11-.12v.07h-.13v.05l-.05.11h.09l.18-.16v.23h.05v.08-.11h.1l.15-.1h.07v.09h.08zM11.59 152h-.05v.12h.07l.06-.07v-.14zm-7.31-4.73v.08h.11zm-2.19-2.19H2l.11.08v-.05zm8.83 7.92v.15l.07-.06H11v-.13zm35-5.5h-.06zm-38.35 2.66h.09v-.22h-.04v.05zM.68 144.1h.06v.12H1v.06h.21-.07l-.06-.06v-.06h.12-.14L1 144h.08H1v-.07l-.14-.08H.75l-.16-.13H.45l-.09-.07H.05.2l-.08.06h.2-.06v.29h.16v.07h.26zm8.83 6.67v-.07h-.38v.1l.11.07h.11zm1.13 2.4h-.11v.09-.13zm-3.41-2.92h-.06v.14h.06v-.12zm1.19 1.69l-.15-.06v-.16H8.2l-.2-.26v-.18h-.21V151h-.07v-.07h-.06v.17h.09l.09.09v.23l.2.26v.32h.26zm-1.9-2.89h-.08l-.1.1v.08h-.69v.18l.09-.12h.38v-.06zm20.6-16.29v-.13zm-.58 21.13h-.32v.08h.16l.12.08v.05h.05v-.15zm.1-.44h-.1v.07-.13zm2.19-9.13v.06h.26H29l-.19-.09h-.06zm-2.74 9.35l-.09-.07h-.1v.08h.1zm-.2.31l-.05.09h.21zm2.33-11.36h.11v.1h.23-.34v.12zM25 154h-.09l-.13.08-.06.07v.09h.18l.08-.09V154zm4.67-.84v-.12l.09-.06v-.06h-.15l-.05-.1h-.35l-.08.07H29l-.05.07v.12H29v.08h-.09v-.08h-.13l-.05-.05h-.08l-.06.06h-.05v.15l-.08.09v.22h-.18.51v.45h.28l.07-.09h.05v-.12l.05-.06H29h.19l.27-.12h.24zm-1.18.84zm-1-20.33h.21l.06.07H28l-.06-.07-.07-.14h-.13l-.28-.32v-.27h-.14v.14h.06l.22.28v.14l.05.07zm-.24 20.58h.05zm-10.9-.76v-.07h-.07zm-.47-.22h-.08.06zm.62.14l-.06.06h.08zm.42.11zm-.76-.4v-.21h-.17v.17l.06.05h.1zm.2.21h-.08.11zm5.63.71v-.06l-.11.05h-.11l-.05.05-.09.12h.24l.08-.05h.19v-.07h-.05zm1.88.07h-.12v.06l.05.05h.09v-.06zm.18-.08h.05-.06zM17 153zm3.67 1.39h-.34v-.06h-.22v-.12h-.37l-.05.06v-.09h-.24.12l.07.05h.25l.18.06H20h.52l-.22-.09zm-1.53-.61v-.19h.05l.14.05h.07v-.07h.09v-.26h-.17v.07h-.16v.05l.05.05h.05v-.08.08h.06v.05h-.09v-.06h-.09l-.17-.05h-1.05v-.07h-.41l.44.16h.21l.15.09h.06l.06.07h.1v-.09.11h.07v-.1h-.11.21v-.09h.07v.06zm17.37-32.64h.05zm46.9 21.58v-.05l-.1-.11v-.09h-.21l-.06-.08h-.13v.31h.29v-.13zm-30-5.22v.18-.13zm-1.16 2v.07h.13v-.08zm34.62 4.38v-.22h-.07v-.07l-.09-.07v-.83l-.05-.1v-.05l-.09-.07-.11.08h-.33l-.11-.15h-.27l-.24-.15h-.52l-.2-.05-.23-.06-.25-.07h-.16l-.13.08h-.2v-.11l-.06-.07v-.12h-.38v-.46h-.47v-.34l-.17-.18-.13-.13-.19-.15-.2-.15-.17-.17-.18-.18-.27-.27-.19-.18-.3-.23-.27-.34-.39-.29-.17-.18.07-.13L79 137.4l-.28-.23-.63-.16-.15-.13v-.11h-.14v-.18l-.19-.18h-.11l-.2-.11-.07-.14h-.35l-.15-.14v-.11l-.17-.08v-.08l-.07-.25-.17-.12-.1-.06v-.1l-.19-.06-.19-.11-.51.52-.28.15-.12.08v.08h.16v.29l-.12.07h-.09l.13.45-.07.34-.31.11-.49.56-.17.27h-.11v-.22l-.31-.6-.72-.47-.93-.56-.08-.1-.12-.25-.49-.12-.24-.22v-.72l-.77.22-.29.48-.68-.2v.23l-.67-.13-.07-.35-.08-.38-.07-.38-.08-.38-.07-.38-.08-.38-.07-.38-.08-.38-.07-.38-.16-.76-.07-.38-.08-.38-.07-.38-.08-.38-.07-.38-.08-.38-.07-.38-.08-.38-.07-.38-.08-.38-.08-.38-.07-.38-.08-.38-.07-.38-.08-.38-.07-.38-.08-.38-.07-.38-.08-.38-.3-1.51-.07-.38-.15-.76-.08-.37-.15-.76-.07-.38-.08-.38-.07-.37-.08-.38-.15-.76-.07-.37-.08-.38-.07-.38-.15-.75-.08-.38-.07-.37-.15-.76-.15-.75-.07-.37-.21-.28-.07-.38-.08-.37-.07-.38-.08-.37-.07-.38h-.3.09v.05h-.12l-.06-.09-.09-.07h-.24v-.07h-.22v-.05h-.11v-.09h-.05l-.23-.11h-.14v-.12h-.13v.08h-.15v.12h-.19l-.1.07v.09h-.53v-.09l-.11.05h-.06v-.07l-.06-.05h-.06l-.07-.07v.06h-.1l-.15-.06h-3.41v-.07h-.1l-.07.1h-.12v-.1h-.13l-.07-.06-.85-.67h-.35l-.2.2h-.12l-.12.08v-.2h-.48v.1h-.95v-.08h.08-.05.06-.18l-.44.05h-.05.37-.13l-.18-.06V110h.05l.09-.13-.1-.1-.19-.07h-.15v.18h-.05v-.11h-.23v.07h-.78v.09l-.08.11h-.62.06v-.25l-.08-.06v-.15.21-.28.12-.08.18-.08.09h-.05v.28h-.13v.14h-.05v-.22h-.12.3H50v-.31l-.15-.07v-.06.05-.06h-.33v-.06h-.08V108l.06-.07-.07.06h-.08l-.12.12-.19.25-.06.13-.14.21-.3.29-.18.14-.16.06h-.39.08-.34l-.3-.08h-.47v.19-.06l.09-.06h.12v-.08h-.18.2-.34l-.11.13h-.07l-.18.14h.06l.05.08v.17h.37-.18l-.06-.08v.94-.33l-.09.1v-.05l.06-.08v-.07L46 110h.06v-.17h-.16l-.23.21-.23.13-.09.06v.05l.11-.08h.06l-.24.19h-.14l-.14.08h-.7l.1.06h.07-.07.11l-.12-.06-.05.06v.14l-.08.06v.08h-.09v.19l-.08.08-.05.06-.17.15v.11h-.15v.41l-.1.13.12-.23-.1.22-.39.46-.21.15h-.06l-.06.06h-.12l-.09.06h-.61l-.25.05h-.6l-.14-.07h-.19l-.06-.06h-.13v.83h-.08l-.11.09h-.19l.22-.07h.07-.16l-.23.09h.15l.31.18.07.11.09.08v.14l.05.09.15.11.14.07.16.11.18.2.14.19.16.25.05.08.07.15.06.07.06.12.26.28.09.16.06.19.08.39v1.81l.26.09.27.09.06.07.19.1h.35l.09-.1.13-.18v-.06.11l-.06.12h.08v-.11.13l.28-.06h.22v.05h.08v.06h-.2v.35l.2.27h.19v.77h.38l.11.14h.2v-.07h-.08v.06l.07.12v.34h-.58l-.19-.2v-.1h-.08v-.08l-.06.06h-.24l-.23-.23v-.07l-.06-.18v-.24l.05-.09h-.06l-.08-.17-.05-.19v-.1h-.09v.38h.18v.07l.07.17.13.19v.32l-.06.11v.16-.11h.33l.09.07h.13l.12.08v.72h-.92.07v-.18.02h-.13l-.05-.09h-.15v.15l-.1.12h.06l.06.05H43l-.27-.12-.12.06h-.28v.06-.15H41.1L41 121v-.34h-.17.29v-.31l.1-.07v-.15H41l.29.08v-.06h-.06l-.26-.06h-.79v.06l-.2.11v.06h-.06V120h-.39l-.33.15-.09.08v.06h.14l.09.09h.07l-.29.08-.35-.12-.06-.08h-.38l-.23.11-.06.07h-.06l.09.09h-.11l-.1.07h-.1v-.06h-.06l-.22.14h-.08v.06h-.45v-.06h.06-.1l-.06.05h-.17v.15h.1l.26.27v.09l.19.14.18.06.37.2.1.06h.1l-.07-.06h-.09l.34.13.11.09h.05l.07.08h.12l.1.07v.15h-.51l-.19-.1h-.08v.12h-.2l-.08-.07h-.06v-.15h.06v.4l.09.06v.14l.09.08v.08l.06.09-.06-.11v-.05.28h-.09v.18l.06.16.18.17.2.08.13.08.47.18.43.25h.23-.14.23-.09.12l.38-.18.08.06h-.14l.47.07h.33l.16.08.13.12v.21-.12h.06v-.06h.17v-.07H41l-.06-.08.15-.09h.08v.21h.1v.33l.12-.06v-.17l.06-.06.24-.11.05-.08h.08l.1.06h.07-.08v.05l.07-.07.21-.08-.05-.06h.3v-.09h.1v-.06h.19l.1.16v.06h.05v.39l-.11.08h-.15.07v.05h-.07l-.28-.09v.24h.93-.06.05l.06.11.07.09v.54l.1.39v.42l-.05.08h-.06l-.08.12v.06l-.17.17h-1.28v.12h-.05l-.24.31-.14.11H41v.09h-.6v-.09l-.05-.08h-.06L40 129l-.14.06-.06.07v-.09l.2-.04.06-.08h.05-.06v-.14h-.09l-.18-.12-.17-.05-.28.05h-.07l-.1.09h-.08v.06l.16.07v.12h-.16l-.1.15v.2h.08-.08v.28h.06l.11-.1h.06l.06-.07h.05l-.33.31-.12.05h-.06v.07l-.07.07h.08v.05h.06v.07h-.09v.07h-.39v-.05h-.19v-.12h-.26l-.08.09-.12.09v.07l-.15.14-.24.3h-.06v.08l-.06.13v.4h-.55v.25h.24-.41l.05-.15v.43h.3v.15h-.15v.18h.16l.06.06v.39h.09v-.14l.05-.07v-.13h.23v-.12h-.06.07v.87-.09h.22l.09-.1v-.06.05h-.09v.09h-.47v.09h-.12.05v.18h-.11l-.05.05.15.15h.09v-.13l.09.12h-.06v.08l.05.05h.07v-.1h.27-.16v.13h-.18l-.12.07v.11h.15l.08-.06h.1v.08h.11v.13h.79l.06-.06v-.06H39v-.05h.09l.18.06v.08H39v-.05h-.12l-.11.06h.09l.39.18.13.14h-.08v.15l-.05.05-.26.17h-.18v-.15.64h-.23v.1h-.17l-.08.08-.07.08v-.06h.08l.14-.06v-.3h-.34v-.05h-.26v-.09l.07-.07h-.21l-.06.06v-.11.19l-.07.07h-.13v.09h-.08l-.06.05h-.24v.1l.18.07.21-.05v.19h-.1v.26l.22.12h.05l.1-.07v.16h.06l.06.09v.2l.18.12.06.07h.05-.12v.31l.28.13.34.05h.72l.39-.17h.09v-.1l.06.05h.23v-.22l.05-.05v-.05l-.11-.1-.12-.06h-.06.17v-.2.17l.1-.14v-.05H41v-.11l-.06-.09v.13l.15-.07H41v.06h-.12l-.11.09v.38l-.1.15-.08.06v.05l.06.09v.26-.06h-.05v.51h.06v.15l.09.2.08.25v.21l.16.36v.18h-.06v.32l.06-.08v.59h.34v.06l-.12.06v.05H41v.89-.06l-.07.08h-.1v.12h-.38v.08h.43v-.08h.48-.08v-.1l.07-.08h.15v-.06h.14v-.06h.17v.12l.14-.2H42l.45-.31h.13v.13h-.05v.06H43v.11h.08v.11h.07v.18h.07v-.22h.19v.25l.09.14.13.26.11.24.06.18v.08h.05v.09h.06v.05h.05l.2.06h.11v-.18l-.11-.38V141h.07-.06.09v-.16l.05-.25v-.13h.11-.06v.06h.06l.06-.05v-.2h.06v-.07l-.08-.1v-.1.07h.17l.1.07h.13l.05.06.06.12v.13h.06v-.22l-.28-.09h-.08v.29l.18.09v.27l.06.06h.15l.25-.08.22-.14.3-.13h.08l.11-.07h.26l.17-.09h.07v-.16h.08v-.24l.1-.09v.34h-.06v.22l-.1.16v.14h.17-.14l-.19.17-.13.19h-.07l-.06.12-.1.26v.24l.06.07h.08l.22.1v.07h-.42v1.5l-.05.15v.51h.12v.29h.07l.14.05v-.11h.07-.07v.05h-.21v-.15h-.06l-.13.11h-.1l-.06.09-.09.08h.05-.18l-.15.09-.46.54-.07.11-.05.09v.65h-.22v-.13.11l.06-.06.1-.05-.09.05-.07.07-.08.06-.07.08h-.13l-.1.11h.06-.12l-.2.11h-.13l.12-.06-.4.14-.16.09-.13.13-.14.1-.26.13-.08.12-.21.15v.08l-.05.12v.16l-.07.07v.07l-.06.08v.14l.28.21h.07-.12v.07h.05-.19v-.12h-.37v.3-.12.1-.07l-.12-.21v-.14h-.08v-.06H42v-.16h-1v.45h-.29.26l-.31.07h-.64l-.12.09-.22.12h-.06l-.07.07h-.12l-.56.57v.15h-.06l-.11.1h-.25v.06l-.07.07h-.3l-.21.15-.3.12v.46h.08-.15v.07h.14l.06-.07.06-.05h.12-.09v-.21.13-.1h.07-.05.05v.1h.07-.09v.16h.19l.05-.07v-.05.08h-.07v.1-.4h-.07v-.15h.09-.05.07v.22l.06.1.08.07h-.16v.11h.15v-.05.12H39v-.19l.07-.07h.22v-.07l-.06-.06v-.12h.14-.06.06v-.06l.1-.12.18-.19v-.27l.1-.08v-.06h.28l.06.07h.07v.06l.12.05-.16-.05V149l-.05.08-.05.07v.31l.18-.05v.06l.33-.11h.07l.07-.08v-.08l.06-.07h.08v.05h.15v-.12h-.1.08v-.05.32H41v-.12l.07-.05-.08-.07h.37v-.17.06h.06v-.17.08h.1v-.12h.25v.05l-.05.09v.09l-.09.05h.05-.09 1.55V149h.05v-.28h.11v.26-.11.05-.05h.7v.05h.12l.07-.16.05-.08v.05h.09v-.08h-.08.1v-.7h-.06.51v.06h.08l-.09.05v-.1.06-.1h.08v.06-.14.16h.18-.14.06-.14l-.06.05v-.11l-.12.09v.13h-.12v-.12h.11v-.06l.06-.05.09-.06h.29v-.06h.09l.16.09h.08v-.15h-.15l-.17.07h-.08v-.09h.14l.06-.07h.14v.11h.21-.08v-.11h.07v-.09h-.05v-.07l.08.11h.11v-.06l.08.06.05-.11h.13v-.11H46l.06.13v-.22h.08v.06h.17l-.11-.15.05.05h.08v-.12h.13v-.06h-.05.09V145h-.07l-.21.09v-.14H48l.2-.19h.1v-.09h.06l.08.07.07.05.06-.06v-.12h.1v-.05l.06.07h.08v.08h.08v-.14h.23v-.24h.26v-.17h.14v-.06h.22v-.05l-.06-.11v-.08h.34v-.09.08h.07V143l-.07-.08.11.1v-.3.18-.15l.08.08-.07-.07v-.06h-.09.14l-.06-.09h-.1v.05h-.07v-.05h1.44v-.19h.18v-.14h.36v-.08h.07l.12-.1v-.28h.07-.12.09v-.06l-.05-.09h-.21v-.05h-.5v-.17h-.06.07v-.05h.07v-1.58l.11-.1.1-.05h-.2v.07h-.17.4l-.06-.08h-.05.28v-.07h-.13.23v-.11.08h.06v-.23l.09.14h.06l-.05.13h.11v-.06.09h.08v-.28h-.23.56v-.1l.06-.07v-.07l-.09-.09h-.24v-.11h-.05.19v.15h.68l.08-.1h.07v-2.03l.16-.1h-.07v-.19l.1-.15h.08v-.18l.06-.06v-.06h.06l.09.07-.11-.23v-.1l.06-.08.05-.06v-.08h.36l.09-.05V135l.08-.18h.08l.2-.11.05-.07v-.2.28h.63v-.3h.06v-.08l.13-.1.28-.09h1.58L57 134v.09h-.06l-.06.13v.2l.21.15h.1l.07.07.22.12h.17l.14.09.14-.07h.15l.07.08v.11l-.45-.06h-.42l-.09.08h-.06l-.08.06h-.24v-.17h-.16l-.18.16-.2.15-.32.32h-.32v.31l.05.06v.45h-.06v.49l-.31.4v.1l-.12.36v.25l.06.09.07.06.43.18v-.05H55l.22-.2h.07l.06-.07h.11l-.11.11v.12h-.11v.1h-.31v.06l.07.05h-.43l.06.05h-.11v.09h.09v.05h.1v1.49h.39-.06l.11-.07h.23v-.07h-.05l-.07-.05h-.06.27v.14-.15h.07l.08-.08v-.06h.44v-.06h.05l.11-.1v.05l-.05.09v.05h.06v.05-.29l.09-.25v-.05.23-.44.1h.06v-.07h.08v-.11h.05v-.16.07l.06-.07v-.13h-.06v-.05l-.09-.06v-.06h.13l.06.08h.05v.08-.32l-.07-.09v-.29.29h.06l-.05.06h.09v-.06h-.06v-.25h.08v-.44.24h.06v.31-.14l.07-.1-.07.1v.06h.14v.07l.07-.06h.09l.1-.1v-.13.11-.09h-.06v-.36.07h.08l.06-.15V137v.13-.15L59 137h.05l-.07.1h-.05v-.16.05h.05v-.19H59v-.08.05h.1l-.06-.08h.06v-.06.05-.08h-.05v-.09.24-.13.17-.11h-.06v-.06h-.33l-.05.05v.07l-.07.06v.08l.07-.09.09-.09v-.06h.07L59 136v-.29.32-.24h-.17v.1h-.07v-.06h.12-.08l.14-.11h.27l-.07-.07h.05v-.54h-.13v.05l-.07.11h-.05.19v-.21l.06-.13v-.24.1-.05.12l-.05.06v.24l.11.08v.07h.1-.05v-.06l.05-.06v.23h.1V135h.15v-.32h.07v.39-.16.1l-.06.16v.07-.26.14h.05v-.1h.07v.21h.07v-.13l.12-.1.05-.07v-.08h.36l.06.06v.05h-.46H61h-.07v.17H61h-.11v.05H61v.13h.06l.16-.09h.06v-.14l.18.11h-.13v.05h.05-.08l-.1.07h-.17v.1l.05.05h.18v-.1.09h.08v-.07h.06l.06-.05v-.05.05l-.13.15.19-.12v.06h.07v-.08.06l.19-.12v-.05.07l-.1.19-.08.1h.8l.08-.14h.06v-.24l.07-.07v-.15h.07v-.14h.08v.09h-.13v.28-.06.09l-.05.08h-.07v.15h.19l.05.07v.06h-.06.08v.05h.22v.05h.06l.23.14v.06H63h.27l.18.06h.07l.14-.09.17-.09h.19l.34-.09.27-.12.23-.09h2.56l.23.08h.15l.17-.14h.07v-.08h.08v.08h.06v.2l-.06.07v.05h.21l.23.06h.15l.21.07h.73l.09-.05.13-.11.11-.1.1-.09.12-.09v-.11l.06-.13v-.34.06h.07l.14.13h.25l.11.07h.07l-.06-.06h-.29v.4l-.08-.05v-.06l-.06-.08v-.29l-.12-.15-.1-.07v.38l.11.08v.25l-.06.06V137h-.09l.39.16h.23-.17.14v-.06.07h.09l.06.05h-.07l.32.05.22.07h.79l.13-.06v.07h-.14.54l.33.21.07.07.05.1v.13h.06l.27.15.09-.08H74v.07h-.07.21l.18.1h.15l.12.09h.2v-.12h.12v-.12l-.15-.12h.27v-.06h.47v.06h-.06v-.08h.18v-.08l.11.11v.08l.11-.06.16 1.2v-.08l-.07-.12v-.06h-.09v-.11l-.16-.08v.11h-.05v.12h-.06l.06-.1v-.12h-.16v.11h-.16L75 138v.05h.1l-.09-.06h-.14v.01h-.41v.08-.21h.13-.07l-.07-.07v-.08l.11.06h.37v-.05l-.21-.26.07.08.12.11v-.12.18l.05.1v.06h.22-.09l.18.07h.09l.05-.06v-.25l-.09.05v-.14.12l.07-.11h.19l-.2.12-.11.13.06.08v.06l.11.16h.1l-.08.07v.1h-.09.07v.22l.26-.15h.15v-.11.06l.06.06v.08l.06.1.06.07h.28v-.24l-.13-.22-.06-.05v-.06l-.1-.1v-.05l-.13-.15v-.11l-.14-.14-.07-.1v-.1h-.07v-.42h-.06v-.07l-.09-.06h.14l.06.05v.08h.07v-.19h-.07l-.06-.07h-.08.12v-.42.54l.07.06.06.06.09.13v.51h.07l.11.13v-.2.34l.08.07.08.11h.1v.19h.12l.35.19h.1v-.53l.16-.05-.13.06v.7h2.3l.07-.08v-.18l.07-.06v.19h.09v.17h.07l.13.11.07.08v-.45l.49-.06h.09-.56v.07l.08.24v.07h.42l.06.06h.12-.06l-.08-.06h-.08l-.38-.1h.2-.16v.2L80 140h.28v.05l-.11.06v.24l.07.07h.06v.07h-.06v.05h.34v-.09.05h-.08l-.08.1-.26.07v.13h.25l.08.05v-.15h.06v-.07.37h.27v-.17.05l.1.13v.07h-.06v.05l.1.05.16.07.23.05v-.13.3h.1-.07v.1h.08l.09-.08v.51h.23v.06l.08.11h.22v.11l.12.13h.06l.26-.07h.12l.06-.07v.08h-.34l-.1.07-.07.07.08.22.08.15h-.07v.19h.06-.09v.2h-.07l.11.2v.06h.31v-.11h-.06l.23.11v-.07.56-.07l-.08-.06H84v-.24h-.19.19v-.05l.06-.14v-.11l.11-.11v-.16l.06-.07v.14l-.1.15v.1h.06l.11.06.1.1h.07v.06h.07v.08l.06.06.08.17.06.21.12.26v.07l.15-.08v-.09h.08l-.35.13h-.06v.33h.05l.1-.09v-.08.07H86v-.26l.06-.07v-.32.32l-.07.17v.26h-.06l-.05.07-.06.05v.36l.1.05h.06v-.31l-.06-.16v.06h.06v-.2.08l.1-.14v-.12l.06-.06v-.95zm-1.29 1.61h-.06v-.07l-.07.13-.07.06h.23v-.07zm-.32-.14v-.29h-.22V145h-.07v.28H85v-.15.07l.09-.05zM55 138.92zm-17.23 10.29v-.1zm3.49-1.21h.06-.07zm.16 0zm.32-6.76H42v-.27l.1-.15v-.06l-.3.16h-.19v.1-.06.26zm.95-.21v.08zm.19.09v-.18.06zM38 149.61l.06-.06-.11.13zm3.33-1.34h-.07.2v-.11.06zm43.45-3.54v-.21l-.07-.07v-.15.35-.41l-.13-.2v-.14l.06.12.08.09v.43h.35v-.15.22l-.05.11h.21v-1.15l-.12-.08v-.07l-.41-.42h-.18v.11h-.22v.07h-.08.11v.05l-.29.08v.05h.09v-.07l-.16.07v.08-.08h.07l.06-.05h-.07v.05h.17v.1h.11v.23l-.09.15.1.05h.19l.08.05zm-46.32 4.55h-.12l-.1.06.28-.12zm43.05-4.59h.13v-.21h.11l.06-.08v.06l-.17.05h-.13v.1h-.06v.07l.08.06zm.23-.46h.07v.05-.29.07h.07-.05zm0 1h.17v-.08h-.08v.11zm-.43-1.2v-.05h.05v-.48h-.24v.05h.12v.05h-.1l-.09.06v.07l-.07.19v.11h.14v-.06zm.37 1.16v-.05h-.15l-.06.05v.09-.05h.06v-.08zm.57-3.26h-.3l-.12-.07h-.13v.11l.07.06v.14l.08.08v.08l.06.14h.18l-.09-.27h.06zm-1.31 2.26l-.05.06h.07v-.15zm3.57.49l-.24-.12v.25l.14.24h.12v-.12l-.07-.06h.06v-.24zm-2.55.71h-.16v.1h.06v.26-.26h.09zm1.69 1.12h.06v-.06.12h.18v-.06zm1-.1v-.23h-.1v-.36h-.06v.19h-.45l.07-.06v-.11h-.05v-.24.14h-.1v.06-.1h.1v-.05h-.09l-.07-.07-.1.06h-.06v.07h.08v-.06h-.21v.05l-.08.06v.07-.07l.08-.07v-.17h-.09v-.08h.06l.13.11h.45l-.11-.06h-.07l-.11-.13v-.06.1-.11l-.11-.1h-.3v.08H82l-.11-.1v-.22h-.13V143h-.13v.1-.05l-.13.05h-.33v.18h.33v.19h.06v.32h.08v.35h-.11v.25h.24l.17-.16h.07-.07v.82h.41l-.2.09h-.24v.11h.07v.06h.24l-.07.11h-.06.18v-.1H83v.11h.23v-.16h.05v.3-.13h.08v.09h.1-.1.08v.1h.06v-.16.53-.14.14h.06v.06h.22l-.06.07h.06v.09-.09h.34zm-1.65-.68v.11h.1v.1h.1v-.06l.07-.13-.14-.19h-.1v.07zm.62 1h-.07l-.06-.06h-.09v-.06h-.07v-.23h-.68v-.06h.13l-.08-.06v-.07h-.12v-.08h-.07v-.06h.06l-.07.07h.07-.07.14-.14l.1.07v.05h.4v.07h.05v.07l.18.07h.12-.06zM82 145.19V145h-.1v.07h.05l.08.09zm.34.43h-.11v.06-.14h-.13.06H82v.1h.13v-.14zm-26.03-10.81v-.06zm-16.64-15h.44l-.63.18h.07zm-.16 0zm-.06 0h-.09.05zm-.12 0h.08zm-.19.07h.08l-.23.06zm-.58.28h.06zm.22-.08l.06-.05h.07-.06l-.12.06zm4.13-8.08v-.23.45-.21zm.09 28.66zM62.79 111H63l.13.1h.06l-.11-.08-.29-.11zm-18.4-.77l.25.07-.3-.11h-.05l.07-.06zm-.9.79v-.08l.08-.09v.12l-.09.12.08-.07zm.22-.35l.16-.15.18-.11-.14.06-.19.15-.07.14zm-.6.82v-.08l.14-.16.05-.08-.18.18v.13l-.11.25v-.07zm-5.21 9h.42-.15l-.52.23h.08zM55.83 110l.17.12h.09l-.07-.07H56l-.23-.14zm-19.07 21.11v.05h.06v-.1zm-.13.44v.07-.25zm1.54-1.68zm5.52 16.55zm-.39-5.12v.08zm.46 5.1zm-5.47-16.53v-.06zm.07 0v-.07zm-.08.13zm8.83 17h-.29.32v.05zm-8.25-18.18h.05zm2.54-1.11h-.08l-.06.09h.27v-.1l-.05-.06h-.09zm-2.55 1zm-.64 1.29zm-1-9.21h.16l.16-.09-.45.23zm-.63.34l.08-.07h.09-.12v.11zm17 20.38h-.12v.07h-.1v.07l.14.08h.06v-.06l.12-.14v-.19h-.06zM82.34 143v.2l.07.08v-.07h.16v.23h.49v-.09.05h.06v-.4l-.11-.06h-.15v.08h-.09.06v-.24l-.12.07v.3zm-29.17-.48v-.06H53h.08zm1.35 0h-.06v.21-.13zm-.46-5.57L54 137l.09-.07v-.1H54v.35zm.26 5.43v-.05.12-.08.2-.36l-.05.09h-.07v-.05.18-.08h-.06v-.07h-.06v-.06h-.11V142v.12h-.05v.06h-.13l.11.07v.16-.08h-1.04l-.07.08v.06l.14.1h-.12v-.05l-.19-.05-.06.09.06.1h.17v.05l.12.08.17.06v-.17.32-.21.21-.11h.12v-.26.17l.09.05v.05l.08-.07v-.2zm-.56-1.59H54h-.21v.09zm.37 0zm2.34-1.53h-.1v.09h.08v-.11zm2.86-3.41h.08v-.05.06l.07.11zm.24 1h-.06v.06h.08l-.05.12v.05-.21l.05-.12v-.2l.06-.06v-.15.06h-.07v-.15.26h-.08.06v.07zm-.19.51v.19l.07-.1h.16v-.09.07zm-.19.21v-.33.17-.06l-.16.13h.12-.07.14H59h.08l.11-.05zm0-2v-.28l-.09-.05h-.07v.21h.15zm-.25.26v.06-.09h-.08zm-7.53 11.37h.21v-.05h-.21zm2.17-3.68h.19-.11v-.06h-.05zM50.9 147h-.11l-.25.18v.06l-.06.1v.18h.05v-.05h.05l.08-.11.08-.05V147h.06l.05.05v.09h.06V147zm.48.08v.05h-.24L51 147v.17h.28zm-.05-.39h.11v-.06h-.05zM47.4 148v-.07.07zm.14.42v.06zm.7-3.48zm.87 3.84v.1l-.07.05v.05h.13v-.31zm3.26-5.61h.17v-.07.1h.07l.08.05.08.05H53l-.15-.09h-.07v-.06h-.07v-.07l-.13.17zm-.12.21l.18.15h.18v-.2l-.07-.06-.15-.1zm1 0h-.11v.06h.06v-.05zm5.95-6.69l-.06.09v.08-.18h-.05zm-6.15 8.84h-.11l-.08.08v-.17.05l-.05.08v.06h.29v-.19h.17v-.05zm-1.34-1v.23-.2zm2.1-.31l-.11.05v-.11l-.07.07v-.31l.05-.05.14-.09v-.16h-.08v.13h-.05v.07h-.05v.18-.25h.12-.17v.05h-.17l-.09-.08h-.1v.06l.05.05h.06l.06.1-.1-.08-.06-.07v.45-.19h-.17l-.1-.08v.05h.05v-.05h.07-.07v.21-.64h-.12v.05h-.06l-.07.09v.33h.25l.1.09H52v-.08l-.21-.05h-.05v.05l.17.18H52h-.12v.09l.05.09v.43H52l-.17-.09-.06-.14v-.34h-.25.16v-.25h-.21l-.07.07h.06-.16v.12-.06h-.05v.05l-.06.07v.21h.15v.07l.06.11v.48h.08l.08.1v.12-.13.07-.06h.08v-.38h-.21v.07h-.07v-.11h.67l-.18.14v.13-.05l.06-.11v-.07l.16-.15h.06-.14V146h.11v-.08.06l.07-.08v.07l-.11.1h-.12v.06l-.1.06-.09.17v.08h.14l.05-.07H52v-.08h.18v-.05h-.08v-.13L52 146v.1h.07v-.07h-.14.08-.22.36v-.23h-.05.08v.13-.08h.19l.15-.09v-.05h-.17V145v.07h.22v.05h.15v.07-.11l-.13-.05-.11-.12-.23.06v.06h.14-.07.19v-.07h.28v-.2l.1-.16h-.28zM56 139.4v.15l.06-.13v-.05zm19.91.7v-.1l-.13-.07v-.05.12h.06v.26h.07v.06-.26zM64.15 137v-.08.08zm13.14 4.32v-.05h.08-.05.06v-.32h.07-.26.07-.11.07l.23.08.07.05h.16l.22.07.24.11.21.08h.23v-.13l-.09-.11v-.21H78v.05h-.34v-.05l-.08-.07h-.54.06l.25.09h.39l.27.11h.08l.26-.08h-.14v-.05h.19l.17.09v-.13l-.07-.13h-.62l-.09.09v.14h-.06v-.05h-.19.15-.07l-.08.06h.19v-.29h-.93l-.09-.08-.11.15v.12l-.16-.08h-.09v.16h.07-.09v-.09h-.13l.07.07h-.47v.07l.14.07.06.06.08.06.15.13.15.07-.18-.09L76 140v.42-.12l.2.11v.07h.06v-.07h.11l.07.07.34.14.06.05v.07l-.1-.07h-.15.65zm-13.92-4.84h-.17.12zm-3.95 1l-.06.07h-.1.05-.05.12l.1-.17zm18.5 1.27l-.07-.09v-.05h-.06v.13l.07.15v.05h.07v.13h.08v.05l.07.09V139v.18l.09.14v.39l.05.05v.18h.06l.07.1v-.07l.14-.1-.06.07h-.07l.07.06.06.06H79l.1-.06h.05-.27.12-.08v.05H79v.07h-.15v.05h.06l.07.1v.16-.07h.07v-.14h-.06v-.05h.13v.83-.06l-.06-.05v-.06l-.08-.08v-.07l.12.05v-.17.05-.1h-.19.08-.07.2l-.09-.05-.06-.09v-.15h-.07l-.32-.3h-.07v.1-.29h.07v-.06h-.14.17l.06.05h.06v.06h-.07l.09.05v.05l.07.14h.07l.05.1v.07l.16.09v-.05l-.11-.09v-.2h-.06l-.06-.06-.07-.07-.08-.15v-.05l-.1-.06v-.07l-.15-.1v-.12l-.18.11h-.44v-.09zm-14.4-2.23h-.09.13-.06zm17 7.91l-.06.06v-.06h-.08.09l-.07.06h.06v-.17l.05-.07v-.06zm.51-1.61l.1-.08h.26v-.14h.08v-.07h-.14v-.22l-.07-.08.1.05v.09l.16.12h.11v-.18l-.06-.07v-.14l-.06-.09h-.09l-.18.06h-.09v.05l.08.06h-.79v.08h-.08v.08l.22.1.1.07h.16-.19.15v.33h.06l.06.24h.07zm-.34 1v-.06h.07l-.06-.12v-.14l.07.07.06.05v-.15h-.33V143h.07-.08v-.12h-.09.16v.06-.08l-.06-.07h-.06v-.21h-.09v.31h-.06.06v-.39h-.75.18v.05h-.12l-.07-.06h-.11v.12l-.06-.06v.26l.06.06h.06v-.06.09l.09-.1v.05H80h-.05l-.08.14v-.16.24-.11H80v.09h.06l.06-.06v.11h-.05v.13h.06v.06h.07v-.1h-.09l-.07-.08h.07l-.06-.12v-.19.38h.06v-.1zm1.64-1.28h-.09l-.07.05h-.18v.21h.08l.23.12h.07l.11-.08v-.13l-.07-.08v-.06zm-4.67-.63h-.05.09l-.06-.06-.18-.07h-.14v.2-.05.17h.09v-.1.4l.18-.07v-.36zm-14.54-5.34zM78 138.65h.54v-.06l-.17-.09-.12-.08h-.18zm1.57 5.22v-.13.05-.48l-.1-.11v-.22l-.12-.33v-.08l-.09-.08v-.4h-.06V142h-.07v-.08h-.08.13l-.16-.11h-.11L78 141v-.05h-.12v.06-.07l.09-.08v-.06l-.08-.05h-.16v.21h.15-.53.05l.11.05.08.1h.17v.21-.06H78h-.06v.15l.06.59h.19v.11h.06v.17h.08l.1-.14h.07v.31l.08-.2v-.05h.06v.05l-.07.1v.71-.23.17-.17.3h-.07v.07l.12.11v.21h.06v.1-.11zM64.26 137l-.06.08v.06l-.07.14v.17l.14-.22v-.07l.16-.18zm-1.26-.67v-.28l-.06.08-.13.13H63zm-2.86.38l-.09.08v.07l.12-.1v-.07zm.56-1.66zm-1.12 2.43v-.12l-.06.11-.08.1v.06h.07v-.11zm.29-1.69v.08h.14v-.13zm1.88 3v.09-.06zm-1.24-2.08l.09-.13h-.15v.13h-.06v.28l-.11.12-.18.15h-.07v.06h.07v.12h.06l.11-.05h.06v-.12h.11v-.11h.08v-.11l.05-.12.11-.17.26-.3v-.17zm-.34-1.63h.18v.05zm2.39 1.33h-.06.08zm.31.11h-.07.05zm-.64-.21zm-.1 0zm-.13-.45l.1-.11v.07h-.32l-.11.06h-.21v.12l.25-.09.06-.06h.06l.06-.05zm0 .41zm-.41 0h.06-.11l-.1.07h-.06v-.16h-.25v.28h.11v-.05h.13l-.2.17v.05l.06-.12.2-.15h.25z" id="Layer_1-2" data-name="Layer 1"/></g></svg>