<?xml version="1.0" standalone="no"?>
<!DOCTYPE svg PUBLIC "-//W3C//DTD SVG 20010904//EN"
 "http://www.w3.org/TR/2001/REC-SVG-20010904/DTD/svg10.dtd">
<svg version="1.0" xmlns="http://www.w3.org/2000/svg"
 width="700.000000pt" height="700.000000pt" viewBox="0 0 700.000000 700.000000"
 preserveAspectRatio="xMidYMid meet">
<metadata>
Created by potrace 1.11, written by Peter Selinger 2001-2013
</metadata>
<g transform="translate(0.000000,700.000000) scale(0.100000,-0.100000)"
fill="#000000" stroke="none">
<path d="M1939 6791 c-26 -10 -62 -31 -82 -46 -19 -16 -41 -30 -49 -31 -7 -1
-27 -6 -44 -9 -26 -6 -32 -4 -37 14 -3 14 -10 19 -21 15 -20 -8 -20 -18 1 -39
9 -10 42 -67 73 -129 43 -86 55 -120 53 -151 -3 -72 -20 -110 -69 -158 -39
-37 -62 -43 -29 -7 17 19 25 73 13 85 -3 3 -21 8 -40 11 -48 8 -70 -15 -66
-71 2 -24 6 -41 11 -38 4 2 7 -3 7 -11 0 -9 -3 -16 -6 -16 -13 0 -69 54 -108
103 -22 29 -44 55 -49 58 -4 3 -5 18 -1 32 8 34 -13 37 -25 5 -6 -16 -5 -30 5
-45 8 -12 14 -27 14 -33 0 -14 -60 -50 -85 -50 -29 0 -70 -24 -67 -39 1 -7 -5
-11 -15 -9 -27 4 -43 -10 -43 -40 -1 -24 -2 -25 -11 -8 -18 29 -14 134 6 165
5 10 4 12 -3 7 -7 -4 -12 0 -13 11 0 14 -2 15 -6 3 -3 -8 -11 -21 -17 -29 -24
-31 -23 -227 2 -279 5 -9 8 -24 7 -32 -1 -8 5 -28 13 -44 11 -24 12 -30 1 -37
-10 -6 -7 -10 11 -17 22 -8 22 -9 3 -14 -14 -4 -22 -17 -27 -44 -12 -64 -76
-246 -100 -281 -20 -29 -22 -42 -19 -127 2 -57 -1 -97 -7 -101 -5 -3 -10 -14
-10 -24 0 -10 -9 -26 -19 -35 -22 -20 -20 -44 4 -78 12 -18 14 -36 9 -80 -6
-50 -3 -62 20 -103 15 -25 26 -51 23 -58 -2 -7 3 -17 12 -23 8 -6 17 -33 20
-60 l6 -49 2215 -1 c1218 -1 2208 1 2200 4 -8 2 -23 14 -34 24 -14 15 -16 22
-6 28 9 5 9 9 1 14 -6 4 -11 17 -11 30 0 14 -9 28 -22 35 -23 11 -23 11 2 5
21 -5 23 -4 12 7 -14 15 -94 20 -85 5 4 -5 1 -6 -8 0 -8 5 -264 10 -584 10
-313 1 -576 2 -582 3 -9 1 -13 23 -13 74 l0 73 691 -1 c379 0 699 3 710 7 11
4 18 12 14 17 -3 5 -1 12 5 16 5 3 10 28 10 56 0 38 -4 49 -16 49 -8 0 -12 5
-9 10 4 7 -117 10 -369 10 -322 -1 -376 -3 -376 -15 0 -19 -9 -19 -31 1 -18
16 -55 12 -45 -5 7 -11 -14 -20 -31 -14 -7 2 -9 11 -6 19 4 12 -17 14 -135 14
l-140 0 -12 -31 c-15 -35 -53 -64 -74 -56 -21 8 -44 57 -50 103 -2 21 -7 46
-11 55 -9 24 22 200 44 250 11 24 20 38 20 31 1 -7 6 -10 11 -7 6 4 9 14 6 23
-6 21 16 51 40 56 11 3 31 9 45 14 35 14 70 -7 51 -31 -7 -8 -10 -22 -6 -31 4
-11 1 -16 -11 -16 -12 0 -16 -6 -12 -19 2 -10 1 -25 -4 -32 -6 -10 -9 -7 -9
11 -1 24 -1 24 -15 6 -7 -10 -18 -15 -23 -12 -6 3 -8 -2 -5 -14 3 -11 1 -20
-4 -20 -9 0 -10 -5 -15 -90 l-3 -45 183 -2 183 -2 -7 22 c-14 46 -23 65 -33
72 -14 8 -51 -3 -51 -16 0 -16 -29 -41 -40 -34 -15 9 -12 35 4 41 26 10 36 84
15 111 -6 7 -6 12 0 15 21 7 -6 26 -64 45 -61 20 -86 49 -43 50 61 1 78 4 78
12 0 5 -9 7 -19 4 -11 -3 -28 0 -38 6 -10 6 -13 11 -6 11 7 0 10 7 7 15 -4 10
-11 12 -21 6 -20 -11 -55 -2 -69 17 -8 11 -13 12 -18 4 -4 -7 -20 -12 -35 -12
-15 0 -36 -7 -47 -15 -20 -15 -45 -20 -42 -7 1 4 -4 35 -12 70 -12 53 -17 61
-33 56 -16 -5 -18 -2 -12 18 7 24 28 52 25 33 -5 -21 0 -36 10 -30 15 9 12 19
-10 45 -11 13 -20 30 -20 39 0 12 -3 12 -12 3 -23 -23 -26 -12 -7 25 21 41 16
54 -30 73 -34 14 -70 0 -73 -28 -5 -57 -4 -72 3 -72 5 0 9 -7 9 -15 0 -8 -3
-15 -7 -15 -13 0 -77 62 -108 105 -16 22 -34 43 -39 47 -6 4 -9 21 -8 38 3 24
0 29 -12 24 -20 -8 -20 -40 -2 -76 14 -26 13 -29 -7 -43 -12 -8 -24 -15 -27
-15 -3 0 -5 26 -4 58 1 65 -2 78 -21 85 -9 4 -11 -2 -5 -27 7 -31 4 -75 -5
-85 -3 -2 -5 4 -5 15 0 14 -17 27 -60 46 -57 27 -59 29 -54 58 4 20 2 30 -5
30 -7 0 -11 -6 -9 -12 4 -16 -48 -85 -73 -99 -16 -8 -18 -6 -14 18 8 39 -7 57
-39 49 -28 -7 -35 -33 -14 -54 7 -7 9 -12 4 -12 -26 0 -66 83 -61 127 1 12 -2
20 -6 17 -5 -3 -9 -12 -9 -20 0 -8 -6 -17 -14 -20 -8 -3 -11 -15 -8 -30 3 -19
7 -22 13 -12 6 9 9 7 9 -9 0 -25 -16 -39 -24 -21 -4 7 -4 3 -2 -10 2 -12 0
-20 -5 -16 -5 3 -9 -3 -9 -13 0 -15 -2 -16 -10 -3 -13 19 -13 33 0 25 5 -3 0
12 -12 35 -18 32 -27 40 -50 40 -15 0 -28 -4 -28 -10 0 -5 -10 -19 -22 -31
-13 -12 -18 -19 -12 -16 7 4 14 0 17 -7 8 -19 -14 -26 -31 -10 -10 11 -10 19
3 44 13 24 13 33 3 50 -7 11 -18 20 -25 20 -21 0 -43 -31 -43 -61 0 -16 -4
-29 -8 -29 -4 0 -24 19 -43 43 -31 36 -40 59 -55 137 -2 8 2 20 8 27 13 16 -7
44 -26 37 -19 -7 -9 -138 15 -196 23 -56 25 -75 6 -59 -8 6 -17 8 -21 4 -3 -4
-12 7 -18 24 -17 44 -78 77 -78 41 0 -4 6 -8 14 -8 12 0 26 -19 30 -40 1 -3 4
-10 8 -16 7 -10 -31 -73 -44 -74 -4 0 -8 17 -10 38 -3 33 -6 37 -33 40 -36 4
-45 16 -45 61 0 19 -3 32 -6 28 -4 -3 -15 4 -25 16 l-18 22 6 -35 c2 -19 7
-37 9 -39 2 -2 -4 -17 -12 -33 l-16 -30 -25 36 c-25 34 -43 39 -43 13 0 -7 14
-27 30 -46 18 -19 27 -37 23 -44 -5 -9 -8 -8 -11 3 -2 8 -14 23 -27 32 -19 14
-29 16 -51 8 -24 -9 -25 -9 -14 5 8 9 8 15 2 15 -15 0 -24 -33 -18 -64 6 -36
-8 -33 -27 6 -19 38 -14 52 32 103 68 74 72 81 66 107 -8 32 -34 32 -46 -1 -9
-23 -82 -101 -96 -101 -3 0 -3 9 0 20 7 28 -12 25 -22 -4 -5 -13 -16 -26 -25
-29 -12 -5 -13 -2 -7 16 10 26 11 31 11 56 0 11 7 26 15 35 8 8 17 28 19 44 2
16 6 34 10 41 11 18 -5 13 -20 -6 -13 -17 -15 -17 -28 0 -19 24 -21 22 -22
-23 -1 -43 -31 -130 -44 -130 -5 0 -11 4 -14 9 -9 14 -59 3 -74 -16 -9 -12
-12 -34 -8 -65 4 -43 3 -48 -14 -48 -11 0 -27 12 -37 28 -10 15 -25 35 -35 46
-13 15 -14 23 -6 45 25 61 43 91 55 87 14 -6 29 13 29 34 -1 26 -52 24 -70 -2
-9 -12 -16 -18 -16 -13 -1 6 -14 -16 -31 -47 -16 -32 -36 -59 -44 -59 -24 -2
-29 -4 -43 -13 -30 -19 -26 -2 31 124 14 33 20 71 22 140 2 52 8 107 14 122 9
25 8 30 -14 44 -14 9 -31 14 -39 11 -18 -7 -25 -51 -12 -74 13 -23 14 -50 4
-88 -5 -16 -11 -48 -15 -70 -4 -27 -17 -51 -40 -75 -19 -19 -46 -52 -60 -72
-36 -54 -53 -50 -53 12 0 41 -5 56 -25 75 -40 40 -83 29 -104 -27 -6 -17 -2
-35 15 -69 20 -41 21 -48 8 -67 -17 -25 -54 -25 -54 0 0 9 5 20 10 23 6 3 10
1 10 -6 0 -7 3 -9 7 -5 5 4 0 14 -10 21 -10 7 -19 22 -20 34 0 11 -3 18 -5 16
-2 -2 -14 7 -26 21 -30 35 -59 37 -93 8 -15 -13 -23 -24 -18 -24 6 0 2 -5 -8
-11 -9 -6 -15 -14 -12 -20 4 -5 0 -16 -8 -24 -13 -13 -17 -11 -34 18 -30 50
-34 68 -22 84 10 11 8 15 -8 19 -25 7 -95 122 -75 125 4 1 19 3 34 4 33 4 76
27 115 59 16 14 49 32 74 42 24 9 46 19 48 20 2 2 -12 35 -30 73 -37 79 -43
82 -120 52z m-40 -463 c5 -13 6 -27 3 -33 -3 -5 -1 -7 3 -2 5 4 19 -14 31 -40
13 -26 22 -48 21 -49 -1 0 -18 6 -38 15 -23 10 -35 22 -33 33 1 9 -4 19 -11
22 -11 4 -14 49 -6 74 4 11 23 -2 30 -20z m-349 -85 c12 -21 16 -32 9 -25 -16
15 -53 16 -81 1 -11 -6 -32 -8 -46 -4 l-27 7 24 19 c19 16 34 19 65 15 23 -3
35 -3 29 0 -15 7 -17 24 -4 24 5 0 19 -17 31 -37z m898 -65 c10 -23 9 -28 -3
-28 -26 0 -30 2 -27 11 1 6 3 21 4 34 3 27 9 23 26 -17z m-648 2 c0 -11 -7
-23 -15 -27 -21 -8 -24 -2 -14 25 10 28 29 29 29 2z m2094 5 c3 -8 1 -15 -4
-15 -6 0 -10 7 -10 15 0 8 2 15 4 15 2 0 6 -7 10 -15z m-1148 -22 c-10 -10
-19 5 -10 18 6 11 8 11 12 0 2 -7 1 -15 -2 -18z m1194 12 c9 -11 9 -19 -3 -35
l-14 -21 -7 23 c-12 48 -1 64 24 33z m-2570 -37 c0 -5 -7 -8 -15 -8 -17 0 -18
2 -9 25 5 13 8 14 15 3 5 -7 9 -16 9 -20z m520 22 c8 -5 11 -10 5 -10 -5 0
-17 5 -25 10 -8 5 -10 10 -5 10 6 0 17 -5 25 -10z m1472 -15 c3 -16 1 -25 -7
-25 -8 0 -10 9 -7 25 2 14 6 25 7 25 1 0 5 -11 7 -25z m-455 -20 c6 -14 10
-25 8 -25 -8 0 -35 32 -35 41 0 18 15 9 27 -16z m843 -9 c0 -5 -7 -3 -15 4 -8
7 -12 17 -9 22 7 10 24 -9 24 -26z m240 -1 c0 -8 -4 -15 -10 -15 -5 0 -7 7 -4
15 4 8 8 15 10 15 2 0 4 -7 4 -15z m-370 -60 c-6 -15 -13 -26 -16 -23 -2 3 0
18 6 33 6 15 13 26 16 23 2 -3 0 -18 -6 -33z m561 -18 c9 -16 8 -17 -8 -9 -18
9 -37 9 -79 -1 -11 -3 -27 -1 -35 4 -12 8 -11 12 5 24 18 14 32 13 74 -2 6 -3
12 0 12 6 0 6 -5 11 -11 11 -5 0 -7 5 -3 12 7 11 23 -5 45 -45z m32 -51 c3 -7
-1 -26 -9 -41 -10 -19 -11 -32 -4 -45 6 -10 9 -31 9 -47 -1 -20 -3 -23 -6 -8
-3 10 -12 29 -19 41 -12 18 -12 26 1 58 9 20 13 41 10 46 -4 6 -2 10 3 10 6 0
12 -6 15 -14z m-1069 -270 c12 -3 33 -6 48 -6 40 0 41 -13 2 -51 -34 -33 -35
-35 -29 -91 l7 -57 -51 25 -51 26 -44 -26 c-24 -14 -45 -23 -48 -21 -2 3 0 27
6 55 10 50 10 50 -29 90 l-39 40 35 7 c19 4 42 7 52 7 13 -1 27 15 45 53 l27
54 24 -50 c14 -29 33 -52 45 -55z m510 6 c3 -2 22 -6 43 -9 65 -9 69 -16 27
-52 -36 -33 -37 -33 -30 -92 l6 -60 -49 26 c-47 26 -50 26 -80 11 -17 -9 -32
-15 -34 -14 -2 2 -12 -4 -22 -12 -17 -14 -18 -13 -11 14 21 83 20 85 -18 122
-43 42 -38 55 22 57 39 1 42 4 67 55 l27 54 24 -48 c13 -26 26 -49 28 -52z
m-2134 41 c21 -39 30 -48 55 -50 17 -1 41 -5 54 -8 24 -6 24 -7 -17 -45 -23
-22 -40 -45 -38 -52 3 -7 7 -32 10 -55 l6 -41 -51 24 -51 25 -48 -25 -48 -25
4 35 c2 20 6 44 9 54 4 13 -5 29 -30 53 -53 52 -47 60 46 60 10 0 26 19 40 48
12 27 25 49 28 49 3 0 17 -21 31 -47z m530 -1 c14 -26 31 -48 38 -48 6 -1 28
-2 47 -3 43 -1 44 -14 3 -53 -27 -25 -31 -36 -30 -71 2 -23 5 -50 8 -60 5 -16
-1 -15 -46 8 l-53 27 -50 -28 -50 -27 7 39 c4 22 9 46 12 55 3 11 -11 31 -36
55 -45 43 -40 53 28 57 37 2 41 6 62 50 13 26 26 47 29 47 3 0 17 -21 31 -48z
m524 3 c11 -25 22 -45 25 -46 119 -16 116 -14 70 -57 -35 -34 -39 -43 -35 -75
2 -20 7 -45 11 -57 6 -20 4 -19 -48 6 l-54 27 -48 -27 c-26 -15 -49 -26 -50
-24 -1 2 3 25 10 52 l13 49 -40 43 c-39 42 -39 43 -16 48 12 3 36 7 53 8 25 3
34 11 53 51 12 26 26 47 30 47 4 0 16 -20 26 -45z m1585 -3 c21 -45 25 -48 64
-51 62 -3 74 -14 45 -37 -45 -35 -59 -66 -48 -104 16 -57 13 -60 -40 -34 l-50
24 -52 -26 -51 -26 7 34 c4 18 9 42 12 54 3 15 -8 33 -37 62 l-41 40 48 10
c27 6 51 9 55 7 3 -3 16 18 29 45 13 28 26 50 30 50 4 0 17 -22 29 -48z m251
-137 c0 -8 -7 -15 -16 -15 -14 0 -14 3 -4 15 7 8 14 15 16 15 2 0 4 -7 4 -15z
m-2631 -269 c14 -29 29 -46 42 -47 10 -1 24 -3 29 -4 6 -1 22 -3 37 -4 l27 -1
-43 -44 c-30 -31 -41 -49 -37 -62 11 -38 16 -84 9 -84 -5 0 -23 9 -41 20 -41
25 -62 25 -107 0 -20 -11 -37 -20 -40 -20 -5 0 5 81 11 92 3 4 -13 27 -35 50
l-40 43 52 10 c48 9 54 14 77 57 13 25 27 45 30 43 3 -2 16 -24 29 -49z m526
5 c24 -49 26 -50 81 -57 l56 -7 -41 -38 c-39 -37 -41 -42 -35 -82 3 -23 7 -48
10 -54 5 -18 -4 -16 -56 11 l-45 24 -43 -24 c-23 -13 -45 -24 -48 -24 -6 0 5
92 12 99 2 3 -15 24 -38 48 -35 36 -39 43 -23 44 39 1 80 10 91 20 6 5 19 27
29 49 10 22 20 40 21 40 2 0 15 -22 29 -49z m528 -2 c22 -42 27 -45 81 -54
l58 -10 -42 -35 -41 -35 6 -57 c4 -32 5 -58 2 -58 -2 0 -24 11 -48 25 l-44 24
-44 -24 c-24 -14 -45 -25 -48 -25 -3 0 -2 24 1 54 7 53 6 55 -29 91 -21 20
-35 38 -33 39 1 2 25 7 52 12 45 8 50 13 73 57 14 26 27 46 29 44 2 -2 14 -23
27 -48z m546 -29 c4 -8 32 -20 61 -25 l53 -10 -41 -39 c-23 -22 -39 -42 -37
-46 7 -11 17 -100 11 -100 -3 0 -25 11 -48 24 l-43 24 -45 -24 c-56 -29 -60
-29 -54 -1 17 87 18 81 -26 124 l-42 40 56 7 c56 7 57 8 82 58 l26 51 19 -34
c11 -19 23 -41 28 -49z m529 -3 c7 -8 36 -18 64 -22 l50 -7 -39 -42 c-39 -40
-39 -42 -32 -91 4 -27 6 -51 5 -53 -2 -1 -23 8 -47 21 l-44 25 -45 -24 c-55
-28 -60 -29 -56 -6 2 9 6 34 10 54 6 34 3 40 -36 76 l-42 40 57 7 c53 7 58 10
74 44 29 64 36 68 53 28 9 -19 21 -42 28 -50z m-2703 -386 c0 -22 -3 -38 -6
-35 -12 7 -16 63 -5 68 6 2 11 5 11 5 0 1 0 -17 0 -38z m4349 -80 c-2 -3 -12
3 -22 13 -16 17 -16 18 5 5 12 -7 20 -15 17 -18z"/>
<path d="M3749 6503 c-1 -4 -1 -11 0 -15 0 -4 -6 -23 -14 -42 -9 -20 -13 -36
-11 -36 3 0 -2 -16 -10 -36 -8 -20 -13 -38 -10 -41 3 -3 8 7 12 21 5 21 9 24
20 16 7 -7 39 -18 71 -25 32 -8 65 -16 74 -20 12 -4 19 4 28 35 6 22 9 45 5
51 -7 13 -49 29 -89 36 -43 7 -67 22 -61 38 3 8 1 17 -4 20 -6 4 -11 3 -11 -2z"/>
<path d="M6024 6318 c9 -38 -16 -93 -41 -94 -12 -1 -20 3 -17 7 8 14 -42 32
-70 25 -22 -5 -24 -10 -22 -50 2 -41 1 -43 -18 -34 -12 5 -37 32 -56 59 -19
27 -38 49 -42 49 -3 0 -4 9 -1 20 3 11 1 20 -5 20 -15 0 -24 -32 -12 -44 28
-28 -7 -64 -70 -72 -13 -2 -29 -9 -35 -17 -5 -7 -18 -16 -27 -20 -10 -3 -18
-11 -18 -17 0 -5 -5 -10 -11 -10 -12 0 -8 87 6 125 5 16 5 17 -4 5 -6 -8 -11
-11 -11 -5 0 21 -22 -15 -27 -46 -8 -47 -7 -76 4 -135 l10 -51 -49 -26 c-44
-24 -48 -25 -48 -7 0 10 4 30 10 44 10 27 0 35 -18 13 -11 -13 -9 -130 4 -169
3 -12 2 -18 -4 -14 -13 8 -41 -25 -51 -61 l-9 -29 285 1 c284 1 285 1 304 23
10 13 22 23 26 22 8 0 9 4 12 43 1 20 3 20 12 5 7 -13 15 -15 27 -9 9 5 25 12
35 15 9 3 17 15 17 26 0 11 4 20 8 20 21 0 52 42 48 65 -6 33 -29 72 -33 58
-3 -7 0 -21 6 -32 9 -16 8 -19 -7 -17 -12 2 -17 11 -16 29 1 15 2 48 3 73 1
30 5 43 12 38 7 -4 6 3 -2 17 -7 13 -12 26 -12 29 1 3 0 7 -2 9 -2 2 -2 -8 1
-23 5 -31 -5 -33 -32 -6 -41 41 -42 45 -29 84 7 21 15 40 18 43 7 6 -30 43
-43 43 -6 0 -8 -10 -6 -22z m-225 -137 c9 -15 6 -17 -20 -13 -25 4 -31 0 -40
-27 -9 -24 -13 -28 -23 -18 -36 37 -18 73 33 65 22 -3 28 -1 23 11 -7 20 15 5
27 -18z m28 -73 c-3 -7 -5 -2 -5 12 0 14 2 19 5 13 2 -7 2 -19 0 -25z m-164
-13 c4 -8 2 -17 -3 -20 -6 -4 -10 -4 -10 -1 0 2 -3 11 -6 20 -3 9 -2 16 4 16
5 0 12 -7 15 -15z m165 -61 c-3 -14 -5 -12 -10 9 -3 19 -2 25 4 19 6 -6 8 -18
6 -28z"/>
<path d="M4561 5724 c0 -11 3 -14 6 -6 3 7 2 16 -1 19 -3 4 -6 -2 -5 -13z"/>
<path d="M5290 5615 c-5 -14 -10 -31 -10 -36 0 -12 -27 -12 -32 1 -1 5 -14 11
-28 12 -17 2 -25 -2 -28 -17 -6 -29 -22 -45 -44 -45 -17 0 -40 -37 -32 -52 2
-3 177 -6 389 -6 l385 0 1 26 c0 21 2 23 7 9 7 -17 9 -16 29 3 12 11 28 18 35
15 22 -8 59 27 48 45 -8 13 -10 13 -10 -1 0 -28 -29 -30 -46 -4 -9 14 -25 25
-35 25 -13 0 -17 5 -12 18 4 9 11 20 17 24 6 4 -105 8 -246 8 -166 0 -258 -4
-258 -10 0 -5 -7 -10 -16 -10 -8 0 -12 5 -9 10 3 6 -1 10 -9 10 -9 0 -16 -11
-18 -27 -4 -38 -35 -43 -40 -7 -4 37 -25 42 -38 9z"/>
<path d="M5040 5490 c6 -11 15 -20 20 -20 6 0 10 9 10 20 0 13 -7 20 -20 20
-18 0 -19 -3 -10 -20z"/>
<path d="M5955 5500 c-8 -13 5 -13 25 0 13 8 13 10 -2 10 -9 0 -20 -4 -23 -10z"/>
<path d="M5595 4994 c8 -13 10 -26 4 -35 -12 -20 -11 -57 3 -65 8 -5 9 -2 5 9
-3 9 0 23 8 31 8 7 12 16 10 18 -3 2 -1 18 4 36 9 30 8 31 -19 29 -27 -2 -28
-3 -15 -23z"/>
<path d="M1264 4645 c19 -36 33 -73 31 -82 -3 -17 98 -18 2111 -18 1544 0
2117 3 2122 11 4 6 26 21 49 33 52 26 68 47 29 37 -25 -6 -26 -5 -16 14 9 17
7 22 -12 30 -24 9 -12 14 28 11 11 -1 27 5 34 13 11 14 -203 16 -2199 16
l-2212 0 35 -65z"/>
<path d="M1490 4388 c0 -5 4 -7 9 -4 16 10 81 -72 81 -102 0 -15 4 -32 8 -38
5 -8 537 -11 1845 -11 1776 0 1838 1 1834 19 -3 10 -1 16 4 13 9 -6 62 25 55
32 -3 3 10 19 28 37 69 66 231 61 -1916 62 -1147 0 -1948 -3 -1948 -8z"/>
<path d="M2021 4086 c3 -3 40 -23 84 -44 58 -29 98 -41 145 -45 36 -3 99 -9
141 -13 l76 -7 7 28 c7 27 8 27 64 21 31 -3 74 -5 95 -6 28 0 37 -4 38 -17 0
-10 17 -31 36 -48 l36 -30 895 0 c491 0 896 3 899 7 2 5 12 4 21 -1 9 -4 49
-6 87 -4 39 2 75 3 80 3 47 -3 503 -5 512 -2 9 3 7 15 -8 43 -11 22 -21 56
-23 77 l-3 37 -1593 3 c-876 1 -1591 0 -1589 -2z"/>
<path d="M2830 3773 c0 -10 66 -63 77 -63 7 0 13 -4 13 -8 0 -4 14 -13 30 -19
24 -9 33 -9 45 4 8 8 15 21 15 29 0 8 12 26 26 39 l27 25 -117 -2 c-64 -1
-116 -3 -116 -5z"/>
<path d="M3082 3775 c2 -2 19 -5 38 -8 43 -5 107 -62 132 -115 l16 -37 201 0
c111 -1 201 3 201 7 0 4 14 8 30 8 47 0 120 42 120 69 0 5 5 13 12 17 7 5 8 3
3 -7 -5 -8 1 -5 13 5 24 21 31 36 8 17 -12 -10 -16 -8 -21 10 -4 13 -2 24 5
29 7 4 -162 8 -375 8 -212 0 -385 -1 -383 -3z"/>
<path d="M3860 3763 c0 -17 31 -16 66 2 l29 16 -47 -3 c-32 -1 -48 -6 -48 -15z"/>
<path d="M4079 3769 c19 -6 37 -7 42 -2 5 5 -9 10 -33 10 l-43 2 34 -10z"/>
<path d="M4145 3770 c-3 -5 1 -10 9 -10 9 0 16 5 16 10 0 6 -4 10 -9 10 -6 0
-13 -4 -16 -10z"/>
<path d="M4214 3755 c27 -28 65 -38 73 -19 6 17 43 19 43 2 0 -9 3 -9 11 -1 7
7 9 19 6 27 -5 12 -22 15 -80 14 l-73 -1 20 -22z"/>
<path d="M4374 3765 c8 -8 19 -15 25 -15 5 0 15 -8 20 -17 6 -11 11 -13 11 -5
0 7 5 10 10 7 6 -3 10 1 10 9 0 9 -15 19 -37 25 -51 14 -57 14 -39 -4z"/>
<path d="M5130 3777 c-1 -1 -3 -25 -6 -53 -5 -49 6 -78 21 -54 3 5 1 10 -6 10
-7 0 -10 2 -7 5 3 3 13 3 22 -1 15 -6 15 -9 1 -30 -11 -18 -12 -25 -2 -31 10
-7 277 -13 277 -6 0 8 -76 129 -84 135 -7 5 -7 8 -1 8 6 0 3 4 -4 9 -12 8
-210 14 -211 8z"/>
<path d="M3370 3457 c0 -7 8 -30 18 -51 21 -43 95 -86 148 -86 18 0 34 -5 36
-11 2 -7 13 -9 25 -5 22 7 22 7 3 39 -20 34 -33 97 -21 97 4 0 8 6 8 13 0 10
-26 14 -109 16 -86 2 -108 0 -108 -12z"/>
<path d="M5307 3458 c12 -6 29 -26 38 -45 9 -18 21 -31 27 -27 7 4 5 9 -3 15
-8 5 -9 9 -3 9 5 0 15 -5 22 -12 8 -8 15 -8 28 3 9 8 19 13 21 12 1 -2 3 -1 3
2 0 3 0 16 0 30 0 25 -1 25 -77 24 -63 0 -74 -2 -56 -11z"/>
<path d="M3448 2825 c-2 -2 -34 -5 -72 -9 -70 -7 -209 -48 -236 -70 -8 -6 -28
-18 -43 -26 -42 -21 -143 -116 -180 -169 -94 -136 -123 -232 -121 -406 2 -127
33 -229 103 -335 84 -128 196 -217 335 -268 61 -23 89 -27 201 -28 118 -2 138
0 211 24 44 15 106 43 138 62 115 70 254 239 282 345 2 6 10 35 18 65 18 62
22 237 7 288 -5 18 -9 33 -9 35 3 7 -28 89 -50 132 -79 151 -230 279 -387 327
-31 10 -193 36 -197 33z m75 -373 c113 -31 200 -148 201 -267 0 -159 -125
-283 -286 -283 -159 0 -278 119 -278 280 0 37 5 80 12 95 63 146 203 216 351
175z"/>
<path d="M5020 2810 c-83 -15 -130 -60 -170 -165 -13 -33 -28 -73 -35 -90 -25
-59 -299 -757 -425 -1080 -45 -115 -88 -224 -95 -240 -71 -158 -95 -275 -68
-327 26 -54 50 -58 305 -58 271 0 288 4 325 80 12 25 21 47 20 50 -1 6 50 176
63 208 l10 22 315 0 c173 0 315 -2 315 -4 0 -7 70 -239 77 -256 3 -8 7 -18 7
-21 3 -18 43 -59 58 -59 9 0 20 -4 23 -10 4 -6 96 -10 243 -10 217 0 240 2
269 20 17 10 36 27 41 37 12 24 12 111 0 143 -5 14 -11 32 -13 40 -2 8 -36 96
-75 195 -39 99 -96 243 -127 320 -183 466 -226 573 -239 599 -8 16 -14 32 -14
36 0 4 -8 25 -17 46 -9 22 -17 41 -18 44 -1 3 -5 14 -10 25 -43 106 -137 342
-138 350 -1 5 -15 24 -32 43 -53 60 -74 64 -330 66 -126 1 -246 -1 -265 -4z
m248 -517 c5 -21 26 -83 46 -138 64 -175 157 -457 153 -461 -2 -3 -101 -3
-219 -2 l-215 3 105 318 c58 174 109 317 112 317 4 0 12 -17 18 -37z"/>
<path d="M1143 2788 c-15 -4 -38 -22 -50 -40 l-23 -32 0 -878 c0 -954 -2 -921
55 -966 26 -21 37 -22 246 -22 l218 0 41 38 c23 23 41 49 41 63 1 13 2 152 3
309 l1 285 414 5 413 5 28 33 c35 42 36 52 35 238 -1 139 -3 154 -24 182 -12
17 -32 34 -44 38 -12 5 -200 9 -417 10 -217 1 -397 2 -400 3 -3 0 -5 52 -5
114 l0 112 425 5 c234 3 432 9 441 13 9 4 27 22 40 40 23 30 24 40 25 194 2
176 -6 209 -54 241 -23 15 -91 17 -703 17 -373 0 -690 -3 -706 -7z"/>
<path d="M2933 1300 c-46 -19 -55 -49 -55 -192 0 -204 -1 -196 31 -229 l29
-29 511 0 511 0 32 29 32 29 2 163 c1 182 -6 210 -59 229 -37 13 -1002 13
-1034 0z"/>
<path d="M1775 570 c-87 -21 -152 -74 -185 -152 -74 -172 51 -361 237 -359
241 2 351 288 173 449 -60 54 -151 80 -225 62z m108 -152 c24 -13 57 -68 57
-96 0 -13 -5 -33 -12 -45 -58 -109 -206 -78 -212 45 -5 83 90 138 167 96z"/>
<path d="M5335 569 c-120 -26 -203 -130 -203 -255 1 -147 113 -256 263 -255
105 1 179 45 233 140 34 58 34 160 1 225 -56 113 -173 170 -294 145z m120
-155 c115 -75 7 -250 -118 -193 -30 14 -66 76 -61 106 7 42 9 47 24 64 41 45
107 55 155 23z"/>
<path d="M1119 554 c-5 -7 -8 -111 -7 -245 l3 -234 63 -3 c35 -2 69 2 76 7 8
7 12 35 11 78 -1 38 0 73 2 79 2 6 40 10 101 9 53 -1 103 3 110 8 6 5 12 31
12 58 0 27 -5 51 -12 56 -7 4 -53 9 -103 9 -49 1 -95 2 -101 3 -12 1 -14 43
-2 51 4 3 55 5 113 5 97 -1 105 0 112 19 9 28 4 89 -7 100 -14 14 -359 14
-371 0z"/>
<path d="M2154 558 c-11 -17 -5 -300 7 -336 15 -48 42 -86 84 -117 43 -33 64
-38 160 -39 66 0 87 4 115 21 90 56 110 112 110 319 0 102 -4 144 -12 151 -15
12 -123 11 -135 0 -4 -5 -8 -71 -9 -148 -1 -107 -5 -144 -17 -163 -32 -48
-126 -35 -148 22 -6 15 -12 88 -13 162 l-2 135 -68 1 c-37 0 -69 -3 -72 -8z"/>
<path d="M2728 553 c-15 -19 -13 -450 3 -469 15 -18 122 -19 136 -2 6 7 10 62
9 121 -1 100 6 135 23 110 3 -6 55 -63 116 -127 l109 -116 61 0 c34 0 66 5 73
12 18 18 17 464 0 475 -7 4 -39 8 -71 8 -43 1 -61 -3 -67 -15 -4 -8 -7 -62 -7
-118 1 -57 -1 -106 -5 -108 -4 -2 -49 39 -100 92 -136 141 -138 144 -146 145
-42 8 -125 3 -134 -8z"/>
<path d="M3377 559 c-11 -6 -13 -53 -13 -236 1 -125 5 -234 9 -241 14 -21 259
-15 313 8 162 70 206 280 84 400 -63 62 -101 73 -247 75 -73 1 -138 -2 -146
-6z m262 -156 c35 -33 44 -76 26 -120 -18 -43 -51 -61 -105 -59 l-45 2 -3 89
c-2 49 -1 94 2 102 3 8 22 13 51 13 35 0 51 -6 74 -27z"/>
<path d="M4041 553 c-9 -6 -16 -15 -17 -20 -1 -9 -3 -16 -45 -118 -16 -38 -29
-73 -29 -77 0 -5 -9 -30 -21 -56 -52 -117 -72 -179 -65 -197 5 -13 19 -15 77
-13 75 3 79 5 99 61 9 26 11 27 88 27 l78 0 14 -42 15 -43 75 0 75 0 -1 35
c-1 19 -9 53 -19 75 -10 22 -19 45 -20 50 -3 9 -72 183 -98 245 -5 14 -11 31
-13 39 -7 34 -34 46 -106 46 -39 0 -78 -5 -87 -12z m114 -196 l23 -74 -54 1
c-32 0 -53 5 -51 11 2 5 14 41 27 78 12 38 24 66 27 63 2 -2 15 -38 28 -79z"/>
<path d="M4390 558 c-17 -6 -20 -17 -20 -61 0 -55 14 -80 42 -76 7 1 33 1 58
0 l45 -1 0 -172 0 -173 67 -3 c56 -2 68 0 76 15 5 10 8 87 8 171 -1 85 1 155
5 158 3 2 29 4 57 5 28 1 56 5 63 10 14 8 21 100 9 120 -7 11 -48 14 -200 14
-104 0 -199 -3 -210 -7z"/>
<path d="M4900 556 c-11 -11 -14 -443 -4 -470 5 -12 21 -16 75 -16 60 0 71 3
77 19 9 26 8 459 -2 468 -11 11 -135 10 -146 -1z"/>
<path d="M5733 555 c-21 -15 -22 -463 -1 -476 17 -11 125 -11 132 0 3 5 6 59
7 120 0 61 4 113 8 115 4 3 61 -51 126 -120 l119 -124 62 0 c37 0 65 5 71 12
6 8 10 107 10 241 0 198 -2 229 -16 236 -20 9 -112 8 -127 -1 -7 -5 -11 -46
-10 -114 1 -58 -2 -111 -5 -116 -7 -10 -31 13 -180 168 l-66 69 -58 0 c-32 0
-64 -4 -72 -10z"/>
</g>
</svg>
