<svg xmlns="http://www.w3.org/2000/svg" viewBox="0 0 42.41 38.88"><g data-name="Layer 2"><path d="M42.34 26.81a.83.83 0 0 0 0-.56l-3.46-11.36V4.42A4.42 4.42 0 0 0 34.46 0H8a4.43 4.43 0 0 0-4.47 4.42v10.47L0 26.25a.83.83 0 0 0 0 .56 2.79 2.79 0 0 0-.07.58V38a.89.89 0 0 0 .88.89h3.61A.88.88 0 0 0 5.3 38v-2.66h31.81V38a.89.89 0 0 0 .88.89h3.54a.88.88 0 0 0 .88-.89V27.39a2.25 2.25 0 0 0-.07-.58zM5.3 4.42A2.65 2.65 0 0 1 8 1.77h26.46a2.65 2.65 0 0 1 2.65 2.65v9.72h-2.4l-.82-3.3a2.65 2.65 0 0 0-2.58-2h-5.69A2.65 2.65 0 0 0 23 11.49v2.65h-3.56v-2.65a2.65 2.65 0 0 0-2.65-2.65H11.1a2.63 2.63 0 0 0-2.57 2l-.83 3.3H5.3zm27.59 11.15a.88.88 0 0 1-.69.33h-6.58a.88.88 0 0 1-.88-.88v-3.53a.89.89 0 0 1 .88-.89h5.69a.89.89 0 0 1 .86.67l.89 3.54a.91.91 0 0 1-.17.76zm-15.22-4.08V15a.88.88 0 0 1-.88.88h-6.57a.89.89 0 0 1-.7-.33.87.87 0 0 1-.16-.76l.88-3.54a.89.89 0 0 1 .86-.67h5.69a.88.88 0 0 1 .88.91zM5.07 15.9h2.66a2.68 2.68 0 0 0 .39.75 2.64 2.64 0 0 0 2.1 1h6.57a2.65 2.65 0 0 0 2.49-1.77h3.86a2.63 2.63 0 0 0 2.48 1.77h6.58a2.64 2.64 0 0 0 2.09-1 2.33 2.33 0 0 0 .39-.75h2.66l2.73 8.87a3 3 0 0 0-.31 0H2.65a3 3 0 0 0-.31 0zM3.53 37.11H1.77v-1.77h1.76v1.77zm37.12 0h-1.77v-1.77h1.77zm0-3.53H1.77v-6.19a.87.87 0 0 1 .88-.88h37.11a.88.88 0 0 1 .89.88z" fill="#fff" data-name="Layer 1"/></g></svg>