<svg xmlns="http://www.w3.org/2000/svg" viewBox="0 0 49.65 40.52"><defs/><g id="Layer_2" data-name="Layer 2"><g id="Layer_1-2" data-name="Layer 1"><path class="cls-1" d="M46.28 8.14h-4.54l-1.05-4.72A4.34 4.34 0 0 0 36.43 0H20.66a4.35 4.35 0 0 0-4.26 3.42l-1 4.72h-1.12v-2a2.06 2.06 0 0 0-2.06-2.06H5.57a2.05 2.05 0 0 0-2.05 2.05v2h-.15A3.37 3.37 0 0 0 0 11.51v22.83a3.38 3.38 0 0 0 3.37 3.37H19a17.62 17.62 0 0 0 19.09 0h8.19a3.38 3.38 0 0 0 3.37-3.37V11.51a3.37 3.37 0 0 0-3.37-3.37zm-28-4.3a2.41 2.41 0 0 1 2.37-1.9h15.78a2.41 2.41 0 0 1 2.37 1.9l1 4.3h-1.71a17.56 17.56 0 0 0-19.09 0h-1.66zM5.45 6.13A.12.12 0 0 1 5.57 6h6.65a.12.12 0 0 1 .12.12v2H5.45zm2.34 29.64V25.23a1 1 0 1 0-1.94 0v10.54H3.37a1.44 1.44 0 0 1-1.43-1.43V11.51a1.43 1.43 0 0 1 1.43-1.43h13.15a17.57 17.57 0 0 0 0 25.69zm29.71 0a16.27 16.27 0 0 1-3.78 1.94 15.66 15.66 0 0 1-10.35 0 16.27 16.27 0 0 1-3.78-1.94 15.67 15.67 0 1 1 17.91 0zm10.21-1.43a1.44 1.44 0 0 1-1.43 1.43h-5.71a17.57 17.57 0 0 0 0-25.69h5.71a1.43 1.43 0 0 1 1.43 1.43v22.83z"/><path class="cls-1" d="M28.55 10.19a12.73 12.73 0 1 0 3 25.1 1 1 0 0 0-.46-1.88 11 11 0 0 1-2.56.3A10.78 10.78 0 1 1 37.49 29a1 1 0 1 0 1.6 1.09 12.73 12.73 0 0 0-10.54-19.9zM6.82 13.43A3.61 3.61 0 1 0 10.43 17a3.61 3.61 0 0 0-3.61-3.57zm0 5.28A1.67 1.67 0 1 1 8.49 17a1.67 1.67 0 0 1-1.67 1.71z"/><path class="cls-1" d="M36.37 32.27a1.21 1.21 0 0 0 0-.18l-.09-.16a1 1 0 0 0-.12-.15.79.79 0 0 0-.15-.12.56.56 0 0 0-.17-.09 1.27 1.27 0 0 0-.18-.06 1.21 1.21 0 0 0-.38 0 1.27 1.27 0 0 0-.18.06.7.7 0 0 0-.17.09.53.53 0 0 0-.14.12.44.44 0 0 0-.12.15.51.51 0 0 0-.09.16.64.64 0 0 0-.06.18 1.37 1.37 0 0 0 0 .19 1.11 1.11 0 0 0 0 .19.48.48 0 0 0 .06.18.56.56 0 0 0 .09.17.57.57 0 0 0 .12.15l.14.12.17.09h.18a.65.65 0 0 0 .19 0 .58.58 0 0 0 .19 0h.18l.17-.09.15-.12a1 1 0 0 0 .28-.69.65.65 0 0 0-.07-.19z"/></g></g></svg>