<svg xmlns="http://www.w3.org/2000/svg" viewBox="0 0 45.21 45.21"><g data-name="Layer 2"><g data-name="Layer 1"><path class="cls-1" d="M22.6 0a4.52 4.52 0 1 0 4.52 4.52A4.52 4.52 0 0 0 22.6 0zm0 7.53a3 3 0 1 1 3-3 3 3 0 0 1-3 3zm3.02 2.27h-.18l-.16.07a6 6 0 0 1-5.35 0l-.16-.07h-.18a3.77 3.77 0 0 0-3.77 3.76v4.52a2.26 2.26 0 0 0 2.26 2.26h9a2.27 2.27 0 0 0 2.27-2.26v-4.52a3.77 3.77 0 0 0-3.73-3.76zm2.26 8.28a.76.76 0 0 1-.76.76h-9a.76.76 0 0 1-.75-.76v-4.52a2.26 2.26 0 0 1 2.1-2.25 7.58 7.58 0 0 0 6.35 0 2.26 2.26 0 0 1 2.1 2.25zm10.55 6.78A4.53 4.53 0 1 0 43 29.39a4.52 4.52 0 0 0-4.57-4.53zm0 7.54a3 3 0 1 1 3-3 3 3 0 0 1-3 3z"/><path class="cls-1" d="M41.44 34.66h-.18l-.16.07a6 6 0 0 1-5.35 0l-.16-.07h-.18a3.76 3.76 0 0 0-3.76 3.77V43a2.26 2.26 0 0 0 2.26 2.26h9a2.26 2.26 0 0 0 2.3-2.26v-4.57a3.77 3.77 0 0 0-3.77-3.77zM43.7 43a.76.76 0 0 1-.75.75h-9a.76.76 0 0 1-.76-.75v-4.57a2.27 2.27 0 0 1 2.1-2.26 7.5 7.5 0 0 0 6.35 0 2.27 2.27 0 0 1 2.1 2.26zM6.78 24.86a4.53 4.53 0 1 0 4.52 4.53 4.52 4.52 0 0 0-4.52-4.53zm0 7.54a3 3 0 1 1 3-3 3 3 0 0 1-3 3z"/><path class="cls-1" d="M9.8 34.66h-.18l-.16.07a6 6 0 0 1-5.36 0l-.1-.07h-.23A3.77 3.77 0 0 0 0 38.43V43a2.26 2.26 0 0 0 2.26 2.26h9a2.26 2.26 0 0 0 2.3-2.26v-4.57a3.77 3.77 0 0 0-3.76-3.77zM12.06 43a.76.76 0 0 1-.76.75h-9a.75.75 0 0 1-.79-.75v-4.57a2.26 2.26 0 0 1 2.1-2.26 7.5 7.5 0 0 0 6.35 0 2.27 2.27 0 0 1 2.1 2.26zm18.02-4.74a.76.76 0 0 0-1-.4 16.67 16.67 0 0 1-10.75.74l.71-.2a.76.76 0 1 0-.42-1.4l-3 .88a.72.72 0 0 0-.19.11h-.08a.64.64 0 0 0-.18.25.85.85 0 0 0-.06.31 2.64 2.64 0 0 0 .07.3l1.51 2.88a.76.76 0 0 0 1.34-.7l-.62-1.17a18.14 18.14 0 0 0 12.3-.67.76.76 0 0 0 .37-.93zm12.65-18.45a.77.77 0 0 0-1.07 0l-1.06 1.07A18.07 18.07 0 0 0 29.68 6a.75.75 0 1 0-.59 1.38 16.57 16.57 0 0 1 10 13.32l-.85-.85a.76.76 0 0 0-1.07 1.07l2.26 2.26a.77.77 0 0 0 1.07 0l2.26-2.26a.77.77 0 0 0-.03-1.11zM16.55 6.52a.32.32 0 0 0 0-.13.41.41 0 0 0-.07-.11l-.08-.12a.65.65 0 0 0-.15-.1L16.17 6l-3-1.38A.75.75 0 0 0 12.5 6l1.56.71A18.07 18.07 0 0 0 4.52 22.6a.76.76 0 1 0 1.48 0 16.55 16.55 0 0 1 8.18-14.27l-.54 1.14a.75.75 0 0 0 .35 1 .73.73 0 0 0 .33.08.74.74 0 0 0 .67-.43L16.5 7a.75.75 0 0 0 0-.16v-.12a.8.8 0 0 0 .05-.2z"/></g></g></svg>